<mxfile host="app.diagrams.net" modified="2022-10-15T03:05:23.033Z" agent="5.0 (Macintosh; Intel Mac OS X 10_15_7) AppleWebKit/537.36 (KHTML, like Gecko) Chrome/106.0.0.0 Safari/537.36 Edg/106.0.1370.37" etag="OFrR-_Ui3m46-csGaYkJ" version="20.4.0" type="github">
  <diagram id="YZ9EhuxW2a9zWzWP8Swm" name="Page-1">
    <mxGraphModel dx="1699" dy="1272" grid="1" gridSize="10" guides="1" tooltips="1" connect="1" arrows="1" fold="1" page="1" pageScale="1" pageWidth="827" pageHeight="1169" math="0" shadow="0">
      <root>
        <mxCell id="0" />
        <mxCell id="1" parent="0" />
        <mxCell id="SPbcS3pj2Kl96PpT9U_s-1" value="CLASS(Obejct)&lt;br&gt;&lt;font color=&quot;#4c0099&quot;&gt;class PlayerCharater&lt;/font&gt;" style="ellipse;whiteSpace=wrap;html=1;aspect=fixed;" vertex="1" parent="1">
          <mxGeometry x="80" y="540" width="80" height="80" as="geometry" />
        </mxCell>
        <mxCell id="SPbcS3pj2Kl96PpT9U_s-2" value="using method by def a function:&amp;nbsp;&amp;nbsp;&lt;font color=&quot;#4c0099&quot;&gt;def _init_(sef, game, type)&lt;/font&gt;" style="rounded=0;whiteSpace=wrap;html=1;" vertex="1" parent="1">
          <mxGeometry x="340" y="550" width="220" height="60" as="geometry" />
        </mxCell>
        <mxCell id="SPbcS3pj2Kl96PpT9U_s-3" value="using method by def a function: &lt;font color=&quot;#4c0099&quot;&gt;def _init_(sef, name, age)&lt;/font&gt;" style="rounded=0;whiteSpace=wrap;html=1;" vertex="1" parent="1">
          <mxGeometry x="340" y="400" width="220" height="60" as="geometry" />
        </mxCell>
        <mxCell id="SPbcS3pj2Kl96PpT9U_s-4" value="using method by def a function:&amp;nbsp;&lt;font color=&quot;#4c0099&quot;&gt;def _init_(sef, game, type)&lt;/font&gt;" style="rounded=0;whiteSpace=wrap;html=1;" vertex="1" parent="1">
          <mxGeometry x="340" y="710" width="220" height="60" as="geometry" />
        </mxCell>
        <mxCell id="SPbcS3pj2Kl96PpT9U_s-6" value="" style="endArrow=classic;html=1;rounded=0;exitX=1;exitY=0.5;exitDx=0;exitDy=0;entryX=0;entryY=0.5;entryDx=0;entryDy=0;" edge="1" parent="1" source="SPbcS3pj2Kl96PpT9U_s-1" target="SPbcS3pj2Kl96PpT9U_s-2">
          <mxGeometry width="50" height="50" relative="1" as="geometry">
            <mxPoint x="380" y="610" as="sourcePoint" />
            <mxPoint x="430" y="560" as="targetPoint" />
          </mxGeometry>
        </mxCell>
        <mxCell id="SPbcS3pj2Kl96PpT9U_s-7" value="" style="endArrow=classic;html=1;rounded=0;exitX=0.5;exitY=0;exitDx=0;exitDy=0;entryX=0;entryY=0.5;entryDx=0;entryDy=0;" edge="1" parent="1" source="SPbcS3pj2Kl96PpT9U_s-1" target="SPbcS3pj2Kl96PpT9U_s-3">
          <mxGeometry width="50" height="50" relative="1" as="geometry">
            <mxPoint x="160" y="580" as="sourcePoint" />
            <mxPoint x="340" y="580" as="targetPoint" />
            <Array as="points">
              <mxPoint x="120" y="430" />
            </Array>
          </mxGeometry>
        </mxCell>
        <mxCell id="SPbcS3pj2Kl96PpT9U_s-8" value="" style="endArrow=classic;html=1;rounded=0;entryX=-0.036;entryY=0.644;entryDx=0;entryDy=0;entryPerimeter=0;" edge="1" parent="1" target="SPbcS3pj2Kl96PpT9U_s-4">
          <mxGeometry width="50" height="50" relative="1" as="geometry">
            <mxPoint x="120" y="620" as="sourcePoint" />
            <mxPoint x="340" y="430" as="targetPoint" />
            <Array as="points">
              <mxPoint x="120" y="750" />
              <mxPoint x="200" y="750" />
            </Array>
          </mxGeometry>
        </mxCell>
        <mxCell id="SPbcS3pj2Kl96PpT9U_s-9" value="" style="endArrow=classic;html=1;rounded=0;fontColor=#4C0099;exitX=1;exitY=0.5;exitDx=0;exitDy=0;" edge="1" parent="1" source="SPbcS3pj2Kl96PpT9U_s-3">
          <mxGeometry width="50" height="50" relative="1" as="geometry">
            <mxPoint x="460" y="600" as="sourcePoint" />
            <mxPoint x="790" y="370" as="targetPoint" />
            <Array as="points">
              <mxPoint x="640" y="430" />
              <mxPoint x="640" y="370" />
            </Array>
          </mxGeometry>
        </mxCell>
        <mxCell id="SPbcS3pj2Kl96PpT9U_s-10" value="" style="endArrow=classic;html=1;rounded=0;fontColor=#4C0099;exitX=1;exitY=0.5;exitDx=0;exitDy=0;" edge="1" parent="1" source="SPbcS3pj2Kl96PpT9U_s-3">
          <mxGeometry width="50" height="50" relative="1" as="geometry">
            <mxPoint x="560" y="430" as="sourcePoint" />
            <mxPoint x="790" y="490" as="targetPoint" />
            <Array as="points">
              <mxPoint x="640" y="430" />
              <mxPoint x="640" y="490" />
            </Array>
          </mxGeometry>
        </mxCell>
        <mxCell id="SPbcS3pj2Kl96PpT9U_s-11" value="&lt;font color=&quot;#000000&quot;&gt;Attribute: customise object&lt;/font&gt;&lt;br&gt;&lt;font color=&quot;#330066&quot;&gt;self.name = name&lt;br&gt;&lt;/font&gt;self.age = age" style="rounded=1;whiteSpace=wrap;html=1;fontColor=#4C0099;" vertex="1" parent="1">
          <mxGeometry x="790" y="340" width="230" height="60" as="geometry" />
        </mxCell>
        <mxCell id="SPbcS3pj2Kl96PpT9U_s-12" value="&lt;font color=&quot;#000000&quot;&gt;Attribute: customise object&lt;/font&gt;&lt;br&gt;&lt;font color=&quot;#330066&quot;&gt;self.name = name&lt;br&gt;&lt;/font&gt;self.age = age" style="rounded=1;whiteSpace=wrap;html=1;fontColor=#4C0099;" vertex="1" parent="1">
          <mxGeometry x="790" y="460" width="230" height="60" as="geometry" />
        </mxCell>
        <mxCell id="SPbcS3pj2Kl96PpT9U_s-16" value="" style="shape=image;verticalLabelPosition=bottom;labelBackgroundColor=default;verticalAlign=top;aspect=fixed;imageAspect=0;image=data:image/png,iVBORw0KGgoAAAANSUhEUgAAAsoAAAGOCAYAAACOtyWnAAAACXBIWXMAABYlAAAWJQFJUiTwAAAgAElEQVR4nOydd3gU1frHvzOzfbMpm952Q0go0qVLFVABEZGrWAB79157/anX3q5e27Ur9oJdsRdUVEAFQTqEANn0nmzK9pn5/bHJ7p7d2Ray2QTP53l49Jw5c+bdPZuZ75zznvdlDAaDCAqFQqFQKBQKhULAxtsACoVCoVAoFAqlP0KFMoVCoVAoFAqFIgEVyhQKhUKhUCgUigRUKFMoFAqFQqFQKBJQoUyhUCgUCoVCoUhAhTKFQqFQKBQKhSIBFcoUCoVCoVAoFIoEVChTKBQKhUKhUCgSUKFMoVAoFAqFQqFIQIUyhUKhUCgUCoUiARXKFAqFQqFQKBSKBLJ4G9BbJB69ANrZ5wU9Lgou1D17EUR7Zx9aRYkl/LypqDpjQYgGPIzX/Aeixdp3RlEih2XBKOQQbfbI2k8fh/Ilc93/b3PCePfTEB2u2NlHoVAo/QEWYBkWAi9EdVrakCRkjtcDAESXiL0flUfdRzQULciFMlkBAGja04bav5pidq2+5IgRymxSBtjE1JBtOIUaLiqU+xxGq4bp2nMAlgveqMOCDFMlNAcqIZaaILZbwvZrSUsG9Emhr61WUKHcX0jSoWPRLDRPHw+kJQNc14KWKAIWK1DdgPzPfwazfgsgBN7MO4y5QGG+p8wkJUJsaO4r6ykUyhEEp+AgV7ufSYJdgMPmfemWqWSQKd33J3unC6IrduIyGOkjkpE9IRWJOWowsq57pQBYW+yo39aC6j8b4bKFtkuTroS+SOcps3JA4GNnc+qQRCgS5e5ryVgqlCmUSGGSE4Fxw8O2q5821ltYvxXGF96LSDBT+j+2U49D/ekLveLYF4YBtBqg2IiKa1YC/zwDxnNujXymmdIvEeZMRuWimZ6y4bYnAQsdU0r/wDg7E7mT0wAAzaXt2PXOIc+xYUvzkTLYLTAr1zfg0A81fWaXXCvHiNMLoMtVBx5kAXWqEsY5Wcg9Jh173zWhpbyjz2z7u3LECGXzL6vR8cdnRF3yrBVQTjo5ThZRDotp42CaMgYFtz8JYe8hySaJH30H3Ve/EnVNy+ajc8H0vrCQEiHl150H+L4EhUMuB+QcYIudTZTY01yQCxTkecqsTAYBVChT+gfdQhgA2kyk2Ew2ar3HKvpuFZqRsRhzbiHUemXYtjIVh5ErC7F11X501NJV01hyxAhl0WWHy0XehHkn/fH0S5xOYJ/JW1YrgHQ9kJhAtuNYlN12CYzn3gbRFeiLKjpcgKOdqFPY7KDONf2H9pWLA0WyzQ7s2I/sHSVQVtXDMjgP9cMGA2OGSs84UygUSi/CKTho0rxitOWgVygnZPm4OgBoNfXdE2XwvJwAkdy0uw1N+81w2XjoB+mQeXSK1z4WGHnmIPzxxG4pb7U+p7m0Hepkt+uFufzIWQ0+YoQyZQBR0wjDv/8XUM3qE1F21dnAqGJvpUYN0xVnwvDEG31oIKVX0CjRsvhYsq6hmdhgKQBQbd0DA74Do9PAdPlZwORRAC/2vb0UCuVvge+MsegSiBlZvc9Ms6XeDt4RQ6deH+RaObIn6om68nV1MP1c5yk3lbShdkcrxl4w2Hteggzpo1JQt62lT+wMxf4vKuNtQkyg0zeUfoPQ3AbDHU8B+03kgaPD+zdT+h9mf5/kmkYY/3Vf0M2VYrsFhodeguG82+gGTAqFEjP0hV4x7D9jnOyz+a3lQFuf2ZQ9NoUom8s7CZHcTXt1Jw5+VUXU5U5Ki6ltf3f6zYyyTJcKlWEklLnDIcsqAqPPhWhrg6upCnz1PrRv+gy8Iw5T+SwL9aBxUA+ZCjY5G7LkTECpBdrqYK8ugbNiL+yVu+A0B/6gw6HIHATtuAWQ6/PApWRBlKshWlvBtzWDbyxD57bv4aiX9s8NhnbYVKiKp0CWkgs2ORMMw4LvbIZgboCzei86/voers7+HSmg4OGXUfbCXd4KnRZgWclICDGBZcGMKkb9hJGwZqYC6SmARgU0tkJzoAJpJYfA7i2D0Bj8DZ5N1MI5abSnLDNVQ/R/AQiCOGUMhASN+7zaRog794dszxTkwDGiCDVDBwGDct1RJA5UImvvAaj+3BPSzoC+FDK4Zk702r3xL4idXaJ1WCHKT5wJ5KQDCRqgtR2oqodxzY8Qy6oC+jEvmEHUGZ9dHVk4N3N7+Da+1xqUB9Mpc4C8TPemwLpmJJWUIXntbxBrGiLrQyGDa+o41IwogpCuB9KSAJkcqKpDSqkJutIyMLvLohLwvfVdEiTpYJs1AfWD8oAMPaBPBlxOoKwGmQdMUO4tc79o8j2bBWNzM+EcXojaYiP4ghwgWQc0m4GaRuRv2wfmlz8l/w6Zgly4igxEncUnQgkA2GZNBGeV9lGW/fInRLsjvH1pyeBHFKNheCFsRfmAVguUVyNz7yGotu+DeKAi8g8L8m9NXlIGody9aYtN16Nq6Tw4C3LckXUsNndUll/+BPPbtrD9zpkzB4mJiURdQ0MD1q9fH5V9lMNHm6qA/5xgcrFXDNubHNCmqtwFBkjK8842280+xwBYW20xixqROoyM4FT3V/DndN3OFhQuyPWUtVlqcEoOvD28cSzLIiFbjZRBCUganABRcPtom8s70VZhiSh8HKfgkFKYELJNR70dtuaebTRRp6qgy1YhIUcDXY4aogh0VFnQXmNFa3knnO3OHvWrSlYgIUuNhEw1ErLUkOtksJudsDbb0VZuQcsBs6TMiL9QZlmkzD0fmmlnShzMgCyrCBgxC9p5F8Ne8hua3r8boiv2G0IYmRLpKx+ELH8EGKmwZskZ0BhGAVPcRdtvH6Hp66cj6luekoWUpf8Hef4IyX5l2QCGToFm2hkQHFY0/O8cuNpDh1lRDx6P5MU3gE1KDzgmS8kC8gDFiFnQHncJ+LpDqH32wohsjQdCYyvg4gGZ93tn8zI9D7FYwSgVMN1+GTC0QNpXNl0Py/BClGMWAED1xTpkrPpIsi+BYVF1+RneivZOGM75v7A2sOl6lN14vreioRmGS+6SbMto1DDddjEwrDDwYF4WamdNAEQR2a98DPnn68JeGwCYRB1hty43A/r3v4XpvisBYw7ZOF0PFBthmj0RWLeZcI+xLj6WGD90WsIK/p7QeP5SWBbNCrDLPLII5lPmIv/xN8H8sjno+UxRPkz/XA4YsqUbZOrRcvRwtAAALyDvsdfAbvgrItt667sEfGKGBwuHmJuJum5f8PZOFNz+v6j+XhiNGqYbznP7ifuTrgeGDkLF7InApcuQ9MXPSHqT3Dhdc+IsOOZODnmN2vNOCXrMuKsUCPVSw7KoP28JbCfOCjyWqUfdxJEATgLWb4Xh8deBCGPFVly5HFB1+YSaqmG45iGUX7kCmD0xsLExBxVTxwBNLTBcdGfIfq+//vqAuqamJiqU48DRlw8LeTxrUiqyJkmHli2cn0uUt76wHx11vb/axbIsEnLIKBfNpcGjWbhsAqxNdqhTvf7MKcYENJaYQ16HU3AYvbIA2izyWskF7pcDa7MdO944CHtbaCGqTlFg+GnGkG3MB9ux/a3oJvo4BYchi/OQNjzwPpdk6HqBEYB9aypRvyPyCT9OwaFoQQ4yRqcEHEvI7voujgGcFh6Vv9aj8nfyXhRX1wtFmgFZV74VRCT7wQDKoVMg0+nDt+0FOKUWcuNoaZEsgWrKUmRd9hI4tS5kO0apReolz0uLZAlYhRqMQiJMjA/KvKOgX/EfSZEsBZeaF75RvPGbERNV4XcBHy6iSgkcVRjxhjLbibNQ/thNYLQS42NuJ11IdFqwwwaF7bN+yRyinOkX1cPD2GEwrbpbWiT7wjCoOX8pyu+4POy1pbCplDA9fWugsPNnMPmbqi8qIMq673/r0fVD0bBkbqBI9oVhUHHNSrBDC4I2cRYZg4tkfzgWldefh8rLz3SvcERJT79LAKiaMiZszHAPOi3KHrsJwpzQwrUbcfJomF65R1ok+6NUwHzizPDtehE2XY/yp2+XFsn+TBuH8hfuBKtPDN9WgvLbLpUWyb7ok3vUN+UIgIlNt4quJB3dONqccHaGFqstpeTKmyY9/DNy1IrCAJHsi1qvxPhLhyAhRJtIEaO8RybmajHxX8MkRTIBCwxdkoehJ+eHbtdFckECJl01TFIk+yPXcMibnhFQH7cZZZZlkXbB42DU5JciNFfDWbUPrroDYJMyIc8pApc9JGLBGiuEtia4GsogNJjgaq0Bq9NDnjMc8kHeHf1c5iCkLrsT9a9dF7Sf1IVXglP5LFmIgHPfBthN2yHaO8Cm5EKRXgCucCzYMAK5G/2yO4k/YMFhhWPHWjjrDgICD1l6AeTpBeAKIhf+8YRRKgAleePAwThsEmgxA+W1UFXWIqWuGZ0pOrQVFQCjirxtjDkw3XghDHcEbk7M/3gtKnxmh8tOmQfDAy+GvKTF9yEtilB9/Sv8t7Wx+kSU3X6pO/5wN7wAbNmD9AMm2NQqtA8bBAz1EeZjhsK+ZC6Un6yN4IN7cc6bSr442B1AbSPQbgGyU92igZF4emSSL7Qp2/ZFdd1I8IQBtDuAXQeQVFUHc34WMJacQSo7+2QYbn0isk6r6oCqBugraqBo64A5IxXWccPdLhJdCPOmwFZZC9WaH6Oyt8ffpT+8AJiqgOoGZJRXg+FFNGSnQzhmDKDpumcwDCr/eRaMew9BrK4P2hWTmYryG88PvO7BCnAHKpFS14jG/GygICekwM/+bgNMSr/HybjhbleYbn7b7nYTkbKj0xLwO++m7MGrgRS/h+eeg0jZewicw4HGQgMw4SjvZ0hJQtm158FwW4Rj3k1eFvkZeQGobwLqW9xuLukp5CoJZUDQUWOFUif3lOUJPr9TAXBaXJLHRJcQkNBDdMbG70KbRj7v7BG4FljNZBt1Wnih3D0D7bTwaNzdCmujDdosDTJGJnkiaXBKDsNPNWLTU3uDX7vJjspfG8D4/cnnTEglIoZEikIjx5hzBxNTt6JLQN32VljqrGDlLHR5WqQO874AZ4xOQVtZJ2q2BZ9ZVibKMWp5YcCUcHNpOzqrrbCZndCkKaDN1nhm1aWIm1BOnLmCFMki0P7ZI2jb8lVAW06tQ+rSWyEvDvOm34uIghOiwMNVuhnmH1+BvUZ62ViRZkDa5S95BKh80FjIdKlBXSXkw6f5XINH4zMXwtFYLtk2YcSx0B5zGgRL8A0F8qRMIiOh0NaE2idXSrqnMDIlkqb+A7K8yGaz40X1uUvICptdMjxcb8O4XO6H47Z9ML7zRYC/Y3LXPzY3E2WP3+wVPaOKwOoTITST48T8scMthrpF/9FHuR+0LumbrThqCKD2+sNhe4lk0o2yf60khU15DQrufsZzfTWAFADMxJEw3XiBx8665Ytg/G6D1082Ero/o9MJw8OvAJt3kceTdCi//Awg0e8mk0LO6LENLYiJh3lVHYw3P+b5TEkA2GGDUHbfVd7vaHghGJ1GMnkN294JOJ2Q//AHct//OmAMu+UxP2siqq5a4amvXzoPhiiFco+/S8CdudDcjsxPf4Tq83UBfw95APDcuyi/eiUw/WhPvWn5IhgefjmoSaZrzyF/SxYrjHc+DbHU+9vv9jxmjTko+7+LAsM4AhBLymB4tIyo83eLKXhuNYQ26VBbwX4bjpNmkyLZaoPhnueBvQcJ+5jsdJgeuNpr21GFYMYMhRjNC5rPS0zKe19Dt9rvWcRxMJ+5EOb500AZOGx9iXx2j79kKDQZbsFY9mMNKjZ4l9ln3DraI6p2v1+O5tK+2cwn18iJsssa/nnH28g2ikRFkJYkthYHtr1cCofnBaEJ5T/XYeyFxZBr3DpGlaJAanEimvZLf37eJeDQj4GuXelHJUORGL1QHnx8FiFmzaZO7P2gHA6L78tAA1IMCRixvMAjxgcvzEH9HnPQyCTFC/KIfh1tTux66xA6GgN9p9V6FYadku9Jwe1LXISyTJsMzcwVRF3zy1fBWrFTsj1vbUf9WzdDXXg0hM7QPji9BW9tR/W988NuIHM0lsOydhW0x13sqdOOnAPzxvcDG7McMUvM15QGFckA0LHrR3TsCv0wVuaRs2fWLZ8H9eEWXXa0/vJ2yP7ijX3hDDhP8HsQldf2ybXFTisMp18HCELQ2S0AEKrqkPn2F6hbeZKnzjJ9fOAMoyBA/tMm7+fhWPBzJoH7dqNkvxV+bhfGD78LtGNYITBmiLfcaYHx+kcgSMWZ3rQT2a99gprzl3quX7dyMTKeezfEp5PA7oDh0rulN9mZ26VnyX1nEgGIUWwojBhRhPGmxwI22Al7DwF/7gYmeF8IxdwsQlx1w67fCsPGbYAghBTy3LpNwHHHuF1zACAxAUxmKsS6KFO09uS7BGB4/A3PvSjob1MQYHjiTZRPGOH1uw0RMYaZOAoo9vEzdPEwXHwHxCDZ8wRTNQyX3AVm4siQfx+9BaNSonblYm+FKKLglsclfa/FmgYU3Pokyv7n3Qdguvg0GK64N+rrGv/9lLQ/Pc8j6c3PAvyzKQMHTsZ6RDIAtPrFTybEWlnfZbxjlaS4dNrC/4XxVvKOxckj8wvZ/voBH5HsxmZ2YPd7Jow51+vKZ5ydGVQo9ya6LDXSRnndIuytTux864DkpsmW8g6UfF6NoUvc7mmMjEXe1HSY1gVqhCRjAlKGeF1heTuPzU/vAx8kHbm12Yatq/YjxRA4ERAXH+WEsScQLgB89b6gItkX68EtfRv5IsIoC517yA0asrRgvjPkD1mWUdAjX0cCkbRRMWjc4fXXFyTr4Foww/Ov/oKlKL/2HJS/dDfqLjyVbCuKKOjLGMoRjrnKb+d7U26mZLvcD78jylWLZku2Y2Qy0mUgyOa38tOOJ8qG/74WcrZd/vk6oNP7N2M7qjBo22BkvvdNdJEoNErSxUAUI4poEDUb/goahSJv3SaiLGZKb9YBEPGYZ/5JzgCL+YG+bGH7iPa77CbSiC88Dxz0iZrh78Lkg+lk8sUs5aPvIkoxLW4Kf6/uDZzHTiJcHeTfbgi5QVGoqgO27PFWZKVFf3/dfTAmm04p/YOkAh8RJADtPvGTkwv84icHEVSxQKYgf6e8NbyLB28j28hk4YVyW0Vn0I16bRUdcHZ4nyXaLDW4HrhRREv2RDK03d5PKkJGFqnf0Qx7q/czJAVxmcieQN7zy3+qj2hMpVKCx2dGOauIKLd981w8zIgaTp0EWVoOZPo8cErvjBnD+PmtqYKETRFcEBxW76yyXAn9wqvQ8vUzPY7k4e8SIjeOhnbMcejc9l2QM/oBiQmovujU8O0AZL6xBkKEIb5iAZuoBbLTwWelw6H1ukWwfg9gXiPtTy40tgCmaq/vY14W2LSUgJBtznlTiCXwlCCzzsghBTmflgLMmxrE+K7/WmzeGd6syDZ8eg1zQvnpD1Gdwvq6jwCAEJv5x9wQy+pcPem3Zs1OhSZIWwKWBatPAp+dDiE7FS6Z9xZZl+f33Wu0iMpjtQffZVA4zj2jnZMOV1oKeNbnIakil3EZhUw6LF+2z4NEFKH74Nvesa2XqCsgIw4ILAs+3G/d94WCYcDmZ0EwVUd8zYIX3usVF6FbbrklIDxcc3P/Dsv5dyB5kFdUmf1SUycXeo+1HurBy+xhwLCkyBUjeDEW/TRsJBEh6/5qDXm8fkcLcqd6nxGqZAU6JdwUehNNOvm8UGg5pA2T3tDHdHuvWVxQdmUATMhUSbbVpvnUC0D15p7riLgIZS6djLdprer9jT69hVyfg5TjL4d86NSId7wysuBO9a4DW6Dw8VNWT1gE9fhF4BsOwX7gTzgObIatfFfEM+fOllqIVjPh7518ys1IPuk68NV7YS3dBNvBrbBX70PMAkDGAnM78p9/P6KYpb0Nm52OsnOXuJfuI9lcBQAKedBD+Z/8gAof/9a6k+cgfdWHRJtqv0gCumD+r3oyqgoRgi4SZByYRC3EIL6iAdQ3Rx2/Wmjxe8hwbEziYMtq6oK6ADAt5JKhUx16YywzZihM5y4JH5HCF1XwMZekB98lAcvCdfwxqD59PpAUOrqOL4xKKS2UE336MLcH9Z2PF7whiywfNxVVxwURykGwDSuAIlKhLIq9FoJy27a+v29RwpNS6H158Y8a4Zutz9cloy8Q/DYJcsrwr+BsD2Z7ba2hJ+TsZnLlT5USe6GsTiVXvcKFnfOHU3KQqWRw+flsq/Xe+7Ol2X5Yt964CGUm2XsDFAW+T+Ii94TUk66BavyiqM9jQ4irxk8eQtbgd8mIFgzAZQyCJmMQNFPdM61Cgwkd699F+1/fhL1e6+o7kXLuY6SQl8nBGUYhwTAKCXPc37PLtBPmH16EvWJP0L76DKfP8o8gujcr1TcDtU3I21EC9off42JW1WVngI/yYQwgZEg55pc/gSvO9CwjW+dMAnyEMpuWDPi6buw3SS7PM0oFII9SnEnZo1RCRIRCua4Hs2CCQG5iBMCm6CA09fL+gsZQ/UU2i83IZDA9fF10Arn7CtFGkOnJd9kFk50O0yPXk5s9I0RgAn+bbKKW/M02hZ5piguh3GUiRFBGEVbSGltBQIkvgf7J3nusJl1FRGto7UP/ZAAQHKSKk6nC31s4P7/mSBKFODpDbxK0t5PHVcmH/7wJBSNjI/qs4eAUDFw+f74yFUuMp6Pl8Fz/4iKUWbn3Zi+6YuC72AskzVwRKJJFwNVcCZgbwHe2QOS9Yk819oSI+hXtnaj97+lIO/U2KIomBZ2lZtONSFxyI9QjjkX9WzeH7NNi2g7Xcxci5bQ7gvpHMywH+aAxSLvgKXR+/xJaf30nIntjQnkNDFc/GL/rB6HztOMDRbIoAjWNbiFhbgOcPjejYyOMwiIIwK9bvPFZ1SpiR379YtJXNC/I8jzrF0kCdgfQA3/RaLLLqWoao+4fANDW4U5U0U1aCtDLQpkRxMPeVGa655+BItnFu8PENZsBc4dXc+dlkJvfoqSn3yWjVUuL5E6LO7xcUxvgG8lk7JDAcGp+iP4xmSUigsQd/8/765aou1CVRJYNEwDQ2rfiiBI7VHoVJlxSBCaEj/rYC4q9Bb9mx9w0kij/ct/23jQvAKedvJPJNOHFo8xv1tl/c58UQrjMfX5dyPxDPvYyCr/P6bTwqN8R/cZv/zB+cq1fXGrL4UXNiotQFq3tYBLcuxxZ+eEHtu5tWJaFdtZKos625Su0fvc8eKvUTJ8WOREKZcAtlhveugWcQgPt6DlQFo6HLG8EEeatG3nxRCRPW4bW9e+F7NNRdwh1T50LeVImNGPmQWEcC1neULDKQEd37bwLYdn/Gxx10WXNOaJhWTSdNp+sW/sbjK9+IhlOjdGoYYpUKAMwfvCtO+taF6Ylc2HoEsoW337sDrC/Sd+U+Qa/GUmLFYZHX4vYhm6iEZcyvoc3mIZWQig78rIg21fWs75iBFOUT8aaFkVkrvoQym/WS2Z2c82dgurDEMo9/S7bl8wlRaPV5g4v95d0nNPymy4EJo8K3al/bOVIk5n0JX4vW4Yn34yte4gzfOxaysCA5Zjw8XxDHe7jMAfWJnJVXaEMb4BCQ8q3SFwk5BoZbCGy7rEKcubO1hbbiUxnB+9XduHgt5HvKQiGvZW0WyrkWzTEJeoF3+KzK5txb5LrEyJ0N9UMmwaG8/4InXs3omnNI5IiGQCUmeEzrknBOyxo2/w5Gt67CzWPLkPtQ0vQ8cPLAUH51X6h9ELhNNfB/PNbaHjjBtQ8sBj1T6yAbdu3Aeooee5FPbJ5wBGhj7E4aRSZTGDTThiefidozGEx0mxu3e2r68kUvaOHgFEqwIwoJEKpsb9sCe7Hygvk8nCQDYT9AYXfBszq446JkyXBMS0kM73lPvsulF/+EjT9cWeUY95bNM+e4C2IIozXPxJUJAMAstOCH+vuxuEihWFqPxTK1eRviEsLn1mLQhmIWJvJ54w6XR1WnSXkk9uTbY3hXVgVutCuFIoEUlDaWmMrlAVBICJtEMlgDqdfXoDLJyqIKunwhHJcZpT5+jLI871LG5qhUyLyxY0W0Ub6YXK6NLjawi9/yrKKiXL7pk9CtlfmBo9VGg28tR3mn99C59avkXnVW4DM/aNmlVqA5Xq0Gc/ZUoOmjx+CdscPSF7hdXdgMwp6xeb+htxK3nDEZB3QGN7/snMw6bJi+OqXkO1tQ6KfWcz57CdUX3yau8AwsB9/DGpHDiHaGD/6DiFHuaHFm3JZqXBv1JJIShJvsr/bANNcnxTKQ4xgE7VBE07EBb/NYlwYv3hzQZxSvyf7iNjaRojhosBk6EMf76a53ZtBUauRTJpzOMhFv7dzeXSPm6TyGph90mq7jDlganvoCtTH3H///ZDJyM+7adMmvP++RHx9Sq9ja7Jiw0PecI6sksWUq73P6b9WHYClawY2IUuF0ecM9hz7/b+7wbv6IlK4F5dNgNPCexJ+gAVS8hIkQ5V1k+IXFs1cHd6lTpuhChkb2T8Ntv/MbCywNNmR1CWQ5RoOnIztldB81iYHdLnuySRlshwKjdwvgUnkxGVG2VlFzoZoj78kJtdx+SXzUKRHJm4YOfljEWwhfNdYFtqZZ0ZtWyhc7U1wHNpK1MkOc9a9s3QTBLtXpDDqICHsBjjKijqizEc4C8j7Ra1gOkIIOpZF/T+Oi9o22fcbidnK2sWzyYQQNY3gwwkBv135DT5JT/oTYkmZOyyeD41Lo//OYoqvkOGFkBEp2HQ9mbq8L/ENHRXmpYifN9WbbCQc5eT4lF20LFrLQqL02yAoZkW3OU9XUkaUK84++XBN6jPGjh2LkSNHEv8WL14c/kRKryAIAO/gPf8Ss72rb6JLQHt1p/dYnldwWuuscFhcxLnBsr71Ni1+Aja5OHhkm8RsNeFa4rLxsDSEF8pZRwf/G2RZIGMkqTMcHbF3R+qoJe32DU93OHTWkf0aZkvnOoiEuAjltr++JUQbp0lC8uyzQ5/EctAfex4YZUTRUAEA9royoqyZstJ5YYcAACAASURBVDSi81x+sYnVw4KnLE2eeiqZijsMyuzi8I0AyDJIdw6XVXojFCNTQpFmkDxGtFNqwSq8NwTR2o9m9noR1k9IVi6aFaQlSYJfuur2yWOCtrUvPhbQBc8LHxQXD/yxw1tOTSEiD+R8Fj4lcsHra9wbDLuwzJ/ujpoRDo6FMGeSOxlIH2F86QOi3LH4WDj9wuD5wxqyUf7A1e4IH7HG96WKY90+y0Eo+9fy2NsTjDafF/W8zKDfDaNSourcyMWk8bVPyYrJo9yZH0PAJGphOX1+yDbdqPz8oOumjI3YNgBgN24jo79kp0E4JrI+xFFDwPYgkgnlyEQ/yCs6/SNapPgI0qYD8dvQ2bCLfMbnTUlHQlpglBuWA4acRK5u+Z8bDGWyHElG6UmyzFF6QnzXb2/p7YieklRsbCA2ERpnZkKuDR9tg2VZpA1JCpoUpeJX8v6TPV7vzr4YAplKhtyJgS8TcRHKEHi0ffwQUaWdfQ4ylj8oGYNYnT8SWde/D/WsFZBpIhelztZqiD4CU5ZVhPTT74YisxBgZT7/yK/BVklm4NJOPwvaIr+NWyyL1JOugfa4yGfD5SlZSLvkOWTd/CmS55wPTh34xsjIFEhb+n9gk7xvVa7GiqBuF4kTFyP9n68g+8rXkTj+RPdfkR8yXSqyLnmW8NF27v01YrsHEmJdE9Du8xJQkIfymy4EU5ADcJz3n9+YK/xmr5qXzgM7zs+lhmVRddkZqDu75zNDxmBJHXjBPeMcBqGxBZovfvZWMAzKnr0DziAvBGxaCiovPxPl7zyCyn8uBzNiiGS7WCDuOhDgZ1pzwT/QeNGpYHLIrHZsbibKrz0bZY/f7N5gp4i9V1jmATIigun2y8Bmk7MZjFaN8kdvAEbGaTYZIAW9XA7Tvy8D4zdrzBTkwvTSXVH5rYvV9VCsJd1Nyu+/KqgQdpxwDEyr7kXjkrkR9c+ayJdW28KZcC6a7c5CGQmCgPxHXyeqKq8/D+VXrpDsg1EpYTv1OJS/eh8q7roC1UGyYFL+fiQVecVh80Hv84FlgSSfGeWWA32baMSX5gNt5KY+Fhh5zmBC3Ml1chx16iCoM8m/84pfyZXUUIxeUYjkfFIspw1NQtFiUnybfumbRF/OdidMP/mkoGaByVcORcYoaRcyuU6OgtlZmHL9cAw/3YiEXOnJU5vZgcr15GcYd1GxpBAGgPQRyZhyzTDkz8wKOBYXH2UA6Ny7HglVeyDz8e+VF09Ezm1fgreYwdg6wTAskJROpLuOCkFA+1fPIHHpLZ4qxfBpSB9OzhDzdYdQ++yFnrKzuQaumhLIsrtEBQMkr3gQutZ6wN4JkZOBS8kmNvxFRNfGMk6VAO3M5dDOXA7B3gnRXA/e3AA2IRlc5uCAz2v5+c2gXYpdfbL6XOhOuha6RdeCt5ohttRCtLSBS84A6+9yIgJtGz+Q6O0IQBCQu+ojVF3tE7Vk8iiY/KMAmKphuMb7ssbXNgIHK4DCrllFhkHZ7ZcCDc3uzHYyDshMIzf89QDxUCXQ1OKeTfZl656Id/SnvfYpyudM8ooijkXN+UuBs08GWsyAw+lOgJKs65W4y4dDwQMvouzRGwg7LAtmwLRghvvzdlqAxITIE7v0IqpvNwKnL/DGe9ZpUfb0bV6XkQQ1oE+Oi22+GN7+AuX3X+WtGF4I0+sPAIcqAY3KvbqR2DNXquyXPoBp+jgi5nXj6QuAZfOBxhbAJQBqhTvBSff3EGHwDqGhGdh3yBtZhGFQc/4pwPmndLm6eH/vxisfcL/k+sHsKAG2lQBjfF7wZk+EadYE92yz1QHwLnf4wUhdTih/KzgFB7Xe+9sw+4jhhExy01xbRXzDJJZ+VoVR53pXdeQaDuMuKoboEuC0C1BoAzVHxS/1QdNSS8ICo84thL3Vic5GG3RZ6oBNdC0l7bA1911c8fKN9ciekApFovs5wchYDF2Sh6IF2bA2OSDwAliOhUqviCructnPdcgcp/f6fgMonJ+LwuNz0VFnhSCIkCk5aPRK7+9AwtUmPjPKXdStuhq2LV8F1HOaJLD6HDApWT0XyV20b/8etjAbBRmJlNNNb98G0S+cE5ecAS5zEGRp+YRItqxfHV3MLR9YpRZcxiAoiidBlj0k4PPafvsI7du/j7xDxv39yXKHQl48MVAkA2h++//gNEf+BjrQ4H7eDPy4KXSjhMCZt4L7XwgUq+l6d5zd3ExCJKd8vJZwgYiGzC8CNwoaP41ijHkeBZffA+w+SNbLOLe9uZnu/8ZZJAOAUFWHghv+604o44+MIwVYHyNarDD6zVgCcI+3Mcf9MtNtmyi6xzwe7D0I1bcbyDoZ547pnJtJimSbHVhP7m8IhWh3oOCKe4AD5H4OMIz7N5SdBiQn9niMBj3xpnTYNY51/z67/4WId2u451movlgXaF9yotu+vCwqkilBSSnw/n3wdp4Io5Zc5I1N31lrjShpRyxprehA6ZrKgHpGxkqK5MY9ZpT5zsaGoeZPb4hRZbIc+iJdgEhuLevEng+jiD/eGwjAn8/vQ8Nu0oWEU3JIyFEjMV+LhBx11MlJRJeALc/uQ+t+v5UCFkjIViMxVwNNmjKsEo6rUIbgQtOaR9C86koIbYGzCUTT5mq0ffKfHgm8pk/+g9bV/4arpgSCI7JkC672JtQ/fhacpuCBxgWHFW0fPYCW716EKHoFFu+UfhNztTXDuvlz8K3hP4OrsQLNb9yIpq+fDtnOVvI7HLvWES4mwXDu34T6J1fAur9vs94xkSSh72UM/3sT+Q++5J4ljjDjltDchoJL7wwUoL7Y7Mh94k3o3ljjzijYjTXyyBPKH/8gKzotEHeFuKaUrW2dMNz2BHKfeDP85+MFYFsJ8h97A+KW3SGbio7e3+UslNfAcM6tUH/xsztJSihqGpHzwvsQO3t3NsM/Gko34qYdKLjlMXdykWA0NMN43X+QuJEUoIwltI29+V1mPPcucp9ZHTrW785SGC+6A3q/DaGMM/QUsNDcBsMN/0XOC++HH5/dB2G469lIzQZf2wjj+bdD+9Wv7pWUIEKECfVdCQIyVn0E43UPu1d4wmGqRsarnyD79dDRigAAYb6bniL28CWa0vsk5HgnRdpM5IxxYo532b6lj9NWB6NmW3NXVI7gzxSXjcf+z6uw54PoBG3ZD7Vud4Qg7wO1fzRhxxsHeiXqRLS4bAL2fmjC7nfLiJBxUoguAY07WrB7dRnMFaHHzWFxYcfqQ9j7UTmcltBapGG3GbveCnwWMwaDof/8RXMyKLOLocodDi7dCKGzGa76MtirS+BsqQl/foyQ67OhyjkKsuwicHIlXOY62Kr3wXborx73yciUUBlHQZ6SAy4lE6LTDpF3gm+sgL3uAJzN0X9emS4Vqrzh4JKzwSalQ7C0AQ4LHA3lcNaWwtXZD9PU9lO4rDS4igvQWpgLQaFAQmMLVPtNEHfuD39yGGynHof6s7xZH3Wf/oAU/41VUcKolECRAbZiI3ilDBABZU0jZNV1EA9WhYzo0NewQwtgLy6AJT0FHSolUuoaoa5uAFdaDqEx+qxMvQUzOB+uwXloMeYCvICk+mYot+6BUNV/Vl8YhQwYMgjWwjw05WYiob0TCfWNkP+2vddC7zEaNVBsgLXYgKb0VKTVNkJZUQO2pKx/hPfjWDAFuXAWG+FM1MKuVEBX0whZTT1QWgExnNinUAYIKr0KibkaqBJl4O08eB6wNNrRFkYchoNl3W4nSQUJEHnAXN6Bzno7hMN8Tsy4dbRn+rV1fzt2rO55UjNOxkKbroQmUw1O7l7RsrU6YW11wNLQ84kUTsFBm66CJkMFVaIcNrMD1hY7OuusARn+uulfQplC+RtQ/up9xHK54bzbyN39FAqFQqEMIFiWxbRbvfkxav9owv5vqkKcMXCIr+sFhfI3g583lfQpLTFRkUyhUCiUAU3q8ESibG05clZ24hb1gkL5O8Fo1OicPw2NZywk6g2rv4yTRRQKhUKhHD66HC2KT8wl6poP9Q+f796ACmUKJYaUP34zkJrkDuXmHzmgshb4a6/0iRQKhUKh9DNGnz0Y6jRvlBm5kiUSlQDu8HKRZAocKFChTKHEkgy9dOiqhmYYb3y0p1EFKRQKhULpc1RJCslQdd04Ol0o/frI8E3uhgplCqUvsdqAvYdg+O8rEG2Rh5SjUCgUCqW/wtt5tJS0oeTLavASSTsGMjTqBYUSQ5iifEDZlW2otglCU/h41xQKhUKh9Ee0aSqwMtKN0N7mhMMSm5jk/QEqlCkUCoVCoVAoFAloeDgKhUKhUCgUCkUCKpQpFAqFQqFQKBQJqFCmUCgUCoVCoVAkoEKZQqFQKBQKhUKRgAplCoVCoVAoFApFAiqUKRQKhUKhUCgUCfos4UhhYSEAgOd5mEymvroshUKhUCgUCoXSI+iMMoVCoVAoFAqFIgEVyhQKhUKhUCgUigRUKFMoFAqFQqFQKBJQoUyhUCgUCoVCoUhAhTKFQqFQKBQKhSIBFcoUCoVCoVAoFIoEVChTKBQKhUKhUCgS9FkcZQqFQqHEhmOPbsCYYjUA4I+9FmzYlhFniygUCiX+aNUCLlpsAQCYrTxeWZMUdR9UKFMoFMoAJlnL49V7jADLAAA+/rYFG7bF2SgKhULpBwzJN+Oac/M85Y6OSrz/Q0pUfVCh/DcicfyJUE9YBAAQLB1oeusmCIIQZ6sATqFBwrj5kGUOgjwtH6Jc6TkmtNSj4b074mjdwEEm4/DEExd7yu+8sw6//ro7jhZJM3ZsIS666AQAgCiKuPPOt9HY2BZnqwYuT9/EeEQyXAJueebIuq2f/d4fkKnUQY8fWvcFfvzvzb12vYKpc1E4YwGSDYOhTkkjjv2x6mHs/2FNr12LQqHElq0lKThYZkNhgQoA8NA/s/HhDzZEo3yOrDsqJSSy7CGQZQ/xlEVWDgj2OFoE6EbPQ+Li6wGZXPK4mFHYxxYNXDiOwfDh+Z7y/Pnj+6VQLizMIuwcO24wvv9uaxwtGrgMMXRg+sRMT/m971phtStDnDHwSEjPAMMEP54+dHSvXEetT8NJj6xGemFR0Da5oydToUyhDDCufrQRa550zypzag7/vtCKO18K/vLtDxXKlLghT81D4tJb4m0GZYCybNkMnHzyZE/50kufRnu7NY4W9T3P3+Ljb+cScNtz0i+clPAseuDVkCKZQqEMTLbtT0HpASuKBrvF8XmnpOKhNzpgtUcWz4IKZUrcSFlyI1EWzA2w7fwRQlsDRN4FAOCdfy/hQ4mc4uJcZGfrPWWF4u91O8vPsqGwINVT/v63dtgdR9538NppU8ByHFF39ur1QIhZ5mjJHT0JGUNHeitEoOqvP9BYuguOznZPtem3tb13UQqF0mfctaoWb9w/yF1gGVy33IZ7X9ZEdO6Rd1elDBjkWd7ZG95iRu1jZ8TRmoEPz4toamqDTOYWFRUVjXG2SJry8nq0tnaA6VpPb21pD3MGRYp/n0/evh9+0wpAFx9jYkhnY23Mr1Ew7QSivP65B/DXu8/H/LoUCqVv+HlrBni7AE7pnkVesUCPe1+2RXQuFcqU+MBygM+mPWfJb3E05sjA5eJx2mkPxtuMsGzeXIqlS++PtxkDGhbA8cckesodrS7sNR15IrmvSBk0hCj/9f5LcbKEQqHEim82tmHh7GQAgDqBw+zxDfjpz/Sw59GEI5S4IE8i47zy5ro4WUKhDDyWL2wFOK/vwcfrzHG0ZuCToPduiBRFAAIfP2MoFEpMePRtMnjB9csjizdPZ5SPIOQpWVAXT4ay4GjIs4vgaq2Do/Q3dO7ZAGdzZY/7VWQWQl0wFvK8o8BlF4EVBThrSuEo3w7r/k1whhG5jFIL3YiZZF2CnijLc4Yh8egFAee6mqpgMW3vse1HMuPGFSI1LXjw9IMHqnHwYGQvIEuXHgOl0n072LBhL0ymeiiVMpx99lxMnjwUyclaCIIAk6kBmzfvx7vv/hJRvywLzJo1Bpws+Dv5n5v3o6WlI2Q/I0cXYNQIA1E3aBB5kzvllGPQ2Snt0/7pp7/DYolvhJfe5OQZ5Li/+70dgKrH/WlTMzHxnKuRnF8EbUYW1LokOKxW2MxNaKuvwYEfPsX+nz4HoggnqUrUo2DaPOSNnYr04lHQpGags6EW9SXbUbn5V5T8tCaq/nqLwhnzkZJPRtPRpHmFMgNg/FmXS56787O3YG8fmC8lGUNGI3/CdACArb0Nuz57E4A7ksf4c65CUk4BFJoEtDfVo2nfNmz/8GU0lO6KrHOWRfHME1E4cyESMnOhSU2HQq1FR3M9Wg7sRc3uP1H5xzq0VB4M2oVCo8OoJSs95R2fvoFxp1+CghnzoU5MQc22P7Dtg5dQu/tPKNRajDvzMhinz4c2WY+mQ/uw88OXcXDDdxGZmz1yIgyTZiFzxHjojUUQBRHN5ftRu+0PlP74WUg7ByS9MD5S6I3FGDJvCXKPno6k3AJ0NFSjYvPPKF27Bg2lu9z3gClzPO33fv9xRC+hsRqf/RUJEB0CGIX7eTRysApA+H1QjMFgEHt0xSgpLHTfmHieh8lk6otL/q1InLAYukVXBT3e+dNrYBNSPXGUAaD63oUQXcHFA6PUIn3F/ZDnjwzaBiLQ8fXTMP/+UdAmytxhSLvo6dAfIFj3vAvV95wQvuHfkG+/vcfjjyzFhg17cNttb0TU19q193l8hvfvr8bdd7+DV165Omj/VVVNuOKKZ9HWZgnZb1FRDl544Z8h29z/wPthw8Pdd9/ZmDp1WMg2obj44v+htLSmx+f3N/Z9oIJK2zU2ogjjwtDjEAxOocSCe1fBOHF62M1xogj8/Njt2Lkm/G9q1NLzMONfd4QM69bZ1ISPr1gCc21FlFYDV/xY5rG3oWQ33rt4YcTnLn/rFyTn5odvKMHOj9/Auidu79G58WbO9Q9j+KLTPOW3V8zBxHOvRfG8RdIniMAvT92D7R+uCtqnQqPDP576GCmDikKOdTf7136Bb++5QvJYeuFwLHv5K0/ZXFOFpOxc0iQRePeC+Tj+jmehNw4KsPf7+6/Dvu8+DHp9VZIeS578AKnGEGFHReDPN5/Gb6seDv+B+jm9OT7+TDjnGkw+L7jm+Ovdl6DLysPgWfM9dS8uHAWHJfielL4Ynx+e5TC4wDupcMzZTahqCD3JQF0vjgD0J14dUiQDgHb2OVCOOjbiPtWDJyDn+vdDi2QAYICEBVcgfeV/Iu6b0r9Rq5V48cV/hRThubmpePZZ6Vk3SmzRaXmvSAbQ0OjscV/LnvsCxknhRTIAMAyQnB86rrlMqcbSpz7GzCtDi2QA0Kam4qy3fkHRzMhFbrxhmCPnkTn5opuCi2QAYIAZ/7odhomzgjZR6hKhL4xMhAFA8dwTsXL1RqiS9WHb+otkwP0bPOPlrwNFcpe9M68NvveheM5inPvhn6FFWFc/41degWUvfhW63QAgVuNz/O1PhxTJADD29AuRf/SMSE3ts/HZtJucVFg21xX2HOp6McBRFx4N9cSTiDrB3ABH6e8QbB1QFIyDLHcoAIBVaiPqU6ZLhX7FQ8TDUxR4OPZvAl+9F1BoIDeMgDx/hOe4YvB4JE9bhtb17wX0x7c1wr7jB6KOVWohH+KNgetqqgRfXRJwrmAZmMucfcHWrQehS/QGTedYFsXFOYfdb16eN+RYXV0L9u+vAcexGDXKiIQE7/Wys/UYNiwPe/cGd+tpbe3A3n3k8bRUHdJCuIxI8fHHGwLCv40YYYBKpfCUd+wwweGQFo3hXDsGEnPHtwLwbuTbddAGIPhLTTBGnLQCer+4wS2V5aj8/Sd0NFQjISMXKcYipA4+CurkyMZr4f0vI3vkOKLO0tSM2l2b0V5XBX3hUGSPmgyZwm0vywFzb/sfDi1aC97RN64xB35Yg4yjSBuzRkyAvPu3JAIVWzZInlu5ZX2szeszBs9yr9TxLhGNJTthripDsmEQGSYPwNTLb0f5eesi6tPR3glzbTlayw+irdoEbXom0otGIbXIu1kyMSsbSx5ZjdUXHh+2vwO/roWtsRbDT1oO1u8n3lJZjrJfv8GwE06FOsWdklihViIp2wBzTTnRVpedj+Nvf5J8polA3e5taNq/EzK1BunDxhICPL14OKZddhvWP3tvRJ99INAb4zNo+vEonnsiUWe32FC7cxM666qQNWKC576i0EWmOfpyfL77rR1nLPS+CBwzRovHVoc+hwrlAU7SCeSsnmP/H2h451bC9y9xwiLoFl0TcZ8pS24mfrBCQxkaXr8RrvYmop126FQknX4XmK47mGbuhWjf8hV4K7m04mpvROOH9xF1cn0eMnyEsn3HWrT+9HrENlKAm256hSgrlTJ89dXdvdK3KIp46aVv8M47P3vqZDIOzz13BQoLszx1F188H9deGzxCQGNjGy6/7BmibunSY/DPf4aYyZJg8+ZSbN5cStTdeusZmDvXm5Xt7rvfRlPTkR9qzpClIMpV9U70SCgvXk6U1z8bPCRa/tHTcMxlt6NuT3AXmcxhY5A/fqq3QgQ2vfYk/nj1UaJd93Jw98NUpuAw7+bH8c3dl0X9GXqC1JLtmS9/77FHEIA1153VJ7bEm87GBqy+8ATYWps9dcZJs7HooVc9z4C0QUVQ69NgbQ4MN+m0WyGKQP2eHdjwwn2o/ks6elHGkNE49fk1npnN1KIhSMrKD+l2U7d7B76+7QK3nU31mHSB9xnmtDvw9tmzAUHAltXP4oJPtniODVuwDL+//AjR18K7XySeae319fj4qn+gvYa8/rD5p2HOTQ977Byz7EL8+c4zxPczkIjF+Ey/4k6i3GQ6iHcvOB6iyzszO3LxSsy69p6I7ezL8TlQScZOTk2WAQjtN33krCP9DVHmDgOX6X3D4m0daHjrloANMm2bP4d92/cR9akyjIRi8NFEn7XPXxYgkgGgc99GdH7znKfMsByS5l4Y7ceg9EM2btxLiGTAHX7uzjvfIeqys1P60iwKgOx0MvteQ3P4pUMpEjLzPP8v8AgZN7hiy3q8e9H8kOmbj7/jWaIsJZIBwGFpx3sXL4TT7vDUFR27ADJl5CllKb2ACKy+4IQAkWH64yfU7iY3UGcOkU4TbmttxjNzC/HB5ScFFWEAUF+yHdveI32djzp5RUjzKv/03n9K131OHGs1lXqec7bWZrgcXqGjyyBX1QqmzkVasXd/g9PmwNsrZwWIMADY+/X72PKmdz8NwwBzrnsopJ39md4en5yxU5CY7f1+XQ4eq8+bR4hkANi55g0cWPd1RDb29fj4+yMnJ4SfZKBCeQCjGTWHKNv//DxIS6Dtl7ci6lM3g5xlMr9/D0SXI0hrwPz7R+Bt3mVtpXFURNeh9G8ef/xTyfrKygYiTbROF1lmI0rvkaUnFwJrW3rmo8zCu4+b5dwzwj0lKSufeIBampslRXI3vMuBrT4PPDBA/sTI/Rkph0/l1t9hM0vPxJV8T27OTskfHLyjCCOXlHxH9pmcXxyyfdOBvZ7/byk/QBwzV5IBAZydbZ7/l+vIl/cJ55CrqT/+53q47MEjHfy26mE4bd5nXvrQnv9d9At6cXxGLiLFc+lPnwXt//cXI9u31Nfj43CxXTEg3SSow8tg6noxgOFSyM0OHZs/C9rW0VgOobMVrDY5ZJ/yNDIElzwpHXKJsG0AgO6NLbZOQJXgrtIHbsCgDCxsNgcaG9uCHu/osEKnc8/+KZXyoO0osUGtJG/sVmvPQqy119dAmej1dT7ujmfw+Q0r0Fp5KOq+skZNIitE4OgzLgXDBj6Eul211MmpRL1xwiwc+vXbqK9N6RmVm4P7HZv9hGlSXpgNVj5oUzORWjgMqQVDINd6k+D4pyFXahNC9mPv8LsHifAszzttncQh3ul9WVRqyH4TM8lnUmJWXtDwf92/TZfN6vFZ16RGFmt3oHA445OYYyTKW98KHs2qpfIgrG3tUCeGToQU7/GRycLvdKRCeQAjS8kkyk5zfcj2QntjWKHM6MiHl27x9VHZxHAyyDRJcNFNeAOWcCHfOjq8aT9ZNsLt1JReo9FM+tOl6Xv2srL/+4+RVnSzp5yUnYvlb/4Ia6sZ9SXbYdq4FmUbvkN7XVXYvvxnozWpeky99OYgraVJC7K8T4kNLWX7gx7zH3OFOvSmrPTC4Zhx7QPIHjE2oggqgDs0YSjsFlIo++hkOC3kPcrl9G4EVSaQwkzpN8M85eIbIzOwC5YDtGlZfZJKPVb01vho00jN0VxxIKCNL7a2lrBCOS7j4xMGJJKJBiqUBzCszrtzU+RdYZdYxLYmIKso6HFGpgRkhz9DyCjVABXKAxZf1wpK/6PGLxxcZkrPbuNbVj+HYYvOQkoeuYqkTk6CcdIMGCfNwMyr7oStwwLTr19j7SM3BvgidpMyaGiPbPCFUyjCN6L0Gq1VZUGPiYg8vcL8e1dh8PS5UV8/XKg9l428D4kCwHRNerqc5DGB9z77fPtVaHRge0HlKLW6ASuUe3N8lIneiTaBR1jNYWttBvzuL77EY3z0SeT9s80SPgEKFcoDGEYWXSYuMYTfDwDIEv1iJzrtsO+VDpMUCsFvWYwysBCEPslBROkh1U3kjT6th0IZAN4+ezbm3vwohsxdEhB+qxtVggZD5y+F4Zjj8OHFCyV3wiv93CgaD5XC2twQlS3VW6O/11B6jigeflbEWVfdEyjCRKCzuQnWlkZYzU0QeK8QMU7qJT90/3tUkM+iyyKX9XmXiOptwTe1BcNiDtzMPhDo7fFhfSbSRDH8cyLcy1A8xicvvQOAV/C3tFOhfEQjWDvAyruWRyKJKK5JDHnY2Uq6bgjWDjR+eOTEkKRQjgR27CeF8jCDEohiBpBAELD2/qux9sHrMHz+aRg0fT4yhoyANjU9YIlWnajDwvtfwTvnzwvopqO2Auk+MZl3r3kTOz5+tWc2UQYGLIejFq8k00rjNAAAIABJREFUqg5t+BE//Oc6yXBdqiQ9Lvh0S0B9LGkuJ0NK8lYL1lx3Zp/aEDdiMD7OznZwSW4dwXHhNYdCHXqzdzzGZ+pIckbAVOMAEHolnQrlAYzQXg820T2Tw7AcwMoAIXioKFliatBj7g55CA4rWIV7oxarDr3ZgkKh9D2b96S5Z9S6/MOHGpQAbKFPCofAY8+Xq7HnS3fkfU6mwFGLl2PKedcTSQP0hUWS8VWbSndh0DHezJ+6zD7c1Btp2jFKrzJi4RnEKkTNzr/w5f+dF7R9ll+Sl75AdLngcvCeBDdcGOF2JBGL8bE01UPVJZTBAKpEPWxtwWMYK5NChw+Nx/jMGk/qms/XtwEIrY2oUB7ACM11QO5wT1mZUwx75Z7gJyRFsDvUXAekF7j/X64Ep9CAd4Te3EWhxAP/pT+F4u8TgaO61oGcHPdqEqfmoFUL6LT2XrRP3uXAjo9ewY5PXsc5qzciIcN778gePTlAKPsnIkkxDkEsEXh4fBsVCaFXyuLB8uXLMWQI+R3YbDY88MADcbKo98kcNpYo7/jo5ZDts0dPCnk8Vlhbm6Dr+v1yMgYKrQ6Ozt5PTHTTTTdBoyGFXmlpKd54441ev1YkxGJ8zLWVRDbPIcedgu0frpJsy8kU0OjDTM6h78anm5GFPi6roohvfgufTp3GUR7AOBrIME66KacGbastmuiZKQ6Fs5bsM2neBT0zjkKJMQ0N5IbRgoLMIC2PPNZvI/cBLJgao82zXTPNviRk5wc0q9m5mSgbp8yCKin8A6inOH0iImiS0mJ2nZ5y0kknYeLEicS/6dOnx9usXkXmFxXB1hrCT5RlMXLJubE1KAitfpEZ5twYmJmxN5g1a1bAmM+ZMyf8iTEiFuNTt/MPojzmtOAJxsYuuzCixZ6+Gh8A4FggyWdPh7nFBZcrvJFUKA9gOjatIVwTFcOng1NLz64kzD0/oj7N379I9KmeuASyxAgeRCwH3dgTwCn+PktblPhyqKyOKM+ZOzZIyyOPFz4h/ZTPXhh9hsSso8aDk4WPNJHhtyTbUR8YLs7ebkbV1k2eMsMAx//7qYjsSC8agaHH/SOitt10Nnr3U8g1ShgmzorqfMrhU19CZu8rnndK0LbTLvk/KNShw8HFil8eu5V4pg2eOR/JeYOCn9AFI5Nh7OmXQKlLiqF1sSMW4/Pn6ufBO70bJxOzsjFi0fKAdqpEPcatuDIiO/tyfFYsMBOuWl//HtnMNRXKAxje2gbbbm/QeIaTIf1fr0LmGyuZZZFx1v2QZUe2FOo018Hy+4feCgbIuPptJE1eKtlenpSJ1MXXIefWL5G45EaoCgd4FiPKgKFkXyVRnnPsSJx//vFQKo98j7KS8gQ01nmzU40ZrgEX5d18yRPv4+JvSnDSI28hvWikZJuJK68kd8KLwP610lkbv77zEnfIqC7yxx+DFe+sl37osSxG/+MCnPPeH1j20heY/s87orJ9/w+kDSc+8BpGLT0Pan0aOJkCnEwBRnbk/w7iScWWX4ny8AWnYsicJWQjlsX8e1dh7OnBZx5jTUvlQexf65O1lgHOeuNHTLngBsn2KXmFWHDfK7j0m1JMu+wWDJp+Qh9Z2rvEZHwEHrs+fZOomn39fZh11T3QZecDLIeCqXNx1pvroNREFpWrL8fn/JN8VrlEEQ++GtlNk95JBjht3z4P1QjvbAqnSULmDR+Cb60Hw3JgEpI92WwipeXbF6AaNx+s0r2Jh2E5JCy4AtrjL4HQ3gTR5QAjU4BL0PdK3GVKdOTlpeO55y4PSPbhv8w1deowfPnlnQHn795dgeuvl/Yr601OOWUqLroo8CYmk5G/xxtvWIprrzk5oN3bb/+MN9/8IWj/5eUNKC9vgMGQDgBgGAYrVszGihWzIYoieJ/Yqhdd9D+YTKET8gw0nvqoEXde1pU2mmVwziIzXl4TxewXw4DlAMOEaTC89Dl4lwh7Wws6G2vBKdXQZeVCriRnnCu3bATvsEt2ZzM3Y+vbz2D8Sm9Wre4kJk6bAzZzCziZHHJtgierVk/Z/Ob/MOaMy6BKcK9gsTJg5pV3YOaVpOD+4pYLULZx7WFdiyJN08G9aK2qQHJulysOAxz378cx46q74bB2gpPJoE5JDxp2sC9Z++C1KJhxvOf3zDDA+JVXYNxZV8DebobgcoCVKaBMSOqVuL79gViNz4bn7sXQhcsIITzylJUYecrKEGeFpi/GR6flUWDwrnjvKbWhuS0y/UJnlAc4TnMdmt+4CaJAxgLkkjPAJqZ6RLIo8HBV7o6sU8GF+sdXwmkil24YTgYuOROytHxwyZlUJMeJvDw9NBolVCoF8U/pJ2oYhgloo1IpkJ7eN0uJw4blS17fXyjLZJxkO31q+Kgrd931NlyuwDiYDMNAJuM8/+TyfvC07mVeW5ME8N41y4sWh984EwpOxkCj1yN9yFHQGwcFiOT2+np8esOKkH38tuo/WP/UvfC7HUGuUkCXmQlNqv6wRXI339x+IVyO0DFQNfr4pB/239QFAA6HQ6LlwObz684KGGtVUiISs7KhTSNF2L6vP+pxFMPDhXc58NZZM9B8kAxHxnLuBDvatHSok3suwoqKpBN5tba29qzDXiIW48O7HHjj9Mlor6sL2c5pc6D6r80h2/j2GcvxAYCrTrcTs0kPvRrafsKOnl+W0l+wHtiMxmcuAh8kG57gsKLllWvhrD0YcZ+81Yz6V65B20cPQHCETlQiCjwcB7ag7YP70VmyKWTboH2ESYZC6Z/EOznJoUN1OP30h7Bu3U6Y2yxBg+B3dkrPgg5kBACvfOLdoJOTq8SkEZEn+djx4Sq01VSHfTg67Q5sevVJvH7GFAQ8dSX464OX8PqyyWg4WBq2b3tbG/Z++0mPYqdWbt2AV04Zi/LN62Ezt/WaCIskkUIohg4dCpmE28enn0q7rAwEHFbpJFLm2gq8vTxQ4PjCOwWsf+pefP/gtcQQucLc812WniWuctqlQyV2NtXhnfPnYf1T94Z9wRJFoHH/Xvzyv3uw/7tPwl5z3rzA2OIA8PTTT4c3OIbEanzs7Wa8fuYxKPnuM1iam71/eyJgaWrGgR+/xOvLpgC+sZZFwGEJ7hMcy/FhAVx4sncioaHOgR+3pIc9rxvGYDD0yZOusLAQAMDzPEwmU19c8m+JTJMEdeEEsPoswG6FZe96OM2RvzkFg1NoIM8dAlXOUKAryQnfXA1HUyXsNSVhU1lSKJTehwVQ+pEKnNo9NVRebsOMS8KLWbITDsYJM5BaOAyJ2UYAAMMyaDGVor50J6q3/3FYf9/phcORe/Q06AuGQhBcsLY2oaWsFDW7NqG9LnBj4EDnsssuw0knnUTU2e12/OMf/4BwBN8nUwuHIXfcNGQMGQmZSoP22krU7NyEg798HW/TJFFodcg7ehqyR06EXKWBCBHmioNoOrgHFX9tjOo3/8ILLyAvL4+oKykpwdVXX93bZv8/e/cd3lS5+AH8m90kTdK9F6WFMsreQxQUEXGAIFcUJzjw6r2Oe9XrvM57xXt/7r0uIKCCKC4EEbWy9x4tLV10j3Smacbvj0KS05ykKbQNhe/neXgezjlv3rzpaZNv3vO+7zljnXp+pFKEJ/VGeV6m4Db3N36W4Rj6YW5swgdX+H6r+448P4/eXI97bnBeXZrxQD52HvF9VR4GZSKibuxPk6vw7wecH9KzH87GloMXzlJ55xqx0LR48WIsW7bMTy2izvbtt99CJhMO77rnnnsu+Kxz19rjjpuJ1BSdxOIbxnR5G2RSIHuVGlC2DKDYc7Ae1zzcvjrOk2HrRGcmJSUakZHtX1rLG4mk5dJQR7Fardiy5WjHVXiBGzo0BQEdNE4W6PjzDQBVVXU4dCjPp7LL1wZjwcwmJEa3zBm4/rIgbDnYse0h30VHRwu2GxsbGZLPY3379nULyYcOHbrgQ/Kg2Xc5QjIAVOT45zNs+sVVgFQNWGyw24A7XzQDaN/7P4MyXdBefPFmhIWd++tk3nrr/yEvz/fxp+TZyy/fBsk5ftvj5mYLLr/8KZ/LX3SnBcDpS57+Wa+WgH79+rmFpiVLlngoTeeD1jcVsdvteOWVV/zUmq4xZ8nvAIB9X36IA98ucRsG0fuy6zB6/mPOHXbgt/8+Bn9Y8UswVvziOt66/Z0kDMpE3YCsvYvkUrd2rgd5EnfJJZcItuvr67Fq1So/tYa6wqBBwhsd7d27F8XFxX5qTdfQGkKh1Gkx4YFnMf7+Z9FYVYaa4kLIFHLooxIQYBDe+OzIuq9RX959fyYMynRB8/eqDUR0/igrK3OEJJvNhqVLl/q5RdTZ8vLyIJW2dGTYbDb897//9XOLupZUBmjDwqENE19FovToAfz6yiNd3KqOxcl8dEFTq1UwGDr2ttsWix1yecf2CJaWGs/rGfNdyWDQQN3Bt9O12QBpB3b6WyxWlJfXdFyFREQd5PKn3kHimEle10S3mK3IeO0JHPq++4/PZ1AmIiIionbRhkUhbvBY6KPioA2PQnNjPUoO7UbBns0wGSv93bwOw6EXRERERNQu9eXFOLpupb+b0ek4Q4iIiIiISASDMhERERGRCAZlIiIiIiIRDMpERERERCIYlImIiIiIRDAoExERERGJ4PJw3RDXpCYiIiLqfOxRJiIiIiISwaBMRERERCSCQZmIiIiISASDMhERERGRCAZlIiIiIiIRDMpERERERCIYlImIiIiIRDAoExERERGJYFAmIiIiIhLBO/MRdTPhKf1w1X+Xey2T8erjyPxldYc9Z/qM2xDdbxiCEpKh0AQKjn1133Q0VpZ32HMRERGdKxiUiboZpSYQar3Oa5mQpF4d8lyxA0biiuc/gEqv91jGEJXIoExE1AmUGjmkipaL/831FlgtNscxhU4BmVQCADAZzX5p34WAQZmIREnkcly5cDEUKqW/m0JEdEFKn9sTmggVAOD42iKc3FrmODbyz70hkbeE6H2LsmHMrfNLGzta31lJkCpavgCUH65B8e6Ks6ovICQAKVOiHdt5v5WiprDe58czKBN1M4UHdmDR7LGCfbEDR2PSP17p0OcZv+BpQUi2WuzI3bQO1fnZsDY7ey+qC3I69HmJiAiQKWWOkAwANS5BODBS7QjJAFBX1NilbetMob30jhl0TcZmFO8+u/qUKgmCezqvwpbsqQQKfX88gzJRd2OzorZE+FfeUFXmofCZix00WrC9bO4EGIvyOvx5iIjIXVCi1rlhA+qKnWE4uKdzrkhDeROsZmtXNu2CwlUviEiUNizC8X+TsYYhmYioC4UkO3tBjSdqBceCU53zRqqOC49Rx2JQJiJRco3zTdpUW+PHlhARXXgMLr3GlcedY2qlUsAQ5+xtrj5+foxNPldx6AWRB1F9h2LAjNugj0mENiwSclUATHVGmKorYcw/jv2rF6PkUPsGTwXF9UCP0ZciesAIBCenQaUJRHVhLkoO7kTO5nU4uWdLJ70a7wZcdwcUKpVgn1Qmcfxfrddj6JwFbo8zNzZg/6pPO7t5AICIXgMQP2wcgJbgfvDbJQBaVuYYestfYIhJglITiNqKUlQc3Yt9Kz9GWdZBn+pWqrXoe+UNiB48FvqIaKiDQyGVyVFTVIDyrAMo2r8Duds2wGSs9FyHRof0a+c6tvd/sxiDZ9+FpPFToNYHo2jvNuxd8SGKD+2EUq3F4BvuQeK4KdAGhaAi5ygOrPwY2ZvW+dTe6P7DkTBiAiL7DUVIYgrsNjsq8zJRvHcbsjZ8i6qCbJ/quRAlj5+C4PhkAEB51iHkbvsVAND3yhvQ98o50IZFQqZQwHgyDyWHdmH7olfRVGv0qW5dZCz6X3szwlL7QxMaCW1QKGxWC6rzc1B6dC9O7t2C/O0ZsFo8r1CQNHoSQnv0BgBUZB9BY00Vhsy5D1F9B6GhohTZv/+AXcvehdViRvyQsUiffisi+w2FqdaIor1bkPHmM7Cam9psa4A+BEljL0XcoNEIT02HJjQC9WXFKD22DwU7/sCxX1cDNlub9dDZk8mlCDAIJ01LFBKoQ53vyU01TdCGBgAA1OEqQTenub7ZccxmBxorTZ3eZqlMiuCegdDFaKAOUkAZpIREKkVDmQkNJSbUFjegrtjU5pCQsN4GQNJqp8trU4epEJZmEH1sU7UZtcXCsdnKADn0SVrBPnWI8LNNF6eF3cOvdt3JBphqmgX7JAkJCXbPL6HjJCe3vDFZrVbk5uZ2xVOet/iz7Fwhiam4/Nn3EZLYo82yFrMVS2+5GLVF+d4LSqWY/PgbSJ10pddiBbu2YvXfb4TdYmlPk5EwfAKuWvg/x/aORW9i68e+T+5bsOEEJK3frHy0YsH0dn9hOBMTH16IPtNmObaX3jQRw299EKmXThN/gB3IePM57Fv5kcc64waPwcTHXoUuIsJjGUd1duD3V5/CgW8WiR4PT+6D6z/+0bFtLCqEITrWrY7P75iCyU+/4/77ZQd+fvEhHF230mMbAgwhuPb1FQhNTPbSUGDnkrew5aOFbb6mC9GNn2UgKDYeAGBttuG9K3ph7mcboYuMFC3f3GTGNw/M9vo7PnTOAgz80z1tLtsIAObGJqx+cDZKDu8RPX7Dxz8jJDkFANBUUwOlTu/2t1mwayv2LH8H017+1O3xNUUnsWTuRV7fQ9Jn3Ibx9z3t9W++vqICq+69FsbiNt7b6KwZEgMx4GYvf9PtYQMyXtjXMXWJCAwLQPLUWBgStW2WtVtsOPRFHiqPe74iOf7JAWfclrJDRhxZKcxAZ/uzzPy2AMV7hB0iHHpB5CLAEIKZ733vU0gGALlShgCt+Lfd04ITeuL2lTvbDMkAEDdkJOat2gtDVLxPz38ukPjpbWTk/Ec8h2QAkADj73sSCcMneCwSNWCkTyEZACQSYMIDz+KKFz5pufbZhtYh+XQdf/p4jfjvlwS46MEXPdaXOvFq3Lpyp/eQfKqeoXPvxfUf/Oi9HAEAZr2/xmNIBgCFSokZb6yCXKX2WKbHuCt8CskAoFSrMPPtrzF49t1tllXp3UMy0PI+IRaSAUAfHYMh198pekyuUmPGm6tw0f3eQzIAaENDMeezDKRcNLXNdtKFQx0Z4FNIBgCJXIp+c5KQdHFUJ7eqc3HoBZGLy554A4oAl0tgdqDo4G4U7d8Gc60RQfE9YYjvifBe6ZArZT7VOfOt1VDqhG8s5TlZqDi6D81NJoSl9ENU34GOy09KnRZTX/wEy26/tKNeVptyMtZCoRXecS9+yBhHm5qbzCg+sEP0sfUVxZ3dPFE9J1wOoGXZuvJjB2AsPIGghB6I6N1fUG70gieRd9tvPtVZX16GmuICVOcdR2NVOfTRiYgeOALa0FBHmeSxl2D0/Eew+b2X2qzv+B/rYSovRp+rboS01a9LVUEeTvzxE9Iunwl1cDCAlhBliE5wmzipi47H5CdfF1yitNuBkkN7UZF5AHK1BuFpgwQBPDy1D8be8wQ2vvO8T6/9TA0ZMgSPP/54h9Q1e/ZsWNp5NeVsyBRShJ/qvTXVNaDs6F6Ya6oQnjYI+ugYRzmpDBg17+/4461/tlmn3Q4YT+ajtrgA1ScyYbU0Qx+XjPhhY53LLUqAMfc8ioKdf6As64DX+sy19Tj0wzIkDL/Y0dPs+lxHvv8SMlUAel12lWN/8oSp2Ln0bbe6pr74MaL7Dxbsa6ioRPHBHagtKURIcm9Ep490vLdJZcCkJ95AzrT1Pg3noDPTVGuBuaYZEqnzD1wR6Ixn1iYrbM0tF//tEkCpdR5rbrC2jLc4vW3q2tUvavLrUV/ahIaKJlgbLQjQK2FIDRSMoY4fH4HGqiaU7K1ye/yJn4sErxUAYkeFO/7fWNmEymPiPdK1hQ1u++qKG1GwqRwSqfNnogkPECwPV3W8Fg1l4sNT6ovdl9ljUCZyETNwlOP/djuw4q6rUXpM/DJW+vRbkX7d7air9BwUR89/VBCSLWYrfnpqPk5s+UVQLjylH6a//hUUmpaxVCHJKUi9+Cpk/vrt2bwcn/34lHsP1N0/50Amb3njrisrxuqH5nRJW9qjvrwMy+ddDlO181JZ4oiLMe3fnzpCZViPFKhDwkTvHthUUwWbBTixaS02vf2cx8vMg2bOw9g/P+HYTr/m1jaDcsmh/VjzxB0t7awoxYg7HnAca24yY+nNFwM2G3Ytfwd3fL3LcSztiuvdhs1MffYDQUiuLS3Fqr9c5zbkJ23KLEx8ZKGjt3Dg9fOwc9nbgp9PRwsMDIRa7bm3tT2kPvTUd4bcbRn47tFbBGNyx//5WQyYebNjO+3KGzwGZXNjHZoaTDj87RJs/fg/sDSJrGkrleLqhZ8hfqhz2cVxf34Gq/4602vbvpg/BcbifGx853ncueaY4Iv8jv+9jm2f/hcAEBgejZhBwwAAIT36uNUTmTZQ8NywA9tdHn+aUqPDdW+ucoRyuVKGSx99FT89e4/XdtKZM1WasPW1w45tmVyKMY85v/DvW5TtWBouMEqNwfNTHce2v3ZYcLe+zmZtssFisuLk1nIU7aiAuUHki+0fJQjtpUff2UmOXfHjIkSDcv5m96VNY0eEO8Y7GE/UI3tdUTvaZ0XO+pOCffpotds6ymWHfJt3AHDoBZGDRC4X9BJXF+Z5DMkAsH/Vp1h600Ueb9+s1Oow6E8ul1ftwNd/nekWkgGgLOsgvnnwesG+cfe33Xt1QbMDy++43C0E5m77FcWHhOctspf4OLj9qz7FO5OT8eNTd3odi7lnxYeozM5ybCs0KoQkpnosDwAFO393/D/rt+8Ex6pzsxyhzFRdCYvLhBddRIygbNLoSQhLTXNsN5vMWDp3gui4+CNrvsSuJW85tiUSYOJD//bazgtdY7UR3/19rtvEtYw3n0KzyTnpTqUO8FjH6r/diA+npmHjO8+Lh2QAsNnw/SO3wNrsfJ7I/kO9ts1itgp+L435wkmaR39a4fh/4Z5Njv/LFe5XuyY//Y5gWywkA4C5oRZf3DkVzU3O155yyRVeh55QxzIkuVzda71+cg+X9ZNLm7o0JANAZVYNNi88iNzfS8RD8ikVx2oEYVQdooJKr+iKJnY49igTnSJt9b1RHxXfMhb1DGd+D5o1X3C5PTtjrdcJQSVH9qLk0H5E9k0HAGiCQ87q+c93Bbu3elyF4tjPXyGqnzMcB8f3FP2CAsDnn2/e9t8El77Dew1AZW6mx/IVx484/l+Vd1xwzFggnIDSXF8DubJl+IVCFyw4NuyWBwTbG15+2HMYA7Dlo4UYMGu+o+cxvPdAj2U7wqFDh5CRkdEhvcFdOezitB2LX/d4rPjgTmcvrARQ6QziK2D4+DtktZhhzM92/B6dvmLjibnVc9WWFTm/NNkhGKJTne9yh8xW1Rqi4gVDSRoqK0VDsms7dy95y3kVRALEDx+PnD/Wem0vdYygZGcYNuYLb7Uc7HKsKufcXj+5+ngtwvs65/AEBCnR1GpFie6AQZnoFKvFDGuzDTJFywe+TC7B1H++h59fehDmhva/IYWmCMfKQioXXWINACSnErXd7rIIjQSIShuM4kM72/3cF4KCHZ7HHRtbBVNDnI+zoKVSBMckIbRnHwTFJ0Mqd/aABCUIx4eqDcGtHy3QVNdqXJ0dzjHfJuGHn7XZ+eGh0gjHiusjhZMC9VFxbf4eWUyNjqCsCfVtsuKZKi8vx0svtT1e+1x1bP0qj8fqS4WXcEMSe6HowPY265TJlQhJ6oXQ5DQERsdD6jJzTtpqGUalWgtzY33rKgAAFrNwHKXV5NxuvVyVpVG4lq5Sq4O5vuV9Kyp9hLCwHRjyp7shEflyc/p3SB0UKtifOGwCg3IXCe7hMp42S/jZo09wDuUzZp8b6ycrdAoE6JQICJILxlm7Lm8HAHKVb/N6zjUMykQuSo7sQUz6EMd2j/GXYf64/agtLUHRvm3I3bweJ7aud3wAeRMUL1zZIHncRCSPm9iu9sQPHceg7EHVCc+9ua1v8a1Ue5+lnXrxVRh9zxNeVz9oTR7g/VJ0U4MwKLvkZDQ3CCehWJqdE6VUgcLVE1StephH3fl3n9sItEzI0oZFob7cP5Muz2l2eB2/XV9eIthW6fQeSgKQyjBs7v0YNPsuqDSeh2m0ptAEeg7KzcLeN9cvWPZWc7ZMrb7Ma4PDHe9TkWnCqwqa0BCMvvtRn9sIAGEehi9Rx5LJpdBEOANmdbbzvGrC1ZDInV9uqk/4LyjrY7VInBiFoCTfVsAAAKniDNcg9TMGZSIXPz4xD7eu2OHoVQYASABdZCR0l13lmFleV1qKfSs/xu7P3/VYlybU99DliVyjOes6zlfVhSc8HrO79beJk6vUmLPo13YFZAeZ97dPi0k4PMJuAySnOlQszcJjNqvz0r1E4vzdU2p0kHbAu7RKq2NQFmG1tvV74tvvUXhKP8x4e7XPK+G4kso9n2CrRRiUbS4rT9hb3TGh9aoUEpmzLcGnbmByNmRKZduF6KwZEoXjk11vqOE6JKOhvOvHJwMtX7z7zenZroDscKaL9fsZgzKRC5OxEp/OHIZp/16EyN793e8YdEpgRATG3PMoUiZOw5d3ia/lq2jV45i/c3O721O0d2u7H3OhaB0UzsSsD9zX0LVZW3oSG6rKYKqpxumwpI9JRHBcwlk/Z8uTtApgHl6LLko47MJqsePk3vbfvbHBWNHux1wQ7L4FYW8CgkJEQ3KzyYz68lI0VpfB3ODs+YvuM8RtucgO4eW1qFoNoyjPyUJjpftqA96c3L2p7ULULuF9DUibnijcKRX+f/zjA0SPacJUgmM1hfXY+6lwyFlnSJuR5BaSrU1W1BaZ0FRtRnODBac/OLVhKgT38m198XMZgzJRKyZjJVbcPQ1KrQ4DZ9yOuKHjEZzcW/SGAhG9+3tcq9ZcVwN1kHMiw/eP3cq1SM8hcYPHICTB5UPq1HJZ25e8LnpXsyF/urvdl6vPVmWb+RrUAAAgAElEQVRelmDb2tiA1Q/d0KVtaEt6ejqee+65Dqlr5syZfpnQdzbGzHtMEJItZit++dcDyPxltWj56W98JRje1RXqivMd60UDwKHVS7rs1vPkmUqnbHvtMW/HXY4JroJ2ksCwAISmuQw/sgFHv8lD+aEa2EQmtIb1NjAoE53PzPW12L74NWxf/BqAlp6jETc/gH5XzxVcDu937c2iQbmutFAQlIPieqAi+4hbuc4gOccucaWnpyM42H3yW25urt9uwz7oBuGEuC0fvCx6k4bTwpL7dnaT3NgtFljMVkcQk6nPvaE4wcHBUHbQZXl/raN8NpIvuty5YQe+WnA1yrIOeiyvi4zrglYJVWQdRI8xl7i0wf2ukURtCR8ofA8/vDIX5Uc8r0fcejJfd8WgTOQjU3Ulfn/9Sez+8n3ctDjDEZYVKiUkcrlbL2T1iSyE93KGq8g+gzstKDfVVgu2O2J8dEd68cUXIZO5j9/MyMjw24oJhljhJc+dy9/zWj4kOc3r8c7SWF3huM22TC4RrGZA/qd0meDXUFXpNSQDgCY4rLOb5KbksHBZyuDEXl3eBnJ3cnsZinY7J5OGpOqQNqNleJfdYsPm/zhvQhI3KgwJE1re1xtKm7DnE+HVJrfhXJ1AEyGcpFp5zPtNO7RRZ7/2trSNJRR90XpUkuvKHL5gUCZqp9qifJRlHUBkmnP5t8DQSLeVFooO70Lq5Ksd2yNv/xsOfb+sU9pU2urD2RCT1CnPcz6RKZy9HXY7WgYnexCc0BOhKf4JF9X5xx1BGQAm/n0h1jx9t5dHdK39+/fjxx9/FP0i1F7dbdgFIJzG0OxlfWsAGDpnQZdcIm+tqNXt5xNHTUCAIcTjOuTUNWw2AC43Gwpyue1zdW49rC7HXG9CUplVIzjWVVx/d+0Wm9flwxU6BcL7GTwX8KLZZIVC0/J+ogo6+6tVrW+MEmBoX50MykQuYgaNwsk9bU+WCooRTuqqqyhxK7P/m0UYOf9Rx1JRmtAQ9L/mZhz4ZlGb9adMuBJ1ZcU+Lw1nt1hgtdgdNzCISh8GuUrt9cYUF7qawhOOACqRAPFDxiJ/10bRspc94723uTNl/N/jmLP4F0ci63nRFATF9UB1QY7Xx0nkcgy87g4c/mG5+E0yOkhVVRXeeOONTqv/XNfUaHL8jevCY6HU6ETXXVdqdRh6y1+7unkAgKZaIwp3b0fs4OEAWn7fJz/1pk+3pQ9P6YeQHmk4um5lZzfzgmfo6RKGjzsngEqlgCHeGaKrjvvnilJjiQmGxJZ2SORSaMID0FBmEi3b87IY0f2+aKo2Q6Fp6Y3Wx6ghk0vPaoWP5jrh6jHBqTrkbSz1+fHdb0AYUScJSUzF9FeX4841xzDx4YUICApxKyNXqXHVK59BpXdebq0vLxOd/AWbDb/+60HBrgkPPItpLy8RvR2sUqvDRfc9izt/OIrL//kWhtx0X7vaX3bUedtmqQy4efkm9Bg3GUq1FjK5EjK5EoJbBV7gSo/uFWxPeeFjhCf3EewLCArB3GWbBBOhulpVQTYy17vcAlsCzFm8AaPu+Jto+eC4ZFzxwie4+6csjL3nMfQYd7loOeoYNcUFjv9L5cD0t1ZBqRVOYIodMAK3frUTCpX/llhb88xdgosm8UPH4KZlGxEU18O9sFSKAdfdgVu+2IbrP/we4/78dNc19AIlU8oEY3prXMJwYKRakNaMBcJ12LuK6620AaDf7CQEtLottUwpQ/85Pc64NxkAGsqd4Vsil6LP9YkIOIueZZsNaK5zfkbr47XoMTEa8gDfIjB7lIlOOb3uqCJAiT7TZqHPtFlobjLDVF2FhqoyqHQGGGLi3ZaC3ONlbGvW7z9gaOYR521nASSOGIe71hyGqb4BtiYTbFYL1MFhZ31Jdu3zf8bNSzMcPY/q4GBMff59YSE78NYlSWf1POeLXUvfwYCZ8xy98Eq1Ctd//CNqS0pgt9ug0mhbbjBxDsyLXP+vB5E0frIjaEkkwNC592LwnHvRVGuEzWKGVK6EKtDQIesuk++2vf8irvzXx47tsB4puGP1fhiL8qAMUEOp0UOh8f+kJpOxEruXvo2hc52TWA3RsbhxyQY0m8wwGasgkyug0AY67upIXSfIZf1ku8WGOpewGNTT+cWrvrgRdj+snwwApYeNSLw02jEsIiBYieF/6YPqE/WQ2GyQa+TQRqjPugu24I8yRAxwThwM7qnD8PtaPkMtJue3vbL9RmStKXB7vJjc30qQcqVzEmvc2HDEjQ0HbC0r1ZyW9UMhyg4K5/ywR5nIC4VKCV1kJCLT+iMo1j0kZ67/HntWfOi1js/vuhKZ678X7pQAAYEaaEJDEBgR0SHjFmuL8rHlg5e93yPhHAh95wpTTSV+/c8jbvt1kZHQR0W3XDU4/fOyA0fXfNW1DXRhtZjx2ZzxqMwWTuCRygB1kAHasHCogxiS/eHEll+Qk7FOsE8qA4LjEqANCxeEZGuzDQW7/Lc2+paPXsbGN593G46vCGh5n9OEhjAk+0mwSxg25gjv1BiU6nJL62zxuzh2BavZisMr3FcpCkrSwpCsa5m8d/qjzAbkrDuzmxzVV5hQsFF8nW95gMz5T+v7FdKSPRWoLRQZiigV1in2WcygTHRKbXEhcjLWobG67fGc9eVlWPvMfVj73L1tV2yzYu1z9+Lr+2f7VHdNcRF2LXsPG1552JdmC+xc+ja+mD8N5VlH0dzQcWs2W01nN9bZ3gE3djgbnm4RfOTHL/Dt325BY43nMX8mYw2+um8Wjq4VjtG0tLHyhKXhzD7QmpvEx/zVV5Rg2e2XYuObzwt6QMTY7UB55hFkvPEcMtd9fUbtIHfNHs75D0/Ox5b3X4bNy1zEsuwsfDprGGqL84V1evnbsp3F312zSfzy/J4VH2LR9SNRlp3V5o0Hm2pqcGTt1+fc2t3nI12sczhe5fEawbHAcOdqE5VZwmNdzZhbh93vZ6KxxPPvZl1RI3a8e8ztddjMvveE5/xShH2LslF2yAhzvQUQeWh76rPZgD0fZyLz2wJUn6hv6ZkWebi12X2nJCEhoUs+wZKTk1saYbX6bd3U8wV/lp1PqdEhcdQlMMT3RFB0PCxNTbA2N6Mi5zBKDu8+q2XeJHI5ovsPQ8zA0QgMDoMsIADVecdRmZeFwl2bRScCUeeLGTQKsekjEJrSF7ZmC2qK8pCdsQalx/a1/WA/UGp1iBsyFtH9h0MRoIEddhjzs1GRfRj5ezbD65R06hRKtRZxw8Yjsu9gGOJT0FxbDWPhCRz+8QvUi0z4PReEJ/dB7JCxCEnqDZvNgsbqClSdyELRwe1uK/kQudKGBUAToYI6NACw2WGqsaAmrw4mo9nfTetQDMrdEH+WRERERJ2PQy+IiIiIiEQwKBMRERERiWBQJiIiIiISwaBMRERERCSCQZmIiIiISASDMhERERGRCAZlIiIiIiIRDMpERERERCIYlImIiIiIRDAoExERERGJYFAmIiIiIhLBoExEREREJIJBmYiIiIhIBIMyEREREZEIBmUiIiIiIhEMykREREREIhiUiYiIiIhEMCgTEREREYlgUCYiIiIiEsGgTEREREQkgkGZiIiIiEgEgzIRERERkQgGZSIiIiIiEXJ/N4CI2ic8pR+u+u9yr2UyXn0cmb+s7rDnTJ9xG6L7DUNQQjIUmkDBsa/um47GyvIOey4iIqJzBYMyUTej1ARCrdd5LROS1KtDnit2wEhc8fwHUOn1HssYohIZlImI6LzEoExEoiRyOa5cuBgKldLfTSEiIvILBmWibqbwwA4smj1WsC924GhM+scrHfo84xc8LQjJVosduZvWoTo/G9Zms2N/dUFOhz4vERHRuYJBmai7sVlRW1Io2NVQVdbhTxM7aLRge9ncCTAW5XX48xAREZ2ruOoFEYnShkU4/m8y1jAkExHRBYdBmYhEyTXOCYOm2ho/toSIiMg/OPSCyIOovkMxYMZt0MckQhsWCbkqAKY6I0zVlTDmH8f+1YtRcmh3u+oMiuuBHqMvRfSAEQhOToNKE4jqwlyUHNyJnM3rcHLPlk56Nd4NuO4OKFQqwT6pTOL4v1qvx9A5C9weZ25swP5Vn3Z284SkUqRedCWSL5qKwMhYaELDoVRrUVdZiqrjR1B0aCcKtv2GqoLsdlUbkpiKXpdei9gh42CITUJd2Unk7/gdWetXoyzrIAL0IUgaNdFR/sjPqwCbtc16z9Vz3p0o1Vr0vfIGRA8eC31ENNTBoZDK5KgpKkB51gEU7d+B3G0bYDJWtqvezjrn0f2HI2HEBET2G4qQxBTYbXZU5mWieO82ZG34tt2/m0TkP5KEhAR7VzxRcnIyAMBqtSI3N7crnvK8xZ9l5wpJTMXlz76PkMQebZa1mK1YesvFqC3K915QKsXkx99A6qQrvRYr2LUVq/9+I+wWS3uajIThE3DVwv85tncsehNbP/Z9ct+CDScgkbRdTsyKBdPb/YXhTCg1Olz35ioE90jxqa2Z67/H2ufu9anuYbc8gJG3/cXj8T2ffwhdVBx6Tpji2PfB1HSYG2o9V9rJ5/xCEDd4DCY+9ip0ERFtlrXbgd9ffQoHvlnkU92dcc4DDCG49vUVCE1M9tJQYOeSt7Dlo4U+tZOI/ItDL4hcBBhCMPO9730KyQAgV8oQoDV4LROc0BO3r9zZZmACgLghIzFv1V4YouJ9ev5zgaSL3kZUOj1Ckn0LyQCQOulKzF2+GQFBIV7LTX7yLa+BCQAGzZ6H+CHjfW3qeX/Ou0rUgJE+hWQAkEiACQ88iyte+ASQev+d7Ixznjrxaty6cqf3kAwAEmDo3Htx/Qc/+lw3EfkPh14QubjsiTegCHBZN9gOFB3cjaL922CuNSIovicM8T0R3isdcqXMpzpnvrUaSp1WsK88JwsVR/ehucmEsJR+iOo7EDgVAJU6Laa++AmW3X5pR72sNuVkrIVCK7zjXvyQMY42NTeZUXxgh+hj6yuKO7t5osy19TAW56E6Lxs1J3OhDY9EeEo6QlOcN1vRR0Xj2leWY/m8yaJ19Bg32S3MNjWYUHxgO+pLChHVbxhCklMAwO0cenMun/PPP/8ccvnZv/W/9tpr+P333zugRb6rLy9DTXEBqvOOo7GqHProREQPHAFtaKijTPLYSzB6/iPY/N5LonV0xjnXRcdj8pOvO84n0NLDXXJoLyoyD0Cu1iA8bZDgC3h4ah+MvecJbHzneV9fPhH5AYMykYuYgaMc/7fbgRV3XY3SY/tEy6ZPvxXp192OukrPQXH0/EcFH7YWsxU/PTUfJ7b8IigXntIP01//CgpNyzjhkOQUpF58FTJ//fZsXo7PfnzqTrd9d/+cA5m85ZO/rqwYqx+a0yVt8aS5qRF2O1B6eD82vf+Cx7G9Eb0GYOZ7qx09z6EpvWCIioex2H14zLh7nxFsV+Rm4/M7JguGQfS/ei4mPPicz+0818+5Tuf9ro6+Mhi8X0npCE01VbBZgBOb1mLT28+JnkMAGDRzHsb++QnHdvo1t3oMyp1xzqc++4EgJNeWlmLVX65zG5KVNmUWJj6y0PG7OfD6edi57G2Yqts3tpqIug6HXhCdIpHLBb3E1YV5HkMyAOxf9SmW3nSRx9s3K7U6DPrT3c4dduDrv850C0wAUJZ1EN88eL1g37j7/9nOV3B+M1VX4u1JyVix4CqvE+BKj+3D3i8+Euzre81NbuViBo2CPjrGsW0xW7H8tkvdxgofWL0Yx39b41Mbec471v5Vn+Kdycn48ak7PYZkANiz4kNUZmc5thUaFUISU93KdcY5Txo9CWGpaY7tZpMZS+dOEJ23cGTNl9i15C3HtkQCTHzo3z49DxH5B3uUiU6RtvreqI+KbxnraLOdUX2DZs2H1GV0RnbGWq+T3kqO7EXJof2I7JsOANAEh5zV85+XfPxZHFv3FQbNvsOxHRTvHpr6TxOG56xfv/VY/9YPXhZM6vKkO5zzn376CYGBgW0XbMPhw4c7oDU+8PFnkbf9N8eQCQAI7zUAlbmZgjKdcc6H3fKAYHvDyw/D0tTosfyWjxZiwKz5jiFe4b0HtvkcROQ/DMpEp1gtZlibbZApWgKzTC7B1H++h59fetD76gYehKb0F+6QykWXWAMAyal0Zbe7LEIjAaLSBqP40M52P/eFQhsaidDkNIQm9YJC6xxSIJUJx4+rtO7BUB+TKNje/dlbbmVOqyrIRmNNLdR678MWusM5f+211zqt7k4nlSI4JgmhPfsgKD4ZUrnCcSgoIUVQVG0Idnt4Z5xzfWSscDsqrs1zbjE1OoKyJtS3yYpE5B8MykQuSo7sQUz6EMd2j/GXYf64/agtLUHRvm3I3bweJ7auh7m+7eAcFC9cOSN53EQkj5voobS4+KHjGJRbCU/ug/EPvoTofoME40K9kSlVbvu0YZGC7cr8417rMNVUtRmaeM47R+rFV2H0PU9AFxnZduFT5AFqt32dcc5VOmEgH3Xn331sYQupDNCGRaG+3D+TYonIOwZlIhc/PjEPt67Y4ehVBgBIAF1kJHSXXYVel10FAKgrLcW+lR9j9+fveqxLE+r7h7onco3mrOs4n0x5/iP0HDep3Y+TSNynY6j0QY7/26xo8xK/qboSiEvwWobnvGPJVWrMWfRruwKyg8z9462jz7lSo4O0Az5FVVodgzLROYpBmciFyViJT2cOw7R/L0Jk7/4eeywDIyIw5p5HkTJxGr68a5poGUWrHq38nZvb3Z6ivVvb/Zjz1YS/POceku1AfWUFGqvK0WisgM3qvGta4gjva+C6XrYXDH/wQCxst8Zz3rFmfbDGLSTbrEB9eQkaqspgqqkG0HLu9DGJCG7ji0xHn3NdlHDYhdVix8m97b/TYoOxot2PIaKuwaBM1IrJWIkVd0+DUqvDwBm3I27oeAQn9xa9BBvRu7/HtVDNdTVQBzmX0Pr+sVthNTd1atvPW1IZ+l49V7ArZ9MG/PLyQ6JLawUYQnDHN7u8VtlcXwuZQQ8AkMnaHsOhVLfd09sdzvkXX3wBpVLZdsE2vP766/jlF/fVPDpK3OAxCElwGVNsB7b/73VsX/K66F0Mh/zpboy++1GvdXb0Oa/MyxJsWxsbsPqhG9qsl4i6DwZlIg/M9bXYvvg1bF/cMvkpICgEI25+AP2uniu43Nrv2ptFg3JdaaEgNAXF9UBF9pFObzcASM70ftSdJD09HcHB7pOrcnNzfboNe7+pfxKsJlF0YA9++MdtHstH9R3cZp0NFaUIOBWaIAEC9CEw1Xhez1YlMjmsNX+ec191xIoXAKDV+n4DljMx6AbhhLgtH7yMnUvf9lg+LLlvm3V29Dm3WyywmK2OZSVlPnyZIqLuhUGZyEem6kr8/vqT2P3l+7hpcYYjLCtUSkjkcrderuoTWQjv5fzwjuwzuNNCU1NttWC7I8bKdqQXX3wRMpn7nQwzMjLw0kviN4ZwFZk2SLC9/6uPvZaPHjCizTqNxQWC5cR6XTYd+1Z+JFpWJldCExIqesxVV57z850hVrhCxc7l73ktH5Kc5vU40DnnvLG6wnGbbZlcAqVW59NkXyLqHhiUidqptigfZVkHEJnmXAosMDQStSWFgnJFh3chdfLVju2Rt/8Nh75f1iltKs06KNg2xCR1yvP4i7zVqhWmai9jOqVS9L/21jbrLDmwDT3GXOzYHjhrnsfQNOj6efClk74rz/mZWrlyZYfcne/AgQMd0BrPZArnObfbcWr2nbjghJ6CW5d70hnnvDr/uCMoA8DEvy/Emqfv9vIIIupOGJSJXMQMGuX1rm+nBcUIJw3VVZS4ldn/zSKMnP8oVJoAAIAmNAT9r7kZB75Z1Gb9KROuRF1Zsc/LhNktFlgtdsctp6PSh0GuUnu98UF3UnpsnyCApl46Hfm7NoqWHXvXP6BUuy8H19rO5e9h+G0PO1Y40UdFo9+0G3Hwu88E5QL0IRh80/0+tbMrz/mZ+ugj8WB4rqkpPOEIoBIJED9krMdzftkz3nubT+uMc57xf49jzuJfHBN/e140BUFxPVBdkOP1cRK5HAOvuwOHf1iOplqjT89FRF2Pt7AmOiUkMRXTX12OO9ccw8SHFyIgKMStjFylxlWvfAaVXu/YV19eJjq5CDYbfv3Xg4JdEx54FtNeXgK5yn2NV6VWh4vuexZ3/nAUl//zLQy56b52tb/sqPN221IZcPPyTegxbjKUai1kciVkciUEA327kfxdfwi2+1wxE70mXissJJViyvMfYdDseb5VarPi4DdLBLsufvgFTPjLc9BFxwNSGZJGT8KcJb85gm/bdXbtOT+flR7dK9ie8sLHCE/uI9gXEBSCucs2ITxZeLMRjzrhnFcVZCNz/XfOHRJgzuINGHXH30TLB8cl44oXPsHdP2Vh7D2Poce4y31rOxH5BXuUiU6RnBpDqwhQos+0WegzbRaam8wwVVehoaoMKp0Bhph4t8uxe7yMncz6/QcMzTyCsFTn+MnEEeNw15rDMNU3wNZkgs1qgTo4TLh28xlY+/yfcfPSDEfPljo4GFOff19YyA68dUnSWT2PP1RkH0F1YT6CYuNbdkiAy556FeP/8izMjfWQyeVQB4e3+3vApnefR++p1wtCUf/pc9F/+lwvj/KuK8/5+WzX0ncwYOY8x1USpVqF6z/+EbUlJbDbbVBptFDp9D7fdOa0zjjn6//1IJLGT4ZC1bKaiEQCDJ17LwbPuRdNtUbYLGZI5UqoAg0dsu4yEXUdvksTeaFQKaGLjERkWn8ExbqH5Mz132PPig+91vH5XVcic/33wp0SICBQA01oCAIjIjokMNUW5WPLBy+fXlZW3Lm1GEa7fPfQHLdhqgEGPfRR0dCGCUPy0TVfef85nGK1mLF49kjUlrgPnXHVbDLj5J4dPre1q875+cxUU4lf//OI235dZCT0UdEtV3VO/z7bT51zH3TGObdazPhsznhUZguXi5PKAHWQAdqwcKiDGJKJuiO+UxOdUltciJyMdWisbnu8YH15GdY+cx/WPndv2xXbrFj73L34+v7ZPtVdU1yEXcvew4ZXHval2QI7l76NL+ZPQ3nWUTQ3dNz6vVbT2Y119uXmDm0xFudj6Y3uYcSVtdmGjW8+j5//9aAgJ3sbq91Ua8SiG8bg2Lpv0VBZ6QzYdqChohLHN/yARdePAlzX3bUD5gYvKxt04Tk/nx358Qt8+7db0Fjj+WdtMtbgq/tm4ejalYL9Fi8rT3TGOa+vKMGy2y/Fxjefh8XseeIh0DI5sTzzCDLeeA6Z6772WpaI/EuSkJBw9p9gPkhOTgYAWK1Wn9ZNJc/4s+x8So0OiaMugSG+J4Ki42FpaoK1uRkVOYdRcnj3WS35JZHLEd1/GGIGjkZgcBhkAQGozjuOyrwsFO7a7D2AEQAgNDkNsYPHIqJXf8gDNKgtLkDRge3Izlhz9pVLpQhP6o3yvEzB2PMbP8twDP0wNzbhgyt6+1wlz/nZixk0CrHpIxCa0he2ZgtqivKQnbEGpcf2tf3gtnTCOVdqdYgbMhbR/YdDEaCBHXYY87NRkX0Y+Xs2t3n7bCI6NzAod0P8WRJ1vbvWHnfcWKKm6CQW3zDGzy2izsZzTkQcekFE1IZBs+9yBCYAqMg56sfWUFfgOScigKteENEFbs6S3wEA+778EAe+XeJ2Sbz3Zddh9PzHnDvswG//fQzUffGcE5GvGJSJ6IKmNYRCqdNiwgPPYvz9z6Kxqgw1xYWQKeTQRyUgwKAXlD+y7mvUlxf7qbXUEXjOichXDMpERKdIZYA2LBzasHDR46VHD+DXV9yXLKPui+eciLzhGGUiuqDlbf8dzSaz1zIWsxUbFj6GL++aBqu545bdI//gOSciX3HVi26IP0uijqcNi0Lc4LHQR8VBGx6F5sZ6lBzajYI9m2EyVvq7edQJeM6JqC0cekFEBKC+vBhH161suyCdN3jOiagtHHpBRERERCSCQZmIiIiISASDMhERERGRCAZlIiIiIiIRDMpERERERCK46kU3lJ2d7e8mEBEREZ332KNMRERERCSCQZmIiIiISASDMhERERGRCAZlIiIiIiIRDMpERERERCIYlImIiIiIRDAoExERERGJYFAmIiIiIhLBoExEREREJIJBmYiIiIhIBIMyEREREZEIBmUiIiIiIhEMykREREREIhiUiYiIiIhEMCgTEREREYlgUCYiIiIiEsGgTEREREQkgkGZiIiIiEgEgzIRERERkQgGZSIiIiIiEQzKREREREQiGJSJiIiIiEQwKBMRERERiWBQJiIiIiISwaBMRERERCSCQZmIiIiISASDMhERERGRCAZlIiIiIiIRDMpERERERCIYlImIiIiIRDAoExERERGJYFAmIiIiIhLBoExEREREJIJBmYiIiIhIBIMyEREREZEIBmUiIiIiIhEMykREREREIhiUiYiIiIhEMCgTEREREYlgUCYiIiIiEsGgTEREREQkgkGZiIiIiEgEgzIRERERkQgGZSIiIiIiEQzKREREREQiGJSJiIiIiEQwKBMRERERiWBQJiIiIiISwaBMRERERCSCQZmIiIiISASDMhERERGRCAZlIiIiIiIRDMpERERERCIYlImIiIiIRDAoExERERGJYFAmIiIiIhLBoExEREREJIJBmYiIiIhIBIMyEREREZEIub8bQETnvkuGlGFgqhoAsO1IAzbtjfBzi4guDL0S6jB1dMv/D50wYe3WMP82iOgCw6BMRF4Faa349LlEQCoBAKxaW4VNe/3cKKILxJzJMtx23alwbLdjxE3VKKlU+rdRRBcQSUJCgr0rnig5ORkAYLVakZub2xVPSa3oh14J9bBpAABbQx0qPnsENpvNz60CZEoNAgdPgTyyBxRh8bArVI5jtqpSlH3xtB9bR589a8O44bqWDYsNaTPr0dh0/ozauvmLbZAHqGzoWi4AACAASURBVD0ez/nte2z4z6Md9nzpM25DdL9hCEpIhkITKDj21X3T0VhZ3mHPRd2fXG7H8a80gKLlb27PwXpc87CfG0XnHW2oEkmTYwEAUjuQ+UMBTDXNZ1VneF8DIgaGAABsjRYcXZ2PcyBytBt7lC8g8uhekEf3cmzbpQrA1uTHFgG6AZdCf/XDgFwhetwekdzFLSJXvRLqMG54pGP7i3XVaGxSeXlE9xMYHgGJxPPx8N4DOuR5YgeMxBXPfwCVXu+xjCEqkUGZBCwWCT74ugLzZ4UDAAb102JoWj52Hgnxc8u6N5lSBoVaBgCwNdlgNlkcx+QBcshVLV9MmuotsFu6YbprJ4VGiZAUnWNbG6U+66CsCVcL6jzyXSG6Y1JmUCa/UYTGQT/jMX83g7x47zGDc8NiwxPvin+hIe8kcjmuXLgYChUvmVP7vfSpBvOvsQHKlvD2ziORGHHb2YWYC13ixZGIHdkypKUyqxYHl+U4jqXNiEdwz5aAV7CxDDm/FPmljXRuYFAmvwm+9u+CbZuxDKYDG2CrKYPd2vLt3trc6I+mEYD4KBOSk0Id2z9vqUWT+fx7y/jfrFGQymSCfTcv3wh46WVur/ELnhaEZKvFjtxN61Cdnw1rs9mxv7ogR+zhdIGz2oBVvxoxfXIwACAySon+Pctx4LihjUeSJ6eDMADU5NYJjgUlap3H8uu7rE10bjr/PvWo21BEpTj+b20wovj//uTH1lBrT90ufHtYuKQRgE68cDdWX17c6c8RO2i0YHvZ3AkwFuV1+vPS+eM/S22YPtm5/eTtesx+3H/t6c5kShk0Yc4hZFXZzqAcGKWGRO6cg1Gdy6B8oTt/ZuRQ9yKVAS6T9pqPbfFjY6g1KYDJY5xjaeuqLTiSe/6F5K6iDXMup2cy1jAkU7vllwSgotw53GLUYC2U8u433vNc4NpjbLfYUFfsvHIZ4tLT3FDaBKvZ2qVto3MPgzL5hcIgXIfXaizxU0tIzI1TqwGZc+zBqt+MfmxN9yfXOD98TbU1fmwJdWefr61ybkgkuHsGezvPREiy8++xdY9xkMvks6rj/FslDr04ryiCo6BOHQlV0hAoolNgqS6BOWsL6g9vQnNlwRnXq4xMhjppEBRxfSGLToHUbkNzURbMefvQmLkdzW2EXIlKC12/i4T7AoUzthUxadAPucLtsZaKQjTk7jvjtp+p4SN6IaVnFACgsLASv/9+AACg1apwx7zL0a9vAkJDdbDb7SgrM2L37hx88snPsFgsbvXExrSM883JKcbevZ7HoMbFhWPYMOdwlA0b9sJobHArN2PGGKhULX+6mzYdQW5uKVQqOW6+eRJGjuyNoCAtbDYbcnPLsGNHJj7/PKPdr/+a8cKxj5//3AQgoN31nKYNjcTwW/6KoPgUaCOioNYZYG5shMlYgZrSIhz/5Rtk/vpdu2ZEB+hDkDT2UsQNGo3w1HRoQiNQX1aM0mP7ULDjDxz7dbVfZlgPuO4OKFTClUGkLl861Ho9hs5Z4PY4c2MD9q/6tLOb12kM0QkI6dkXAGBprEf+zpbfu+DEFKRcdCXUIeFQBKhhqqmC8WQe8rdugLE436e6ZUoV4oeOQ3BSKtSGUCg1gZBK5WisKUfNyQJU52WhLOsQzA21HuuQq9SIHz7BsZ2/8zf0GHUZIvoMhEKjRfWJLORu2YCqguOQKVVIHns5ItIGQKnRo6asEPlbNqD0mG/vRcHxKQhL6Qt9fA/owqJgt9vRUF6MqrzjKDqwA/UVZ9YxsHStDAvmOLenjNHj9S/ObIXX2NhYDB8+3G3/b7/9hqqqKpFHdE/aUCVa9wkGpTrDcFOFGdrQU+9tEsAQ5+xtbjK6HAPQWG2CrQs6mANCAhCSqoMmWIUAgwIKnRzN9c2oL25CXUkD6kqa0FhhaledMqUMQYla6OO10CdoYDXbUJ1dj+oTtYIe9fZQ6RUwJLTUGRitganaDOPxWlTl1J71ihlnShelhiqoZT6IqdoMi9mOqPQgBPUMRFNlE8qP1aDsiBGwAZrwAIT3DUJwz0CYay2oya3HyR1lbh8bXEf5PKEfdjV00/7i8Xj9r/+DNDDUsY4yAJx8firsFs/Lw0lUWoTf9CIU8f09P7EdqFvzFoxbv/JYRBWbhrD5b3l/AZ6qt1pw8rnLz+ixZ+O99/6M1NSYljbY7Zg06XHceOMluP32SyHxsJaYxWLFggXvICvrpGPf4sUPITa2JSibzRZMmfKUx+e8/fbLcNNNlzi2//GP/2HLlqNu5davf8HRhszMk3j22WX45JO/Qi6XuZUFgMLCCtx77zuoqXEP3Z4cXRGAAO2p+ux2JE71/bGuZEoVrnj+IyQOH9fm5Di7Hfj9/57EgdWL26w3fcZtGH/f016XdauvqMCqe6/1OYy5unfDCUd7y44dwhd3TvX5sQs2nPDaLm9WLJiOkkO7z+zBftb/6rmIGzrWsZ3x+tPoefGViBkwQrS8zQ4c/fEL5G79xWOdYT16o9+1t0Ad1PZSaDa7DYe/+xz5O34TPa6LjMPYBU84thsry6AOCXerY/M7L2DQrHnQhke7tffgV5+gcN9Wj21QanQYcduDCIyI9ljGZgdyfv8Bmb+sbvM1icn9TuO42mM325B0zZmFnH/84x8YN26c2/4XXngBGzduPKM6z0Xjn+yY5R0BYPf7magr6bwJ5okXRSJ6aCgUgW33YVYdrcHhr/Jg9WHpOk14AAbc3BMKjfhnRMWRGhRuLcOAW3o69h36/AQqjnnuUQ/vF4S0GQkej2evKYRco0DCRc6rx3+8dKDTl9pLuy4R4X1bOnrqixuhCVMJxpwDwMltFSjZW4nB81PdHl91vBaHlucK7jHBoRfngZAr/+o1JAOA9uJboEq/xGsZV+qewxDz8JfeQzIASIDAK+5F+NyXfa67O7rttktxxx2XeQzJACCXyxAZGeTx+JmGJ2/UahU++OA+jyEZAGJjQ/HOO+49mJ7otFZnSAZQVn7mPQPXv/s9Eke0HZKBlp9PULz3dbPlKjVmvLkKF93vPSQDgDY0FHM+y0DKRb6HXH+TnEdvyb0mXeMxJAMtN3rsM/V6hPbs57GMITHVp5DcUp8U/a66AYNvuBtSads/x9Yh+XQdYxc86RaST7c3bdoNHuuL7jcMFz/0kteQfLqenhOmYvTd/2izjWJOFjtXSZEopYgJ8+9a+BeUTngPdxU1OMSnkAwAwb31GHZvb0GPt5iQFD2G3tnLY0gGgNA0PXpf4zn0tpZ4UaTXkAwAyVNiETUo2Oc6O4O21cTM02JGhIqGZKBlNZSQXsL5OBx60c2pk4dAPfwqwT6bsQzmrK2wmeqgTBoMeWxvAIBUpRWrwo1cF4qQm/4teFOw26wwZ26H9eQRQKmBIqEfFPHODzhlz6EIGns9qjd+4VaftaYcTfuFvUZSlRaKXiMd25aKAlhPHnN7rK3B/2NjJRKJoKfXbrejrs6EsjIj1GolQkP1UCr986cUF+dcvq2kpAqZmUWQyaRIT09EYKDzbnPR0SFIS4vDkSNtD8GZNLQagHMi38FsEwDPb7Ke9LvqJoQkpwj2VRXkoWDrr6grO4nAiFgEJ6YgtGdfqIN8W+Zq6osfI7r/YMG+hopKFB/cgdqSQoQk90Z0+kjIlS3tlcqASU+8gZxp62E1d02gyMlYC4VWeMe9+CFjHH9PzU1mFB/YIfrY+orOX4Gjq0T2GwIAsFksqC3JR315GQJDI6CPSxKUS7t8Bja+fdCnOk3GKpiqK1FbUYzmulpogsMQlJSCAJ3zC2pk2iCkXnINjq5f1WZ9pYf3wFRrRPzQcZC0WiKwobwUJYf3InbQKCh1LR+cClUA1CFhbjeFUQeHIn3WvNN3eW953XYbavJPoKY4HzKlCkGxiYIAbohOQNpl1+HIupU+vfbTdh1tREysc2jP5WNM+GT1+XUToI5UV9QIlc65/rsgiNqA5gaL6DG7xQaLSdj7aW/uuol9zXUWGPPr0VjehMaqJsiVUmhCAhA5JNgR/pR6Bfrfkoyt/z0kWodMLkXfWQmCLlFzvQWVB41oqDQhMEaD8L4GSORSqIJ8WyNfF6NFwoRIwb764kZUHquFpcmGoEQtgk8FTaXe/+vuN5Q24eSWMhhSdI6e5tPsFhuyfymBXC5B4sQox/7QXnqUH3FmDwblbs5wubCn0Jy5DWXLHheMzdQPmwbdtAd8rjP42kcFIdlWdgJli/4OS22FoJy292gYZv8TEmnLB4xm0jzU7voR1kbhOEFLbTnKV74g2KcIiUOES1Bu2r8e1b8u8rmNXe10T/KxY4V48MEP0dAgDF3XXTcWd9xxGRoa2jdurCPY7XZ8+OFPWLbsd8c+uVyGd9+9F8nJzj/+O++cggcf/LDN+hKihDfFKCxtxhkF5atvFGxvfOcl7Pn8PdGy8UPGYsw9T6LksOdhB5FpAxE/1GWZNTuw/X+vY9un/xWUU2p0uO7NVY6QLlfKcOmjr+KnZ+9p92s4Ez8+dafbvrt/zoFM3vI7VFdWjNUPzXErcz4yGauw6d0XBWOHw1P6YfBN9zlCpS4yFiqdHk0ikxyb6+tgs1hQcnQfjq1bicaqCrcyAJA0ehLSpsxybCeMmNBmUDYW5mDX8ncBAOa6GqRMdHY4WM1N+OOtZ2Cz2ZCzaS0mPrLQcSxu4BhkbhAOmxg8+25BSG6srsS2T//j1t6YQaPR/9q5kEpakkvC2EnI3rjW69jq1vJLzILt+HD/h5Fz2e4PMwXbQ+/qDU1EyxeLExuKkL+pzHFs/OMDHKHy0Jd5qMzq2sl8zQ0WNFSakf9HGapzxJ87e0Mx0m9Khi62pSNEqZUjrJcB5cfcO5Wih4UJelQbypuw95NMly8AFSjYWIaBt/eETOXbe3yPS4QT8Uv2VOHYt87hbQVb2h6W0ZX2Lz4Oc4MFRXsroY/pI/hCcHR1AcoOVgMAlDolooe3XL1yXWMb4NCLbk0VmwZZZA/HttVUh7LPHnObwFSz4zs07f3ZpzoDEvpD2XOIoM7i9+5xC8kAUH90M+p/etexLZHKYJg0r70vo9tYt24P7r77LbeQDAArV27E1KnPYPfu7C5v1+bNRwQhGWgZL/3MM8sE+6KjfbsMFt3qg7es0uKhpHeBkXGO/9us8BiSASB/10Z8Pn+K13Gbk59+R7AtFpIBwNxQiy/unIrmJmegSLnkCshVarey1HlsdriFZAAoyzqI2gLh34kuSvxDNW/7r/j5hfux94v3PYZkADixeT1qiwsd27KAAASKDJ9wVZ512PH/ooM7BcfqyosdYxTNDbWwNjv/BlQG4d9RRGp/6KPjHdvN5ib88cYzou09uWczcn5f49huGS5yo1s5b4pb/T1GhTIo+0omlzpCMgBUt1o/2TURGU8Ib0LSFXZ9kIn9i497DMkAYDVbceQr4TyvsP7uQ/6kUiB+vHB40f7/Zbv1kteXm3DoS9/mcQSGBcDgsmJIU3WzICSfVnawGgUuX0D8pbnOArPLFYPafOE5rT7hXPGkpsB5TKER9iEzKHdjmvSJgu2mnd95LFuT8ZlPderGC9+0jV8+B7vF7KE0YNz6Fawm5y+YKjHdp+fpbpqbLVi4sH2XSLvKq69+I7q/oKAMtbXOiSc6ncan+qJChG8SxVVnNkZZCuc8YamspUf4TBmi4qGPjnFsN1RWiobk06wWM3YvcZlAKgHih48/4+en9qvOOeKxp7Rw7zbBdmBYpGg5AIJJNd5UHD8s2DZEe+/Rcg3WrW8601gh/JC3mpx/Rwq18AtXz4unCbYPfb0YVi/vmZm/rEazyzAgfUz7et5KKoR/jxHBvDDsK0OSy5AoG1DrstpDUFKr9ZM7edLZ2TBV/397dx7mVHm2AfxOTvZZMpPZmWEYhmXYd1AWUcEF94XSqrVSq7jU1opLa5fPWmnFrrbUqlUsFhek1pVC0WJrkR0URbayD8vseyaT/eT7IzNJTnKyzJCZJMP9uy6ui5NzkryE5OTJe573eRxwdvjTQHRZmpBj0gv0UOn8s8Stx8xwdMify1uOt0keLxxTRaZku2pn+B+v1bvC7+sr1lbp59DWGvAjUwScFv/rYQ+s0hEUGfMTlsKE7GLJdvuuNWGPdTSchGhpgTIt/GIzAFDnSk/aamMe1DJl2wAAnZcPYbMAOu8JSGEqlj82xf1j7U64XMlXeN5mc6ChIfzsQ3u7FRkZ3i92rTa2mSe9VnqWsFp79oVhrquGNtN/Yr30p8/iH4/c2qM2zYVjgxaFeYBJN90Dhcyira5UIH1WjuT2QVMuxPFNH3b7ualn6o+FVmzpYg0qj5aWEz5QDqRUKqHPzkN6QTHScgohBOQVBzZ1AQC1IfKajMDgF/DOgHelTzid0qtGbrf/S1Stlf7g1Bul7zOdKQ+DZ83z3xCw6lTRmdPmcToAjXdmU5fRvTbU5qDPo06rBND94lXPPfccPvkktHTk559/3u3HShVZg/3vidag1tRZ5f59LcdjT4XpTYJKCZ1RBW2WDiq99FznrR7hff+rdKHnQW22NHiu3dsS8bka97agcFpOxGP02dJc+Pr94csI2lodsDbaoc9JXP682yb9zhad/s+OJ+gHuOiQbgsqpe/HEgPlFKbKln65OFvrIh4vmhuiBsqKDOkHJePah7s1JoWggspghCsJFuHF0+7PjiZ6CLKilXxrb/fnTCuVsS3ZbmiVnlxyTT27tHt4wzvIHfqob9tYVIyvv/ofWFtaUXdoDyq3foQTW/4Fc+2ZCI/iFTwbbcgxYfo9j4Y5Wl7u8PiViaLoLBH+XztamyTbgibyl2nhqMkYcdmN0GVH/iIPpFRHrgbgdASX+RLRNZXktksDZY/b/5lQ6aQzyqqgGeaKS66LeYwAoBAE6DKyYDNHDmS6FAZ9HhvbXOjJGoLm5mbZQLk/yy73/3BvPiINhgO79QWmZPQ1QSOgeGoOimfkSWaEI1EKoYFy8CyzI8qVQUtL+KsgXTRBwbc9Sq1kW3NiA2XRKf0B6QwIlN0u6T4xaFupF+A2M1BOecoMf9kkj9sVtbmCp60RKBwadr9CpQVUZ5/vptDqgX4WKMdSLSIRAlMr4qU6qBxcQQ8v7X72xvMYcfUtyC6RXqXQZxkxaNoFGDTtAsz+3uOwtXegctN6fPSb78Pjks+Hzh5c0aMxBBI0oZcnqfd0NEfIUfTEdpVCUGlwwXd+2q0AuYtCJngI5HZKAwOF6PHFmx6n9DMgSrpM+H9wqrR6KFVn/zWq0umBGAPlApM0eKpr6lmgfK4JzU/2B8qGPJ1k0VtLAvKTASBnWCZGfbWs20mxCpnjtVnSANVhiRwIO9ujp9jpjP74wG2PfoXV0Z7Yq7CiWxr8Ktxi2H3uoFNS4LwSA+UUplB1r1Oaxx45qFJlBtUrddphP7ilu8OCaOt/bVUjpTckkijGv19QVVAOZO5Z5EC+fttFmPvo7zB87vVQhvku16UbUDHvRpTOuBRv3XWlbIMQbVAaRcPxI7A2dW+xSNXu7r+Xqec8nrN/b06/50chQbLH7Ya9rQV2ixlOq8XbqQaAwZQPQ1D6RU95glIZFGFSG4JrPIsuFxorD8seG4nDEntgFrx4r6reCYDl4QLpTDpMuXuobGpWlwl3BNTRDTpsxg+k/QM++UXvd4fNKNTLBsmWGitsLU4425xwBcx6Fk3OjlipQqWX7nM7I38eRXv0H6+xVsbwPWcMwXQqYKCcwkRrO5TqzhNkLN0sDJkRdztbpKkborUdDW/9vKfD6zfi8YUfC7U6OT6OXx6WBsojSrXoSQ4kAEAU8dGTD+Cjpx7CyHkLMHjWPOQPH420nLyQ4v36zAxc+eQKrPrWJSEP015zCnkBNZn3v/9qSrd7puhyB1cgPc9f3lD0AMc/XoujG9cFzfB6DZ55GSouu7EvhwhLvXQRoOi049OVf+jV5xw9WDpBcvCEDUC6/MHnKKWgkG00IT2oh/t6SenFhZLnbT5qxpG1Z2BrlZ8Jzh2ZGTFwtQelUij1KiBCqoQqQkOSLi6zA2qDN9VIKUSPOTQxPGYqYNWLFCaa/YGtQikAysiBliozyuVL0Q0xIG9PqefJN54idfUDgMLCyPnjfWXXgVxvVNKpojQOs1WiGwfWvYF1P/omXv7KVDx/6XBsXPYzOMzSqw+m8qEwFg4MuXvjEWlDioyCPlw02hstFSmqspmXSbYPf/QeDn+8RjZIBvr4PdFJFN2S0nG+iYteNLI8IFD2ePDh9txef07qXYJKCdNQf9UNa5Md+984HjZIBgCdMXIqmSPovrr0yGmVgU1ZwrG1+ANthUoZNYJURxljqkiOKSzqEbGpFige6dvWDhgG++kD4e9gjOGyZGstkFfm/btaC0FjgNsRecEYhRdYczlSm2kAEdtf97WqGgcGDPB+6Qt6AWl6ERZr/H5Xu10OfPn2Cnz57kosfGMr0vP9782iceeFpF8ENyLJHjQ8bmORI7r9vzs16ZGvxCTC17/+dQwfLn0NbDYbli5dmqARxZ/BJD1fHd/8QcTj0/MTU3HHYWnzpWAoVSqo9Hq4rPFfOwAAKpUHhnT/eaSl2RWSWxmrefPmYc4caYlRt9uNpUuXoq0tOVPNYmVrtGLLL/0/rpVaJc5/wP9d+flLR9HR4F3onF6ow7iFQ3z7tv92f8hCr96mD1p4V/9lS8QlR9pMddQgNTCoBQBDrhZNEdak6/Oj15m3tjgQWEXckKNHR33493oiF/LFE2eUU5ijXlpmK+P8r4Q9Nm3oVCg10T8IzhrpYxovuaNngyMAobnNhYXyTT9UKgFDhw6Q3ZcIm7+QzvReMb2XFmd2zjQHSi8KnVGuDmr5POj8C6EzmkKOixdnh///zWBMvhm7a665BlOnTpX8mTVrVqKHFVeBLaVFjxhxsXJabiEyi0rC7u9N7UGl7kZfc2uvPddFExslVzh27Ov5JMakSZMwZswYyZ/x48dj7NjUr4Uvit7GHF1/Mov8330elwhzlcW/r8Rf7cJaa4WjwyW5r9vR+3m2CpX0qpUzSr5w6QXRyylamqQzygWTwp8vBZUS+aOilynsaJBWgymK8JhZA9OhSesfc7EMlFNY+873JamjmpGzIOjlZ7/S534rpsds3fCi5DH1U6+HKjOGQEEpIGPC5RA0sTW1OFdU10jLYN1xx+Wyx91++yVRZ5z70gvvSmcjbrsytq5+gQpHTYagin7pLX/URMl2e11oWTG7uRVndu/0bSsUwGWPPRPTOPKGjkbFpfNjOraLpcGf1qQ2aFE69cJu3Z/OniVgsaZSoYSpfETYYycsSFxH0INr3wjMVELBqMlIM+WFv0MnpVJA+YxLodLHfs5cdL00fe6l9xLf1CEVmAb70xqCK1pkD/PvazyamGoXwQGoqTx8DXB9jg6FEQLULrYmGywBDVUMuVpkDJB/3ILJOTFFg3X7WrxVFLvuNz4rbJ508azon4FUwUA5hbmtbbDt/69vWyGokPfdl6EKrJWsVCL/liehKortUrWztRYd2wM60CmA/Adeh/E8+UUyamMBcq59CAN+vA6Z138fuvKed1/rj7ZtPSjZnjNnLObNmyy57c47L8fNNydXIHboZDoaav0zEuNHGhCl2laI6//wJu764BCu+c1ryBs6RvaYqd+4H4OmBXTM83hzUeWsf/xuBKanDpw8A7eu2oysksGhByuVGDf/Diz82w58dflazPrOT7s19sP/lo7hqqV/xdgbb4felAtBpYGg0kARh7JgFJ75zEnJ9sSb7kFGgXTWWGPIwOzv/RwZhYmZTQYAS2Mtar70dxpUKoCZ9/8Mw+ZcK3t8Wk4BJt58Dy79yTIMv3w+CrvRsfL88f5Ap73FhW37YmvUcq4zDvWvt2k65r9aplQCxoAZ5eajiWk04naJks542UMzUTItNNDMHW7ElHtiTzur/Fh6tWP8wsHIKJReWS4Yl40hl0Vu9+4bp92NmoCOe4JWwMQ7h0IV1PJ5+DUDJTnXqY5n+hTX9uGfoRvtD7IEgxEFj7wFd0sdFEoBivQsX6eyWDV/+AJ0E+dBqfWeQBRKAelX3Ie0y+6GaG6Ex+WAQqWBkG6KS93l/mzXriNobjYjO9t70lAoFPj+9+fjO9+9GtYOO4zGtKSaSQ70zNsNePzeznQQpQILr27FX97vRhcxhQJKASidMhOly/8Bt8sDe1szLA01ELR6ZBQWQ62Vzjif/mwr3A677MPZWpuw+/VnMfkb3/bd1tXExGlzwNbaDEGlhjotHWrd2S0i2fXqHzH+pnuhS/fO9ilVwOz7f4rZ90sD7rU/vAMntn50Vs9F8k5sXo9B0y/21SlWa3WY+e2fwNbcCNHjgVqnh6BPQ4x9dHrV3ndXomDEeF/jFKVCiSEXXonyWZfDaeuA6HJ585fPou7ygjnNgOAP6lasbQIQufsgeRt46E3+XNnWgGA4vUAvmS5sO5W49TgnN9VJAtbBlxeheHouLNVWCOkq6LI03U5laDzcBluzA7rORiEKlRITFg2DrdkBl80NrVEDdTcrU5zYUifp4Kc3aTH9oVFor7ZCKSihN6mjVxxJMf3rX3MOcrbWoumVH8ATtBJcyMqHMjPHFyR7RDdcp/fH9qCiC3W//wacldLakQpBBSGrAKrcgRCyChgkx2j58n+F3GbQa5GTk+kLkjusdrz73ra+HlpEf33fCAQUZV90bfebPgQSVAoYTCbkDR8F06DBIUGyua4O7z0SOb9z20u/wuZnfo7gwgdqnQYZBQUw5JjOOkju8sH/3QlXlPzE4AVnfcVgCL1c73BE76yVSuxWC/b/47WQ23XZOTCYcqE2+INk0QOc3r21j0foJ7pd2LjsMZhrpGlDCkGAJi0DOmM2NGkZZ9Wc5N6vBKTAeTxY9kb0NScEZJf5Z5PddjcsDf5upVlD/amKlhorxJ6ujIyDqu31MJ+RBuqaTDWyKzKRIr8tpgAAFI9JREFUWWyQBMnNR81oPR1bv4LP/3oU1ibp5IMuW4P0Ir0kSK75rCn4rrKcZie+ePlYZwttv/QiPQz5Wl+Q7HGJaDyY2otCuzBQ7gesR3eh4dlFcIfphic6rGhe8SCcNcdifky3tRV1Kxaj7e2lkpJxcjyiG46jn6Ht70/CcmhnxGPDPkaUZih9zW6X7xDXE//85y4sWbIa7jAnYbO5A3ff9Qzag7rstXfIz6z2VHebk4gAVrzrv8w2oFiLaaNjb/Lx5Vsvoa26KmoJZqfdgZ0vL8PKm85HSAQs4/O/L8fKr56H+mNHoj62va0NBz98F+8/dHPM4+5yevcWrLhhAk7u2gxba1uPS0kHc9vO7r1eUVEBlUzA9d578ikrqSDcVYTTu7di58o/wtkRPihwdliw86XfoGrPdulj2iLPDroctoj7w/G45H+Q2M2t2PzcEhxc/6akZJwc0SOirfoUDqz7G6r2RD9njh5sxpCA+snvbmiBw3V2X99OZ/RObP1B+gD/D4q2Sul7InOA/wdncwLbVnfZ8/KRkHSJQB6XiMqPa7H39eMQbf5zpdsZPsB3mp3Y/efDaD4kn1bicYk48v5p1O+JrTMkALSdaseu5w6FBOC+52x34fMVR2Gp69lnLF7ECK9LNB6H/4SvKC0t7ZM6KOXl5QC85WcqKyv74inPSSqDEfryKVCaCgG7FR0HN8PZGv6DFytBY4C6eDh0AyqAzlqh7qYqOBpPw159KGr7bAK0WhWmTBmOiZPKoRKUcDjc2LXzEHbs7H4nr76iBHDkbR2Ezi5PJ0/acMHd3VwFrhQwaMoFyCkfgcyiQQAAhVKB5sojqDuyF1V7dpzV+yevfCSKJ82EqawCouiCtaURzSeOoHrfTphrQxcGprp7770X11xzjeQ2u92O+fPnQ+zHn0PToGHIGjQMGYXF8LjdsDU3ovbAbrRWn4x+5wRQ6fUwlVXANHCot326B7A01qCtrgotJw516//qX88oMXxIZ8DnFDHsRstZB8qUvFQ6JTLyDTAUaKE2qOHscMLa5ETT8TbJYrruUgpKZA4wIK1QC5dDRPsZq2SGvWdjVcE40ABNhhpupwfNJ8xwmvvXjzAGykQU0U2XNeOXi/2Lpb728DEuIkqgF154ASUl0sVrr7zyClatWpWgEVFvGjOkFWuf8ZeO/OXyajz7VvLV9ibqr/iTlIgieuPDbFSesgMuEXCJ+OqlydMY5VxUVCRdoW61Whkk92PfWWDwffbqahwMkon6GKteEFFUs+9yAejKu+wf3ZZS0ejRoyEI0lXqr776aoJGQ33hnqfUAJJrDQfRuYQzykREKeLiiy+WbFssFrzzzjsJGg0RUf/HGWUiohRRX1+PmpoaAIAoinj99dcTPCIiov6Ni/mIiIiIiGQw9YKIiIiISAYDZSIiIiIiGQyUiYiIiIhkMFAmIiIiIpLBQJmIiIiISAYDZSIiIiIiGQyUiYiIiIhkMFAmIiIiIpLBznwpiM1biIiIiHofZ5SJiIiIiGQwUCYiIiIiksFAmYiIiIhIBgNlIiIiIiIZDJSJiIiIiGQwUCYiIiIiksFAmYiIiIhIBusoExGFMWxgO66a4f17daMTqzdkJ3ZAFFcLr2pFdroAAHhpjQ7mDn4lEpEUzwpERGG8sSQbuQUaAEBdjQOrNzgTPCKKF0EJPHFvESAoAAATR7Zh4eOJHRMRJR8GykT9hEol4A9/uMu3vWrVf7Fp0/4Ejii13TKvGbkFJb7th5adAZDfo8cqykzDkutm+bZdogf3vPbh2Q7xnBSv19ItAivebcTt83MBABdNy8CwgXU4fCo9bmMlotTHQJmonxAEBUaOHOjbnjdvMgPlHlIC+PldRb7tqio7Nu7uWZAMAEVZ6SjNyYzDyCier+WSv+hx+7UioFYCCgVe+JERF9/rjstjE1H/wMV8RNTrRowowWuvPez7c+GFYxM9pIgeu9MKQS/4thf/7kwCR0O9xS0Cf3670bddXqbDxZPqEzgiIko2DJSJqNfl5GSiqMjk+1NSkpvoIUV025X+RXutTU5s21eQwNFQb/rVq3rA4/Ft/9+dhQkcDRElGwbKRP2E2+1BY2MbWlstaG214NSphkQPKSVdO7tRMpu8ekNLAkdDvc3lUuDLg1bf9pDBOuRmORI4IiJKJsxRJuonXC43Fix4KtHDSHkP3RKQi+zxYNnftIkbDPWJP71Zj+cfG+Tb/vG3gMW/S+CAiChpcEaZiKiTKdOJskE63/bJU3aYLUKEe1B/8M+tuYBD9G1fN9uYwNEQUTLhjDJRpzHjyjB2dKlve/XqTVAqlZg9ewxmzx6FUaMGwul0Y/+BM9i+/SA2/ncPHI7YV8hfddUUZGYaAAC7dx/DwYOnAQClpXn41rcuRVlZAYxGA6xWO2prW7Fhw26sXbsr7ONNnFiOnNzwX+jHjlbh2LHamMZ2440zoNV6TwdbthxEZWUdtFoVbrttLs47rwJZWWkQRRGVlfXYteswVq/+JOxj5ednYe7ccZLbysqkeZ8TJpRDFOVfu+3b/xfzuOPt+os6AGT5tv/zaTsAfULGIkejEjBnhP89uunwGbTbvWkCowfk4IYJQzEg2wijVo1mqx0nm9rw1u7DOFrXLHkcg0aFaWX+qh6bjp6Byy0inGllRTBovO+P+vYO7KtqDDmmNDsDo4q9ueftNgc2HfEugByan4UFkypQajIiU6dGTVs79lc1Yf2BEzjTbO7hKxF/+47bMLrC+/kUtEoMLLDhVK0uyr2IqL9joEzU6ZabLsT551f4tj/6aA9efPG7yMiQBkpFRSbMnTMW9913Fe6+6xnU1cWWw3r//ddCrfZ+5Gprm3Hzzb/GU099E9OmDZccZzSmobDQhPHjB+PORfNww/U/l328X/7ydqhU4Wc7t2w5gJ/85JWYxnbffVdBofA2XrjoonF44olVWLHigZDHz801YvLkobj66mm4777n0NbWEfJYkyYNwaJF8yI+3+TJQzB58hDZfUZjOp5/fl1M4463K6ZLy46t39aGZAqUswxaPHjJFN/2wKwMvLZzP36/YA7Kgn405WUaMLwgG5eMHIR/HzyJp9Zv9+0rycrAj64837f93H8/xzu7D4d93h9feR70GjUAoLKxDYte+SDkmDmjynDL1BG+7Vv/shbzJw7HDROHhYxrbEk+vja1Ak+t34l//68yxn9979r2pcUXKAPAV+a48PSqBA6IiJICUy+Iwli+PDRIDmTMNOCVVx7EqFGlYY+J5E9/ujckSA6WGeH5e4ter8WLL343YhBeXJyD5577dh+Oqm+MGxbwens82LYnuatd6LQq/HXhFSFBcrCheVkR9yugiOewAABfnTIiJEiWPqkCj14xDaOKcuL+3D2xfptFsn3ptIwEjYSIkglnlInCSE/3Bk0ulxt7957EyZO1GD68GBUVJb7ZV7VahSVLvo7585d267Hz87NQUOAvQebxeNDc3I7GRjNMpnRkZaVDECL/jt29+xgyMv2BnaBUYtiwAd0ah5ySEn/gUlvbjMOHqyEISowdO8j3mgDemfURI0p8KSRdtm8/hB07DknGP2CAtyxcl+rqJlRVNck+/xdfHD/rf0NP6dL8Pw7aW90In4yQHK4cXQ5B6Q9yHU4XTrdYYLHbUWTMQG66DlDEPwiOxbXjhvjG9MWZBpxqMqPUlIkpZdIfH3fOGosH3/w4ASOU2rEvz1smrvP1GjJQC8CW2EERUcIxUCaKoKPDhoULn0Zjoz+XcsyYQXj66UW+QDA7OwMzZ47C5s2xd8FTBAQva9Zsx9NPvyfZr1KpsHjxdZgzJ3xjjh/8YIVkW6tV4Z//fCLmMUTi8XiwfPkHWLVqY8CYBDz//H0oL/fnG9911zw8+OByyX2bm8149NGXJbfNnDkKS5bc6ttet+5TvPbaf+Iy1njxlgRL8223tMevQ9vBmkb85B3/a9lktcflcbuCZKfLjSVrt2Lb8WrJ/iyDFovnToHRkJjKHaeazPje6n/78qgBby710wsu9gWkY4rzkKHVwGyPrSRbb72WAACnB9B4x6XT8YIrETFQJopo0aI/SoJkANi7txLLlq3B4sXX+W67554ruhUod3nssVdl20y7XC78+tdv4de/fqv7g46DrVsPSoJk75jcePzxVVi5crHvtqKi7OC7pqyyojYAAY1G4hgodzhc2FHZOwsUHU4Xbl2xDi0doQFjS4cdP12zuVeeNyqPB99dvQEddpfk5n1VjdhxvAbTyv2LCUtzMmQXCMrpzdfS5vRAp+ncYJxMROCpgCis6uomVFc3y+5bu3Y7XC5/IFVc3P08y2PHamSD5GTw+9+/J3v76dP1MJv9zRkyMgyyx6Wi0gLp6bDZHL9AuTet3HZANkhOtI2HT4UEyV02HJQu4CsyJkc+sMUakGyjUECvTfbkGyLqbQyUicLYsOHzsPtEEfjf/6S5ud2dXf3tb9/u0bh6m83mQENDW9j97e3+QFmrVffFkPpEmkF6OrTZkz9Icrrc+PunhxI9DFm7TtaF3VfTKl04V5SVFubIvuVyeSTbaXr5QJ+Izh0MlInCqKyM3AK6plYaTA4ZUhTmyFAejwcHDpyOfmACyJV8C9Te7l/gpFQmZqFYb6iqlwZFxozkbzRS09YBMUmXHFY1t4fd12SVLpIzqJPjB5dBK30/N7RowhxJROcKBspEYZw5EzlQbqiX1k8eNCj2UmIOh7NHY+oLgakV55Lg5hLZKREoW6IflCD15vA/uERP2F0JZQhcwOdJ0kESUZ9ioEwURmtr5CDEHdTJLCc39jzLwFnZZCMmaxTTyyprpPnWmYbkD5SrorxHE8mN1HsfCWr/jLLHmXrjJ6L4Y6BMFEZufuQmDjq99HJxTZiFf3ICFwJScrA7lJKpzjxT8hcFcrn6JodWSFAt5r5kynQCKv9XYlMbP6NExECZKKyBxbkR9+cHdTs7cbymN4dDfaCq2l/LV6FRIseYvCky8aSKkmuuUSf/j4azNW+GNKd65/7kna0nor7DQJkojJEjSyLuHzhQGkgfPsJAOZzgdA6NJjnTGjbtkQZHV87sn8FSi01aTi4vM3zVCZOh79uoJ8LcydLUqTWfhK/8QkTnDgbKRGFcdFH4rnhpaVqUlub5tr0tqM1hjz/XVQU1kygq6n7d6b7wzsfSBZpzpyZHfd94awiqbFJsDB8oXz66rJdHkxzGVwT8IPB4sH6bKfzBRHTOYKBMFEZ6uh4XXigfLN999xWSNtT79p3qq2GlpFOnpBVEJkwoS8xAotiypwBw+Bdpzh6fHPV9402EtwZzl4mlBdCoQmf5BSVw09SKPhxZYpiMTuTl+UvBVVU54HL1/7xsIoqOgTJRBI89dhNmzRoluW3hwrm4+uppktuefvqdvhxWyhFFEQ6Hf+FZbq4Rv/jFbcjJSb4Z2/c2tvr+LugFzJoQvnFGKjvZ5M/JFZQK/Gr+hdAFBMvZBi1e/uZV0GuSo8Zxb3rga9JFkb9/oz5BIyGiZNP/V2gQnQWFQoEnnrgVNpsDdrsTBoMW6qCFTceO1eD48do+G1NJSR6ef/7bIc0+ggsTTJ8+AuvWPR5y//37T+Hhh1/qxRHK+8faHbjxhhm+7enTR+DNN38Ij8cjKbX36qv/wcqV/+7z8XX5xQrgukv82w98LQ+bwjdpTFkvb/kSS66f5dseVZSDd759A+rNHdCrBRgNugj37l/mX+xfmOtxiFi9oXtdNomo/+KMMlEY+/ef9P1dp9PAaEwLCZLPnGnE/ff/uU/HVVJigsGghU6nkfzRaqVdxBQKRcgxOp0GeXmRy971lmf/tE42j1uhUEClEnx/DAkO0GqbNDh2wl/neuoYA1Sq/ldTd/uJalS1SCs9CEoFCo1pkiD5xU/2wJrEDXLO1pghrUjP8n+u3/lva4Sjiehcw0CZKIxHHlmBL744Dk+YDl07dx7GwoW/RUeHXXZ/MGc/rJ3cneYkoihiwYKl+NvfNqG2thkul1v2tbVaY3s9e9MjywKuEKiUePzOxI8JAGzO+L6H7nzlA+w6EeZqiMeD13cexJuf/k9ys70X3scdzsQF4r97IGD2WPTgsT8nZ0UWIkoMRWlpaZ9MlZSXlwMA3G43Kisr++Ip+y2+lr3jyScX4vzz/QuXrrrqZ7Ba7VCpBMyYMRLjxpdBdHvw6a4j+PSzI2wa0s+t+S0wblTnYj63B8Oub4fD1T/nFgozDRhTnI+8dD3StWqcajFj46FT6HD0TUOTRBkzpBVrnxng217xVgMeX35ulMMjotgwR5koCpfLjY0b92Ljxr2JHgr1oUVL7di+0uBN/hYU+NndDvzwT/0zb7emrQM1bScSPYw+94fF/tlkt9WNJxgkE1GQ/jk9QkR0lmoatHhzfTPgEgGXiFnj+mepuHNVRpobQ0u1vv/fHzxTDTH63YjoHMMZZSKiMB5epsXDy6yJHgb1ArNFwKBrA/9vWemCiEJxRpmIiIiISAYDZSIiIiIiGQyUicJwu/v3in8iIiKKjDnKRJ2efXYd1qzZAQBoaTHD4WD5NyIionMZA2WiTqdP1+P06fpED4OIiIiSBFMviIiIiIhkMFAmIiIiIpLBQJmIiIiISAYDZSIiIiIiGQyUiYiIiIhkMFAmIiIiIpLB8nAp6NixY4keAhEREVG/xxllIiIiIiIZDJSJiIiIiGQwUCYiIiIiksFAmYiIiIhIBgNlIiIiIiIZDJSJiIiIiGQwUCYiIiIiksFAmYiIiIhIBgNlIiIiIiIZDJSJiIiIiGQwUCYiIiIiksFAmYiIiIhIBgNlIiIiIiIZDJSJiIiIiGQwUCYiIiIiksFAmYiIiIhIBgNlIiIiIiIZDJSJiIiIiGQwUCYiIiIiksFAmYiIiIhIBgNlIiIiIiIZDJSJiIiIiGQwUCYiIiIiksFAmYiIiIhIBgNlIiIiIiIZDJSJiIiIiGQwUCYiIiIiksFAmYiIiIhIBgNlIiIiIiIZDJSJiIiIiGQwUCYiIiIiksFAmYiIiIhIxv8D3PbE/kmb9+4AAAAASUVORK5CYII=;" vertex="1" parent="1">
          <mxGeometry x="-300" y="500" width="269.1" height="150" as="geometry" />
        </mxCell>
        <mxCell id="SPbcS3pj2Kl96PpT9U_s-17" value="" style="shape=flexArrow;endArrow=classic;html=1;rounded=0;fontColor=#330066;" edge="1" parent="1">
          <mxGeometry width="50" height="50" relative="1" as="geometry">
            <mxPoint x="-20" y="570" as="sourcePoint" />
            <mxPoint x="60" y="570" as="targetPoint" />
          </mxGeometry>
        </mxCell>
        <mxCell id="SPbcS3pj2Kl96PpT9U_s-18" value="" style="endArrow=none;dashed=1;html=1;dashPattern=1 3;strokeWidth=2;rounded=0;fontColor=#330066;fillColor=#e1d5e7;strokeColor=#9673a6;" edge="1" parent="1">
          <mxGeometry width="50" height="50" relative="1" as="geometry">
            <mxPoint x="120" y="750" as="sourcePoint" />
            <mxPoint x="340" y="840" as="targetPoint" />
            <Array as="points">
              <mxPoint x="120" y="840" />
            </Array>
          </mxGeometry>
        </mxCell>
        <mxCell id="SPbcS3pj2Kl96PpT9U_s-19" value="add method by def a function:&amp;nbsp;&lt;font color=&quot;#4c0099&quot;&gt;def run(self)&lt;/font&gt;" style="rounded=0;whiteSpace=wrap;html=1;" vertex="1" parent="1">
          <mxGeometry x="340" y="820" width="220" height="60" as="geometry" />
        </mxCell>
        <mxCell id="SPbcS3pj2Kl96PpT9U_s-21" value="class part 1" style="text;strokeColor=none;fillColor=none;html=1;fontSize=24;fontStyle=1;verticalAlign=middle;align=center;fontColor=#330066;" vertex="1" parent="1">
          <mxGeometry x="-220" y="650" width="100" height="40" as="geometry" />
        </mxCell>
        <mxCell id="SPbcS3pj2Kl96PpT9U_s-22" value="" style="shape=image;verticalLabelPosition=bottom;labelBackgroundColor=default;verticalAlign=top;aspect=fixed;imageAspect=0;image=data:image/png,iVBORw0KGgoAAAANSUhEUgAAA1gAAAEOCAYAAACU17ZrAAAACXBIWXMAABYlAAAWJQFJUiTwAAAgAElEQVR4nOydd3hTR9aHX0mWu9yt64ZxAYNpIfQaCOkh1BSSkIS0TdlNT770Xjabnt1k08umwC6EdFJJAZIQINTQwYAxxva13LstS/r+kC3pqllyN8z7PH5gRqO5R7pX985v5pwzKkmSLAgEAoFAIBAIBAKBoMOoe9oAgUAgEAgEAoFAIDhWEAJLIBAIBAKBQCAQCDoJIbAEAoFAIBAIBAKBoJMQAksgEAgEAoFAIBAIOgkhsAQCgUAgEAgEAoGgkxACSyAQCAQCgUAgEAg6iYCeNkAgEAgEAoGgK+inL2PmGCMAR8vgy3VSD1skEAjaS3CgictPLQGgvB6W/tx7f89CYAkEAoFAIDgm+e5RIzHJ1v8b8uHLdT1rj0AgaD/pCSU8fL29XFMr89WG3imyjluBlTbnClKuus9zA5OJdZeMobm2uvuMEgj6CKa4SEr+fo3XNiHPLyNiz+FuskjgL+YgLepGo29tYyMx/N+FtnL0S58QeNTQVaYJBJ3C3MmyTVwBXPFC+/ua1E/PlSP628rbDVX8c8PeDlinRIWKQI2KRpO5w31NS5eYkaoHoLi2kX9v3NfhPruDGRkJzM+ynrDKRiP3/7wdC5Yes+eqEzOZmBRjKy/dfYSVB4t6zB4B7M6TyNknMyDLWn77Vki8iB68Sjxz3Aqs4KQ0AqPDvbbRBocKgdWL0KUMIO2Ku9AEB9vq9r94N7WGoz1oVe9HvnImJMR4btBghMOFcLCQ+EOFqCvavuZNQYEgRXltU58YIwRWb0GtRj5pBJw5HjISIUhrf622EQwV8O164n/a7FZ0GUODIDvVVi7PTkUSAkvQi1EBr91gLxccho372j/TPSQ+goExOltZq+lYCLsuSMusgcmclZlAUngIAWoVABaLmarGZnKr6vjvrnzWHTH4LTLGJ0YzPTXeVu4rAisrRsfw+EhbWatR0WTquaHz1JQ40qPCbOXMGN1xJ7BSByVzxhXTFXVfvbaSgtzidvc5cfZYhk3KUtS9efdin99/5Yuw5pWWQjjcvUDmyaW9bxXruBVYgr5D1KARZN3xL8IHD3Z5LXTpv4XAaoszxyoH1G4ZDoABYM8RYl9YRkBRWVdbJugGyof2p+meS0AX6r5BWBCESXDdbAzXziLw3reI3pXbrTYKOpfmhBhKbzvfVg59+xt0e/N60KLu5+4FMjjMoV7xfM/Z4sy8wf24YfQAm6hyRKVSExkcyAnBgZygj6Kp2cQ5y37plJUtgcAfVCoVCx88l+CwQEV9dGJ0uwVWjBTFmZefBG6ufV/Zd0Ri726ZQdnW8s0XwnOfmGgyatrdZ1dw3AqsnLefJPd/LyvqBlz3MPqzz+0hiwTOxI+aQtZtLxLUP6WnTTm+GNyP0tdvh9e+QPpmvdsmgQUlxF/8uKKuMi2Bpr9f3R0WCnxEnjQC7lrg+xtUKpqiIrrOIEG3YAwLgUH2Fcc6fSS6zvNm6xPcPNf+/xoDbDvYO2a475qUzdmZiT63DwzQoFGrQQgsQTcz69pTXcRVR7ns4fM7JK5auf0tWPFcSyEAbp5bwjMf9Y7feCvHrcBqbmqgualBUWepr+khawTOTPnfVgKTE3rajGMTR3cRbYDVfTA2AgKcXF6um41xaw7awlLXPiwW1LX1iqrQ2nqausBcQfuoGtjPVVxZLLDlAGzZR+j+o9QlRMOQdJiY7XmFSyDoY5w6Srl69drXPWeLI5cOT3MRV7XGZn4/WsofheUcrapjYIyOE6QopqTEuV3h8oUdhmpG6q33Z5OlN0anCHo7cUkxjD59RKf2OXHWGKITI9tu6AMb90lQJ0PLY+vmOfDMR53Sdadx3AosQe8mKCnBxeu8ubQKdXgE6qAeMenYwGJBeuw912qNmuIFp8CC6Yr6skeuRLrmmW4yTtCZ1P9tjrKi0Uj0rf9WJKfQ7c6Fn7fAKyrkOZPh0jPA3Ny9hgoEncyjlzgULPDvFbE9ZksrwQEaLh+Rrqg7Ul3PVV+tp9FoX53aXlzBJ3uOEKoN4NZxWZyekYAJ/1avvt5/lK/3C9d5Qfu57KHzOmWlqZWQ8GDOWDSt0/oDWL4azjvL+v+ASBiXLbNhd+9ZxRIbDQt6PY1FJey88zLWzM2ift/2njbnmERlMiMtWQlvO031SlFYgjvXRUDQ9dRnJkO6w0x5o5G4v77gOfOfxYL02a9Ilz6BtH539xgpEHQButAmMgbay3kHob6h5+eSLxrWX7Eidaiilsu/VIorR+qMzTzx2y5mLvvFYxuBoCuYMnc8kZLVVdzcbCJvZ8fF+sL7zkUVYL3+DXnlNNZ13N/lqeXK2PJHLu5wl51Kz991fKD/rEWo1FYtWLl3C+V7thKWkErijPnETpmJNjGVutw9VK7/AXnNl9QU5PacsSoV0tiTiZ8+j6CkNILikwgI09FgKKBu7xYqtq+jfPOvbSZmSD3rYtSB1qWahnIDRWtW+HT4uOHjCM8YCkBzQx353y312j40PpH4sTOIHDWV0KyRaMMjqT28j6qtv1Ky7jsq9v7p03EBAgKDSTnrIls5/8flNNdYM9LFj5hAysW3EJySiTY8ksbKUhry9pP33jOU57iKJjPQdDiffc/ejGHrbz7bIOgY0he/IS84GcJDbHXVaYndmg2wOSGG0knDIEUPUjTE6KCqDvYdgX15xBwoQFvgxm3RAXncEAiw3t6CqmqJ2nHAp2M3pCdSmdiSfauxAWmT9+xb5sgwDIP6w5D+MDjV6mZ3oAB25RK14xBB+X4EAgdokMcNtRX1m/egarA+hOrSk6ieOQH66SEiFMqq4bBMzIq1aAtKXLqqun62suLzX9GUVLZtQ11D220csOhCKT5nEgxJhbgoqKyF3YcJWbuTiP1HfOtEpaI6qx91owdBYiwkRFuvP7kc9lrPeXxOAepK/1y4i08YiCXMeh3HHsy3JW0xR+kwzJkMmckQHwk19XDEgGr1NvTb9nvuMECDPGoQDEu3utXqI0GrhcMy7M0jMOcIUTmFqBrbN3Cw6EIpHpACWSkwMAWS46C6FvJKICef+J/dZ3g0h4VgOGGgstIhgxwAwwcgm9zPRsfvO4zah2vDEhRI5cB+NA5Jhew063k6Wgq7DhG6Ow/dnsNWF1Qf6fTz08I548sV5c/dh5F2KwEaNQuHpCrqnvx9D80+xFXVtLGVQnCAhkFxnuMmLRb4Uy73+LojCWHBDNJbXbhqG5vZ2HKf7RcZygXZ/cmMCicqOIAj1bVsl6v4PreI4hrf7xmxoUGMTohhdFI0Q2IjKKip47cjZawrKPGpn6TwEAbG2z/rn3IF5XWNbb4vQKNmssNvYm9xJUW1/t3rjhfCIkI57bIptvI3b68ie/xAL+9om0FjB9Avu2XCz2xhyRMfc90Ll3WoT4AjxTFQL0PLcOXEQR3uslPpEwIr886nbP+vWLua6I2rSLvpIUWbwLjxRI0ZT/+/3cfh15/iwIcd2PCiHWiCQhj70teEDM5G5eY5Fh4bQfjgwejnWAWI/MVSdj5zs8f+Mm98GpXOfnoq54ygvqztwdqwF76wudCpLFC0ZgXN9bWuDVUqht7xItJs1wD4qHjrd5l69e2U/7aKLfctBJOpzWMHRcaScceTtnJYejZ733yMcW+tIThF6XceEBtBWEY6sdNPp2zNSrbed6ni9V/PHIixTqTI7xFyZRiWZivWZ3aPwJIvPcOa8dBB3NlIioXB/YBJlAFszyX+sf943sfp+tlWYQY0ApZLnkBVXdemDZWPX2U/vsWCecEj7o+hUiFffApccLLraylxMG0EFQArNyG98imY2x54msNCFDFTxYt/QP/5bxQ/cZV1wO1IUiwMS6Ns5nj4egPS65/bXmpOiHFpr1/xe5vH95fyoemuSU2SYiE7lfr5U6lfvgbpg+88d6ANQL73UhiR4Rr/19rXiQOAluyWy35GWvyDz/ZZ7rrImiERKN2fj3THq8jXzIaZ410bZ6VgOeVE5KIypGufU7zU2E9PxS3nwYBk1/eB9XxPHkoTUNxshsc/QNriR1pslQr53JPg0tPdvBhrTVZx2igM182CNTuQXloORrsbZ1V6UtuJTM4YY/1zg+HVL5C+9a5C5NFZcO+lrucpKRbGZlEH1OXK6O9/y6ffGXTe+XFm/iRl+esNPpnTpcwamKxI617Z0MReXyY8fOCMzCRuG+d9ADztg5986mt6RgLXj8ywled+/BvzBiWzyOF5AJCsC2FCUhxXj0zjntW7+P1I22OTU9MTeWBKtqIuNSKUCUlxQBYvb2p7Eiw9RsejU+yTUN8fLOKJ33a1+b5T0iTunWQ/9id7j3bqHmbHEgvvP9fmGlhZUsOGb7Z0SGAFaNVc8H+zbOVtP+2iTK7osJ2t7D8CA1szvodAfFQthoowr+/pLvqci2DE6Gku4sqZ/tfexYiH3u4mi6xoQ8MJzXYvrtwhzV7ApMWbCAjXuX298HOl/RmX3dF2n+NmKOKTavfsdiuuQqUUpn68y624ciZ68nSmf5pDSIy+zbbOqEPDmbh8l4u4ciY8c7hLnRBXPUiTUwxOSDcFvZ0xxr24csfwNAxv30lTcrz71z/7RVEsPsvNoM2J6kGpyuNvOeB+xSBKh/zyLe7FlTOnjUZ+4w4s7UkgERJE8au3uoorZwYrXy/NcGq/Px9VpZtJlo4wqD9NT1zlvc15JyHPP8njy+ZALYwa4F5cueOCk5Gfub7dLqvynRe7H7w7IkW7VFWkJ3oWV84EqOHhRda953x4GJj00civ3OpBXDmhUsG04Zi7MxmJRoN86wJ4cFHb5ylNovjdu63JVdpBe8+PM5OHOBQssPVAz8dkDHNaYVq+t2/ER52X3c9FXDmiUqn5x/RhZES7H8e0cs2YAS7iypkbRmdyTob3xFZr8wwYHVb9ZqRJqH34nV3ktHq4dKfYn9EdQycOIjnL/nv57+OfdLjPeTfPJCDQmj7d1GTis9e8TLq1g1VODlDnTu49yer6xAqWI44Cou5QLpVbf0ETFEr02Blo4+0337hTZ5Lww5kU/fZtD1gJ5vJ6avP3U3doNw1HcgiSktFljyVsqH32JTg1mdHPfsb6605xeX/O4mdJXngtlpZ7R9zZC+HFO70eM9VJhB1690m37ca9+QvqaOVAtmbPHmp3rqe5vp7w7FFEjRpnO7Y6OoQT/rGUddf4MKB0IO7M+YoxhtkITYVHaaqtIkxKISBaZztGX2Lw4ME8/PDDndLXwoULMfmwOtit9ItTlg8Udr8NNfWQU2B1vzoiW0VeagKcPNI+0NOFUv7M9UgLH3NxTdJ/9wfFV5xlH+TOmgjLfvZ6yLp5UxXlwI/ctzc8ex3EO22yvCUHdhyCJiMM6AcnDbMfOz6K4tsWID3yrm+fvZXZk5WD2vomOFJsdZdMibMONt0NLpKcNpXefsi/4/rC6aOt/1ossPWAdRoxOhJOGq7cc+2Ck+HTX3xzHTNUwMFCOFwEReUQHQ6D02Csw4aUWSkU33ER0uOuiVq8kp6kFKrNZigwQGG51d0vKRa0Pu6hcqgQDhusm3NX1YI+BsZnQ5rDQH7OJOQjMtLKjZ77Uakoefo66+d0JE+G3UfgUAHoo2FgP+smzx4ETuSBfIpXrAetw+tpkiJNO3vzrCvTbvDmyilfOxumO2USO1wMm/ZCcbk1zm/yMPvEhFZD/cOL0F32d1T+pBXvxPOjdtAyjaX4uUWv75h9WJVuJUmnfN5uKvLNZc8XcsqrWZ2ndBMeEa8juhMmxi5pESYNxmbWFZaTW1lLemQ401KVz4i/jsrkjh+3uu0jOz6ShdlKgVNQ08CaPAM1TUbGJsVwgt56P9W1sV+jBQsrDhQxLysJgAC1iqlpelYfcn9tA0SHBik2C86rqmu3e2CzH+e8r6EN1HLurWfbyvvWH6CwA5sJAyRnJDBsit1v7/NXvsfc3LnxhN9sgL847K50ykh47atOPUS76XMCq5XDbz7DgfeVrgKjnlpK1CR7lpIBN/6j2wRWs7EBiwVqtmxi/yv3eIxd0qUOZMyHv9jGRWFDhxISo3dx/2uuqaZ2z25Cs62zPpoQDXEnTKRkm3tXH7U2kIgRo2wPE3MjyL9/79JuwMW3KMSVuRF23jYXw5/rlHamZDLmjdU2N8XQ7GykcTOQN/jmagAOYz8j7H7gSgp/UyZQCIqKY+hDb6ONjHF9cy8mLCyMsLDOWYJW+brk2U2UD+3vIh7iD3WTwKptgKIy1B/+SPxW9y5Wlje/pPj5v1kFBkBYEPL4bKR1SjcRVUOTNR35KKuLGRFh1KUnEXqowP2xNRqY4DDDWlPvdrNd+dTRyu+nph7d/e+49Gt6P5KSZ663uSkyagDVg1L92+y1dUDdaCTwkfeI3qkUSuawEAzXzoYopwG686qeofMGcwpqG4n+v1cViTPM736N4d+32EVDSCDymMFIf7gmzlCZTNaB9PrdRC35wUO82mpM+mhKXr3N/n2MzcKiC/XZFQ1QipN3vkH6/Ffl62o18rypMG8KLtQ0QKMRvlqH/pM17o+7ZKU17u++hfa6i08FLwJLnj1JKa4sFnh6GdJa12eHJTiQ4lvOh4lDXF5T1TcivfmFoq4+M5mq5/9qr/hyLdIv/iUIMumjlW6FFgu8uBxpldNA+s0VVlfP1t9aeAjFC06xJs3xlY6cHwciw5UDZ0MnOkJ8tief9fl2IZNfU++ltRIpXCl2Sjsx/mdncQUPFitdru6cNJiZmUmd0n9OeQ03fLeZege31AExOt46ezQqlfW8jU2KIVQbQJ3RNQPpTWOU7mWr8ww8tHq7bazywfZcTslI4MHJrte2O5bszLUJLLCKQG8C69zByhXVxTt9vwc/vGaHQvTtLzt2PWvOu3UmmpaVJnOzieUvdkyltG5S3ErJ0XK2rdrZoT7dkSuHAvZ7ckIvGk72ORdBgMo/1rmIK4DNdy2gqdy+PBiYnEBM9ondYlNzTTU/T0vkj5tnek0MUZ23nyNvK21POnuh27YH31Fu5Nr/ins99ps29yrFapDBTXILTXAIKdfcbSurLLD5muku4gqgOv8Am6+foajLuvNll3ZtYTbCb/OHuYgrgMaKEjbfOof1V051805Bd1OfmUzTA5crK40m1BXd81CRrnse6Y5XPYorAFVjE3GP/EdZeepYt21DlionA6q9uKvJU4crV4O+dv1NEKiF6xxSn1ssxN7+ilvRpimpJO6u1xV1dTfMdWnXJvVNxF/xlIu4AlDX1iM9vxTpQSd36GSnJ0xJ15y/wCc+cMlKqK6th7edEvJkuHcRVjU0IZ33INLTS7wmA9EUl8Obyj6LJ/g2GHNGd/urroN3ALMZ6ePVSJc84fKStHkv0oJHkN771quokzbsgs059ooYHeYY98kHzGEhcNmZSttufcWtuIKW7+ofiwm54zXUfgzsO0LJHRcoK9yJKwBjs3XrB8fv5oJp1kkLP2nP+XEkJU4Z11Ra5bcJHimpa2B7cYXtz5fkCq1EBirdWssa+saOgRaLmb9+t1EhrgByyqpZ5bRq5rxKB5AWGcYQB/fIyoYmHnQQV638eLCIz/Z5mPxyorimgVwHl+esGB1RwZ5X6+YOsN9/LBYzPxwq8uk4ALmVtYpz3tDcy7xNOomUrCQGTxxgK3//3i801nfsGj39kpMIi7JfE0ue+LRD/Xmi2Cneyku+l26nT65g5b71mMfXDF+8S/KiG23lpLlXU7b7b91hls8ZlOQfPyH16ttt5dB094OF4nU/0txgJiDYqoMjRo1FrQ3EbHS98JPOv15RPvjO313a9J91OWqHZ17xt59QdXCPRzsrD++jevMmdKOs7kCB+hjrINSPTFH57z1HY4VrlrO+TE5ODitXrkSt7vj8RLe7B6pUyNNH2stxUdbMd9n9lC5FrTzXjTv3+XhdaYrLre5yIS2DlkT3U1YRew5TX11n30B30lB4UeM+Yctc5cy4u6QQ8qShSjelT3+1ZT7zaOdvO2Fyi1twP73fvx/+863Lhs5tEq+MU4ko7ZxgegUllW5FH4C0dheK+WTJy5Sij99F3MY9lOCQGTHF/5hQNucQmpPv//vA93O2fpd9JQeoTIwmusx1lG+YOkK5arPrsOfVVQd8zszYQSy6UOX9IE92L65aMZvh9S/hjpa4XpWK+rQEQg74EWvUkfPTgrN3s6ETBVZ7CQ7QKNKzWyxmmvxxn+xBvj5Y5DFF/DcHZU7ub/8dSuEh5Dit8MzIUMa/fbTH8/n9745c5mb5tur2wfY8RUzX/Oxk3tly0KVddnykYgXqp8MlPmVuPJ5QqVQsvG++rVxVWsvvX3pxbfaBqLgIJs2zr35vX72H0gLPz8qO0GxSW/2AW35iUT6GcXcHfU5gmRuhdNcmj6/nLntFIbBCktM9tu1qgiKiCUsdgC41C02YXVarnGb2tOGeJbfhm8UkzrNm2FOpIHXOleQuf03RJiw+mcBE+42uIe8o9aWuS+Zhg0cpKzRa0uZc4f7ALUrMbLHfjCwqiEzPpvJg21l7ADBCjpuVxr5OZWUl//rXv3rajPZz6/m+tdu4D+n3Htx3LFCLMS6SMikGIp0C+5ubgRaBFeIl6cGXv8PFLTGOAWrkycOQ1mxTNDFHhiv3jNrnISlEutPDX61GnuRhp3tNy4Dc8WGuUmFMiEFb6D3FvI1GI9J37UiBFqi8raubvKd5bhfegsRbXf9aBYQPiQlshAbTqI+iQh8DoQ7nVeM0mRHm/1M01iHTYodQqTBHhFGjj6Y+IUq5UtNPKfyaQj0kpHBa1Yt4q5cEDbRQ4Zzm3aJCnjjcfcxf67UeofysVUP6+yWwOuP8OF8W9b0gE3dwgPL3aOpDgcfrCz27F8tOK6nuVrBSnRKyfO0lnreotoHSugZiQ4PbtOvnw0XcM2mwTbjOH+heYF3olNziwx0iuYUzZ15xMqGR9u/8f52w0nTJg+fbMhGajGY+e9nVg6mrUHkP4+tW+pzAMlV4V8GNVeWoLNjc5YL0bWTg6mR0SekM/L8XiR493ucEDqogz4OFQ+8+bRNYACkX/NVFYKVdrkx+cXTx8277Ck0frCjHnz6L+NNnuW3riZiRU3wWWE0lxWARs0V9DqMJ3vsW6avOT+3dFpagQIrnTYX5U5XJErzhJfg9fsXvGC52SCIzfyo4CSzDOROUb/potfvO0p1c3eZO9s0+B8oGJCP5KrAKSvxb7WqlolaRDbE+UkeQD2mU/cLN3lsKGo0Q0OK2E+z9PJrjIjFcdqY1QYavMYmBfj5FLRavq42+UD0olbq/zGw7q6MjwR4esf2V2dJC8jzHkPQETWlO13p/Pdx9oX+dZKfBl2t9a9sJ5wfAeZLcg4dmt1LZoHQlDFCrUNF1yTc6k8Iqz6vnlU4TN2Fu7sOJ4UqxVNaGW2VhXZNPAstktrAyt4izWiYqdEFasuMj2W2wr9YHaNRM6xdrK5c2NHKw/NiNoWoP0fpIJpxjD6PZt/EQRw/67kLpjrGnnUB8qn1SbcVrP9Dc1RtlOzw2Gv0Ize1q+pzAaqpqe3BiagZ1y/NXExXrvXEnMuz+N9CfYXVj8efmqVZ5HiA2lBuoPXiIsAzrSlxgop5QKYU62b7UHnu6fUXCbILD3/zXbV+BnSA21aG+J3doLOwedxaBnzinHq9tsCZCyC+FA/lI329U7LPTXchjsuH+hb4Pslvx0l5dWw87cu37eqUnYo7SKePKHFO4G01uEzIAkNwJ9xJ/Uoy316WisMyeBARojO+CUWZbboc+TqzIV5zdLqHqc2r3VjoSt6TRID91jX/CqhWVBzsdMz02m3vk9+YV59Xa9hDox/Cik+LKjpZoAfv9LT6yU7rtEBasWfiCtfbvIzI4iIoG32O4eooyL3E4viTUk0LtsVFGk7nNcVGJH3Fti3cctgksgIuG9OfB1fYYxmn99bYkHAD/3dUx99NjkUWP2FeaLM0WPn5uRRvv8E5waBBnX2uP3S8vrGTzj55zEnQGujDlNVrayTuSdIQ+J7Caa9uegVA5/IpVgf4H2raHwX+53yauHO1okEswlhRhLC/C7BD7ETv9DJ/7zv/P0wx69FVbOePKu9nx5A0AxI+aYovRAqj4baXHwY0mVLlSVv7Ljz7b0ErVn76vajQUtL1xoKCbsViQLni4p61woS49yb24KioDuQKKK5TC8IwxPqdtVi1bhWXY5bayYdZEpA+sGTbrM5PtMVoAKzd5XjVy9j/6zn8/dV2Ob4HcABxtZ+xiQQngkNo8tgtGme1ZWXNCPmeiq7iyWKxpwA0VUFYFjjOf57S9l5lHSts/cy0/vMhVXBlNkFsIhkoor7HPqKVJik26PRLiMEvfGwfazvsabcmx/gb9YXtO221a6cD5caSoNIqWbakB1wz4PYWhwUg/B4EVExLYJwSWqYPrbCEB/o2/qpt8j0k+UllHQU0DSS2rZCf1iyFAo7bFWF2UrcweuGJf39h7rLtIG5JKdKI9I+6+jQeR+rvfVzLUyUU/bWgyNeVWJVNdXmPbOPj0y05C7XDO137+B/0Hu5+Y0jhdG47tSvLLqK3xbSkqMVrpxmrogpDj9tLnBFZgRNuzyI5jNFVdN8wMqtQkLLxBUVXywwp2PXcrzTWuD46AMB0nTd/vc/dHV33GQOOrtlW5uFPOgxaBlXrZXYq2h97wnACkubKSwDj7YGvbg5djbu6C+IzW4xl7/wOkPWRmZvLUU091Sl8LFizofftg9QDV185S/nD35hH7zFICDO4HdfLkoT6PnvR/5iA7JsU4cxy0CKyqucoMlnGfrvHcUXk1hNjvP/rXP/dvrx9/aW7nvcsps1+7EkJ0NSoVXH6Wsu6LtegXr7Sm2HfCEhRIcUcElrF997nGfnoYkelgSEuq8jXb3E7hyxOH+yawKmug9V4c1rZLVLfjLNK/WIu0eW/XHa+d58eZpmY1NGMb2cR3nwOLVwpq6lceVrMAACAASURBVOnnEKOUEhlyXLirlTcZSWwRlr5sSRLtyaXWA//dmcft47Na+ldzanoC3+YUEBkSxMAY+yTBxqJyl0yIxztBYUpvikETMhk0IdNDayXjzhnFuHOsMf1H98m8cecHAGhDlX3OvO5Un+258h92F+SfPvyN1ct9m8yfMEhZ3t+LdHSfS9OujfQhYNrBPb+xvP2+7Sofs8QlT5+jyM5XsXE9fz5ytVtxBRA1YJh/hlgslP5g31FbHQT6CaegDtASMcqeorqppJLKw55TXDcVKLN+heqT/bNDAEBUVBRBQUGd8tfb9sHqVNS+fTZzkNa6kWorZdXo73nTo7gCIMqPfcgsFvhmvb0cHkLV4P5YNGprZsFWCkqtmf88kaeMY7JE6Tw07FmCjjq5UU8a4r/bZRdTPGKAcgVy9Z9Ib3/lVlwB1CfFua3vairOcorPe3qZNZueJ/+o/j6KWYf9lFCpwIe4k27loNNKa1e4mXYRBY6eYCEQGdbzKdGPVCpn48/N6ueh5bGFXGP/7gPUKtRt3IccXQp94dsDBVgcPHYuGmL9XucPUo5t3t+e61e/gr7DmWOU5eU+hn12B31OYKmjIjz7tWPdyNeRhmLf/W6bq5Vri8FxCR5aKonMVp7h/KXeM8xFDp/g9XV3HHhbmXY9/bK7SZ21SDFuKvroVbxRf0C5yVtE1gl+2yEQeCLA2X8+0rcVJqPeadJk1VavK0PmmAi/BUP8578pyvXzT6J40lBlLM/HHpJbtOK04XKp84a+vYSo3blWF7ZWgrTIowd7bN8TWDKVSRRC3O075kD1gM7ZNNVvnLL9tZlVc4CPcVq5ykByecQADw3bi5MADPBvZUCX6zQxmerbs7A38O1mZfnUUV200bYfrDigFKwjpUjC/E3U0gc5Uq2MrUuN9D4x5i4ToTeaTGZWH7FPKKVFhhEfFsS8gfb7Ra2xmW1FPX8NANxwww3cddddir958+b1tFkdw8FdXNVJGTItfrigj3NcwbLAL9t7j8dGn3MRVGsg5fTzyXezkS5A2uVKl7nGw767NVQ7CZDwzGGU7d7S5vs0wcrZx+ZKL8HpKhUpl9zu+XUP1Mn5NOQXEpxifeCHDxtOoMMKlMqCS3ZBZ8p3rCd+nn1T48y//Z2CVZ2Uuvg4Yu/evXzyySdo2rGRpjPHknugpsRpxclH1zST8+DPy2auAAZn1zIfUFdUw/58eyzNuEGQ6CDsLBbv+/wA7FNO1pivngk3/dNvW7ockwmW/QwLHdwzLpwOGz0k7+gJnAaXQd72+lKpYOFpXWyQBxxX2ZrNXmPPzFE6GJvl8XUFe50m/q49B9btaIeB7gkqr1FWeNuLzA3BBQYU/hdnjsPy/neoGnt+NagtPloDV9q39eGccfDxLz1nD8Chshr2lFYxONa+Enh+dgr/2eZ+L7ljhUMVyuvwgiEpPL3W/d6bw/VRhGn9H5J+sD2X6Q7bCjx80nAiHZIJfeLjBsbdwRlnuMbep6en8+mnXbMJrzf2/pHDQ3Of9antoocvIGOk3ctk2VNfsvN317H18hdWsPwF3xJl3LvkJoIcXAp9tcURtQrCHZwbakrAZOo93hp9TmABpF11H/nfL3N52AWEhBE7/RxF3aHFL/jcb3WO8gHX78KbyVvxQZvvq9y9SSFcpFPO9yjMBlx2O5qw9n3tRz94lsx7rPtKWVSgdXhoVm3ZRHOT900/8ld+RPqtz6ENtw5utAmxJJ96Hkd/WN7msfVjp9NYWuz7HljHMDU1Nbz77rs9bUbvw2xRbgB80gj496fuN/Z1wGUwN34IfOI+FsqYFAvTPOw91RbLVsN9Lb9TlQpSHTbBXLsLmr3bKW3Zh1xaBa2DpP565BOzkLZ4dsttpWpgP0Jq6nzfA6uDSJ/9irxghn2FbmAK8m0LkF5wvW+2YgkOpPjaOYR8va7rN7R1mtGvGDsYyUMqefn0sT2XreCQDANaJrIC1DT203tMeW+4cb7bendI67YjV8+yJ1iJ0SHPnoz0xW+e36RWIc+ejP6bDW0KHbVzfM+EbPif70mN1I1G+HELnNKSwjlATfFVZyO98lmb7zXFRVIlRRHtba+0LmTLAQkaZGiZ9zxrjPf23cVz6/fx5tl2Y64YkU5hTQPfedkbKik8hDsmZnP3T1v7zObEjnyTU8CNozNs2fxOT0vg5T9yqHMTD3XtKN/if5zJKaumtKGR2GCre+GwOKU768d7RDbjY5XzpsqKFO3/6+GJFGf6nIsgWFOVT3j9J4WrYECYjglLt9kSQQDU/LmVOoPnm5cz1UcPYqq1//CD+qcw6rlPicochloTYPtzdk8q26Z0+ky64EoSJpyu7FylYtj9b5B69R0+2+PM4W/+i9nDGDD33b+7f8ERi4V9D1yiqBr00Muc8Nj7qLWu6aM1wSEMuupeTv46n2HP/4/+l/q/8tYR4k6YSPLJ8xR/2jjlzvBxE85waROWkOqhR0GXs8FhVkurQf7XTdZMfQEaUKutf06/H3Wj0SrMWhncD3nuFJd28oQhlL1ya7tNk/7YrXSdcyDi41Vtd2CxEPLkEmXdw4uQr5mt3Gy2lUAt8swJyO/eTf2z11F29kT/jW4vTUb4xOlpM20E8qNX0JiWoPhuLbpQ5JkTKF78AMwYSX28HxsDt5N45xify06nOjtNWadSWdO4/3VOl9vjkf15imLFY1dhjlNmZbQEByI/fS2M8XH1CsBsQfPU/5R1V52NfPdC62/Fibr0JOS374IrzsLiS1IMi0WZ+jw9Efmqc/yK9dK//oXy93LGWOSnrsPszs1LpUIek438wt8oeftOmm441+fjdAVLfnAohMOorJ7fZ2xfaRUHnVYW752UzdWjBqB32i8qISyY2ydk8995ExmdEEWAj/HgvY06YzPfHLR/91qNmg/njifcYY9DFfDItOEM70BOfU8p2PeXVVPuR+p3Qd/ilrkOBQs8tbTrn13+0CdXsABCs7M5eXUBxtJKAjSBaKJCXDb23fv0Tf51arFw6J93MuBe+0a9UeMmMmrcD4pmDXlHWbtwtK1cU5BL3aFcQtPTrN2oYMgz75NVWkVzbTVqrZYAvV6RCKNdWMyU//I9sdOV4s1Ub8Kw1cvMpwPyxtWkbd9O2PDhtrrY6adz8rQ8mqrqob4Oi8mINj4BlR9b9nQFw/75aZvfWeKl1+O0JSaFS99h98v3dpldAs/o3/yC4pOG2QfwKXFUPf9XqhwbWSxIc+9XvnHZz7DIwX3iirOQz5sGucUQEWrNuBbmXwC0CxYLfL8RZjplo6uqJeSAb24kEfuPUL9+D4x3iGmaOR757HFQWgW1jdaN+KTYjtvbQaSlPyJPGKxcqRuRScU/b7R+F2XVEBHmc7r7zkRdWgm78+zJTVQq6v7xF+oKSq3CQKuxupj2gG2O6Fdto/iKs+2rstHhGN6+0+puasF6bUrR7UoiErf9APL2XBieZq+cOAT540et56amzuoTnxDj/75fYFUZ1zhsJD97IvLsidZz3+SwgvDyp9asiE6oGpvg1c/hJoeVucH9MLx/L1TVglwOgYEQHWa9jnoRjy+J5OJz7DHV954P5z3Rgwa1cM/Pf/LB7PEEOojoS4emcunQVIwmM1WNTcSEBCr2b/LG9aMHclaG5FLvHN/1xflT3L7/6m82Ulzj3fOlo7yx9SBnO8RcxgYH8dUFUzlaXU+AWk1sSCABPiZE8sSKfUf524npLt/bkt1i9epYJSS4mQyH0NUdu6C6rocHrU70uWmRxsP5tlUclQoC4yJRRyvFlcoC+x7+m9eMep7I+2YJpau+89pGG+6aUWnbLbNdVpcCYiMITk0mMFEpruSP31Ps1eUPB19/1KWuxEM8mifW/+0M5C+U77GoQBsZgjYhlsDknhdXgr6JqroOnvbshmZt5PowlT5ZA3lOs8y6UOvgs79eKVb25oFzEL6PxLpLw/7Vetc6L0hPfmgVhI6oVFYR2F8PGUk9Lq4AaDYh3faKS+wYYLU3NqJHBYz+iQ9cVxSTYiErBdITlbZ9sLJT9t7yF1VjE0GPf+j6wsAUq50JMfbr2WKx2ukH0oNvwxdu0l7F6KzCOCWufeIKkL5er8xW2IpKBUFa+5+XVS3px03wxGLX8xQRZv0O+ut7nbgCKKsOJsfh8T9lFGg03X/9OFNU28CiLzdQ7bzZO9bVndjQYJ/FFcCohCgigwNd/pwFi7s2kcGBaFVd//svr2vkr99tptkp82ayLgQpLMhma7PZwuZ2JqOoNzazoUgZA9xstrC6nc+JriAlxX0CnLKydm4of5xzw6xShXvg/f/pMVM80ucEVv3RA/x5/Vk0N7j3RzbVm9j0l9PJ//Hjdh9j2wOL2H3/NdQdysXs4+pyfVkx6+ePoG6350BySxPk/P02dr54F47WmxpqPL7Hmer8HBebDv7Hzz2ZLGZ2PnMzW644naaStndla8g7yuHXn2LP87d5bWdsIwbMX9R9z+W8d+IppXQXIa39k9i/PAt/7LXOxPuI/paXYbmXTH7NZli2GumuN8AxnXeT7/ubBBgqlK5TgP4b7xnsXLBYkBb/QPRfX4QCH2Kq9uXDy5+iX9LG4Lsr9mkxNiP936vw1FLrCps3qmrhg+/Rb3YfhN5uGtzvcaSqrkN/xT9gs5cNaWsb4YnFSMtXgcnhOvbF7aepc/ZWitpxgKibX7JueO2JglJi/voCUeudYlTr20gKYTYjvf0Vkbe8bN1c2Rt5Mjz5X9f4Kk9YLEg3vAivfmFdcWs0uhepbWx4K23YhXTZ32HjvrZFblEZLPmRuAfebtu+Tjo/nrj2JYdCINx3ofvYue6moKae2R/9yvs7DtPQxm/+UEUtj/26u0/s4VTrwf0aYGdxBQs/+51SD9daTZORa7/ZyF7n5Cx+8FOu8vyuzjNg6uZnnzemT5/utv6VV17pXkPaQVNb97F20NxGzLM3VMDt59vLJUdh3R7XldyeRiVJUu+5Aj0w4xd7StuKtavZfNcCAEJiJRJnzCcwKpa6wsMY1n5HfVnP30TDk9KIHjGRiMEnogoJo6Egl6od6yje1PEIvMiMIYx+7ydbuSG/kLUXndixTjUaogYMJWr4JEJiJFQhIdTl7qX2yH7Kdm7C1Oglw5dA0NmEBlORkURjRiLERkJpJRwxIG3LAXPHVLcxMZay1xwmCvbnI93hfXuDNlGraEyKpyIjESLDrKsCBeVEyKWE5MldI5zaiTkmAsPQNIiPsqbRL6uyioOjxWh9EYtdZVdsJIb0JMhIgKBAMFSgyzlKaI7v22x0B40peirSJUhLtAr+4nLith/0vn+aH1g0ahqT46nMTIL+CdbNrfOKiT9chLqsDYHcTZjjWs5Vv3gwmaGqltCicsLyZNTeskH2AF8/KjOq9fFohJTz42k29a555YxoHYNidUjhwYRoNBTUNHC0uo4DFTXHZPxQWKCWEVI0iWFB1DWbWF9Q2imf8/nTRjE6IcpWvuqrP8jxY4Kvq/nXv/5Fenq6om7Hjh3cc889PWRR3+XWeTJ3XWkvz7gBdh0WAqtdeBJYxyOjnlpG1KSTbOWcp/7Pp0yHAoEA5JvOs2dGA3hyMdI6kRlTIDgWiY2sY+cH1TZXotc/gofe730DMUHH0AVpWXHBVFu5tKGR+R/5FpfeXXz22WcuW7tcffXVyHLvcWPsC6hVULDMniV0w2aY/VDv/E33rqkcgVfCk9KInmgXVxgh76vFPWeQQNCHMMdGwoyR9opGI9L6XrQ3lEAg6FRKK0N59zOgyfp31qietkjQFdwyTpnBc8nOPA8te4b09HQXcbV161YhrtrBmWNlq3JpAurh8mfbn32yq+mzWQSPK1Rq+p2xgLQb/q5I5mH44ROwiEAlgcArKhXy6MFw/Sxlgo2v1vVI4gSBQNB93POOxD3v9LQVgq4gLjSY84b049Q0+wqGxWLmy71He9AqV6ZNm6YoWywWXnjB9z1aBXa+3iCR0LO7QPiMEFi9mOEPvkXMlLNQB2tcEq+ZTbD3JeG7KxB4Qr5yJpx8AoSGuGZiM5rQO2cCFAgEAkGvJiIokA9nj0OtUqEL0rq8/v7OPBp72abMY8eOVZQ3bNggsgceBwiB1YsJTeiPJsQ1jarZBFuunEFTddsZAAWC45aEGPcppI0mYm78J6r6Yy+AXCAQCI5lNBoVkcHu95H5+kAh72w52M0Wtc3BgwdRt2wWbTabeemll9p4h+BYoM8JLLOx89NF9hXMJmjIy2Xvo9dQeVAE5gsEfmE0Qc5Rol/6BG1hz2XMEwgEAkHnUVrXwIqDMu9sOdDTprjlueee62kTBD1An8giGHfCRNvme+V7t9JcX9vDFnUPuqR0gvVJADRWlFCVu7eHLRII+g7muEgaI60rWNraBgKKhEuGQCAQ9GXUKhUDYnQAmC0W8qvqaOjAnkoCQVfRJwSWQCAQCAQCgUAgEPQFRJp2gUAgEAgEAoFAIOgkhMASCAQCgUAgEAgEgk5CCCyBQCAQCAQCgUAg6CSEwBIIBAKBQCAQCASCTkIILIFAIBAIBAKBQCDoJITAEggEAoFAIBAIBIJOQggsgUAgEAgEAoFAIOgkhMASCAQCgUAgEAgEgk5CCCyBQCAQCAQCgUAg6CSEwBIIBAKBQCAQCASCTkIILIFAIBAIBAKBQCDoJITAEggEAoFAIBAIBIJOQggsgUAgEAgEAoFAIOgkhMASCAQCgUAgEAgEgk4ioKcNEAgEAoFAIOgrTBgsMzLD+v/1+2HLfqlnDRIIeiHBgSYuP7UEgPJ6WPrz8fU7EQJLIBAIBAKBwAfCg5v57Elso6cPv4At+3vUJIGgV5KeUMLD19vLNbUyX204fkSWSpIkS08b0ROkzbmClKvu89zAZGLdJWNorq3uPqME3lGp0QQGYWqs72lLBF2APGkEXH6G5wYmE/pbXkbV2NR9Rgl8R6UCbQA0GX1qLo/OgvNPthbqm5CeeB+aTV1ooEDQcT68U+bUqS2FJki9MI4mo6ZdfV11YiYTk2Js5aW7j7DyYFEnWHn8MamfnitH9LeVtxuq+OeGvT1oUfehDrBG+5ibzZ3WpzZIS3NTMxZLxyTCr8/JDMhqKdRA4kUSx4voOG5XsIKT0giMDvfaRhscKgRWDxI3fBypl9xO2MARaKKiUWut9WYTWCqraTiaS86/76V05x89a+hxiHzlTEiI8dygwQiHC+FgIfGHClFX+PA7io8AKcp7m2AtCIHVKzCHhWA4YyycMtp6LbQ85LFYoLoO8gzw6a9Im/ZY65zpnwDZqfb+wkN9u04Egh4iVSqziyvgnRW0W1wBTE2JIz0qzFbOjNG1KbBuGT+Y+NDAdh/TkT0lVXywPbdT+upphsRHMDBGZytrNcdeigFtoJb04f3IHjeA1GH9iIwJRxsUAGoVAOZmE7VVDRjySlnx+kpKC8vb7DMsIpRBYzMZODqDlEGJhEWEotGobH2amkzUlNdycEc+37z1A431/j1/r3wR1rzSUgiHuxfIPLn0+FjFOm4FlqD3MuDiW0i+/P/QhLh/cKk1QIyOsJjhnPDal9Ru386fD1xCfancvYYez5w5FoK0bTQaDoABYM8RYl9YRkBRWVdbJugG5JkT4MqZdlHliEoFEWEwLAyGpSE3GpEuecLnlS1B70SeMAzmT7aV4x94B3Xj8XVOl9zp8Hmb4OEP4rvdhlkDEgloGfx2lOTwkGNGYB0PXP3UQhLS4zy+rg7QoIsJQxcTxk2vXsX+TYdY/uwKGuobPb7njneuRR3geZJAE6ghUorgRGkIJ56czdpPN/LdB6t9tnnfEYm9u2UGZVvLN18Iz31i6tDERF/h2JP4PpLz9pOsnT1c8Vf89cc9bZYA0M9a5FFcuSNs+HDG/XczAYHBXWiVoEMM7kfp67cjnzXeYxPpq9+Jv/hxxR/L13SjkQJfkG84F66Z5V5cuSNIi+UYnE0+7khPgEGptj+15tgfIDkixdTYXZ2AL1dDU7O4rgW9l4Gj07n6qUs6r0O1iknnjuXMy0/26223v+VQCICb55Z0nk29mON2Bau5qYHmpgZFnaW+poesEXjDVFZNXe4+qndtpKEol5DMISScehEqnf3y1YRoOOG5T9h049k9aOlxzMZ99v9rA6wuY7ERroPw62Zj3JqDtrDUtY9mE+pmp/g6LzNvgu5HPm86nDZKWVnbCBv3wrb9hBaUUZeRAEMzYHy27yJMIOjlPLKwVlF+YlnPCMxNcjk6reeh25C4CNv/LRYzu0s9j2t2GKo61TZB91FbUc/RvQWUyZUYjpaiVqtJ6B/PiGnZaEPs3iXxqdHM/MspfPXmj947NFsoK6qk4KBMWWEF5UWVhOpCSM5KYMiEATaXQYCJc0eTs+UQOdtyfbJ14z4J6mQItZZvngPPfOTvJ+57HLcCS9D7qdm3j/3P3ET5nq0ur+1+4S5GPvYeMdNOs9VFjhxFVOYwKg7s6E4zBRYL0mPvuVZr1BQvOAUWTFfUlz1yJdI1z3STcYLOwhykhYtOUVYWlLokHtHtzoWv1mEJCaL42jlw8glgPl7CmgXHIipgrsOkfWMJ5BZ5dtXqSu78wfV56MjqS2fY/l9rNHH9Nxu72iRBN/H7538QEatj08o/qa2qc9vmy9dXsvD++QwcnW6rG3PGCI8Ca+2nmykpLGP7LztpNrpPkhEcEsRNr15NWFSIre60y6eTc+t/fLZ9+Wo47yzr/wMiYVy2zIbdx3YslpheFPQ6cv55B39cNJkNV53kVlwBYDGz9YFFGCuVKx5x40/tBgsFvqAymZGWrIS3v1a+IEVhCe6cIG1B92GYd5JyRepwMdKN//SY1VFV34j04jLiL35cZH4U9GnmT5XBIeT07R96zhbB8cvWVTtZ8/E6j+IKwGKxsOSJTzHW2+MF1QEadNE6t+1XLl7Nlp+2exRXAA31jbx112JFXWxCpF+2P7VcGbP9yMV+vb1P0idWsPrPWoRKbX2wV+7dQvmerYQlpJI4Yz6xU2aiTUylLncPlet/QF7zJTUFuT1nrEqFNPZk4qfPIygpjaD4JALCdDQYCqjbu4WK7eso3/wrtYajXrtJPeti1IFBADSUGyhas8Knw8cNH0d4xlAAmhvqyP9uqdf2ofGJxI+dQeSoqYRmjUQbHknt4X1Ubf2VknXfUbH3T5+OCxAQGEzKWRfZyvk/Lqe5xpoVLH7EBFIuvoXglEy04ZE0VpbSkLefvPeeoTxnu6Kf4nVtLGW3YjFTvuoz9HPsx4waOQWWvOizzYKuR/riN+QFJ0O4ffarOi2RiD2Hu8cAlYrqrH7UjR4EibGQEG21RS6HvUdgXx7xOQWoK724CIcGI4+0B2BE5ssE5/mWVKX4hIFYwqyfXVdcRmhOvtf2xqRYygalQnYaZCVbM/DtyYddh4j/86B3O50J0CCPG2or6jfvQdVgFTt16UlUz5wA/fQQEQpl1XBYJmbFWrQFJS79cN40RZXuXx/7lFZdXevftgpNyfGUz5kMaRLowqCgFHblErd6K5qSSt86CdAgjxoEw9Kt7qr6SNBq4bAMe/MIzDlCVE6h38LP8VzGHsy3JW0xR+kwzJkMmckQHwk19XDEgGr1NvTbPG+SZA4LwTBpKGQkQ2IMxEeB0Qg5hbA/D92+o4QeLgJz+9Ivm/TRlAzoB4NSYEAyxOigpAKOlMDWHKQ/drvN8GhMiqMsLUlZmdVPUZQnDYU690kupD92gbG5TfssQYFUDuxH45CW6z0hGo6Wwq5DhO7OQ7fnsPsMlB7o7PPTykUnKctLfI/x79OkRYYxVB/FcH0E6ZHWbIe7SqrZXlLJdrkcQ61nF+5AjZqJqfYkIOvyDExPkzgtTSI2JJBfj5bybU4RR6trCdCoOSVNYkZaPAlhIWw3VPPFvnz2lQoXxvZgNpuRD5eQMjjRVpdxQirbVu1sd59lcgWmJhOaQKtrrDZEizZIi9HHRDdHimOgXoaWYcCJg9ptSp+hTwiszDufsv2/Yu1qojeuIu2mhxRtAuPGEzVmPP3/dh+HX3+KAx++0K02aoJCGPvS14QMzkblJsFPeGwE4YMH28SA/MVSdj5zs8f+Mm98WhFjVDlnBPVlxW3aMeyFL1BbdRkqCxStWUFzfa1rQ5WKoXe8iDR7gctLUfHW7zL16tsp/20VW+5bCKa2B1JBkbFk3PGkrRyWns3eNx9j3FtrCE5JVLQNiI0gLCOd2OmnU7ZmJVvvu7TN/t1Rn39AUVZH94zbhqANcmUYlmYr1md2g8DSBiDfeymMyHAfC5QUCycOAFoyHS77GWmx+6lps0oFd9l/K5XlNQRf/qTbtor3RemwPHq5rVxdUEro9c+7bWsJCqT43ktgZKbrixlJcPY4DBYLvPQJ0o+b2zw2WAfwjnYXL/4B/ee/UfzEVTAwRdk4KRaGpVE2czx8vQHp9c9tL8lnjAWtQ8xJVW2bQrE9yBedChc6BVAnxcKYLEouPQ0eX4y0cbfH9zf201Nxy3lWMeGOlDiYPJQmoLjZDI9/gLRln/u2brDcdRGEWW+wpfvzke54Ffma2TDTTfKWrBQsp5yIXFSGdO1zys/Zuuebp20J0hPhtFFUA9XlNcTe/bpfGTgtQYEU336BNQ7OmaRYGJEJM8cj1zfBR6uQPlYqhrKzJsDsid4PcuN8jy+Zrnq6TTEsj86Cey91/W0mxcLYLOqAulwZ/f1voar2PGPvSGedH2cmDXE8COTkH9uuTQEaNQ9MGcr0VNcsiYNjI5g/yPr7emPrQRZ7yEIYGRzEo1Pskzs7SqoY5hAflhEdzsVDUrnws7XcM2kooxPsv4W0yDDOydRz08pt/Cm3nWpc0DZmY+fvMWjyYVzoyP4jMLB1njIE4qNqMVSEeX1PX6bPuQhGjJ7mIq6c6X/tXYx46O1ussiKNjSc0Gz34sod0uwFTFq8iYBw98u2hZ8r7c+4hBO6BwAAIABJREFU7I62+xw3wyauAGr37HYrrkKlFKZ+vMutuHImevJ0pn+aQ0iMvs22zqhDw5m4fJeLuHImPHO43323ohuufHBWb1vb7r4EXUiT02x2SJD7dp2IOVALowb4nmjhgpORn7nerfuiurYeduTaK6LDaUj3fl0DGGY5DVI/+9Vtu6rB/Sl+7x734soRlQpuOhf53nZmhgoJovjVW13FlTODnV7P6q8sf/l7+47vBcOsSa7iyhGVCh64hMa0BI9NKtITPYsrZwLU8PAi655uvt64nZDvvNj94N0RKdq1bsqwtvd8ayU6nNLXbrOmSfcBw4gBFH9wr3tx5UxIIJw/3Tc7OguNBvnWBfDgorZ/m2kSxe/eTdXAft7beaDd58eBkOBm1HZdQOkxvg+wPjyYZfMnuhVXzlwzMoNXzhxLkA9ZQh3FVSsBahXL509WiKtWVCo1j04d4lIvaBttoJbEDOWY7WhOxy7chNR42+oVgMlo9ntj41VKZyXOnXxsJ5brEytYjjgKiLpDuVRu/QVNUCjRY2egjbffKONOnUnCD2dS9Nu3PWAlmMvrqc3fT92h3TQcySFISkaXPZawofYZneDUZEY/+xnrrzvF5f05i58leeG1WFqe+3FnL4QX7/R6zFQnEXboXfcz7OPe/AV1dIiirmbPHmp3rqe5vp7w7FFEjRpnO7Y6OoQT/rGUddf4l5oz7sz5inGL2QhNhUdpqq0iTEohIFpnO0Z7CR8yTlEuWfNFxzrsIS688ELmzp3b4X6OHj3K7bff3gkWdTL9nFYWDxR2vw2GCjhYCIeLoKgcosNhcBqMdci9nJVC8R0XIT3umrRDtWwVlmGX28qV804i+HnvLric6XB9WixIP29xaWLRhVL/j78oB/nNZvhtJ+zPs4rRYRlwQob99fHZyGeMQ/puQxsf2onZk5WD2vomOFIMVXXW1R0p2r3YSFJuKh3y50H/jusL551kt2nzfsiTIS0BJioHWRWXn4X08Lu+9XmoEA4brJteV9WCPsYqPNIcViDmTEI+IiOt9DMZQHqSUqg2m6HAAIXlVrfEpFjlqp8nms2wPx/yiq12miyQFAczRoKuJe2WSgX3XETz1c8QYKjw2JU5JgLzo5e7nsPdeVZ32KJSSE2AgUleRXbkDxupDHIaHkwcYt3frJWftlrdGd2gqfPsOiZfOxumj1BWHi6GTXuhuNy6ejd5mN2lWKuh/uFF6C77OyqTHwO6Tjo/U4coM57+4fuCp98094JkMA9PGU5ssHICbFNRBbta3PUmJEYrNvQdGq9j0YkZvLExp82+/7frCIb6Bq4bmemyEfC24gq+P1TMguwUUiOs1310SBBRwUFUNPifTdbcC77LniAwSMtV/1ioEEO1FfWUyZ7vG20RrY/k6qeUQVN7/zjgobVnvtkAfznXXj5lJLz2VbvN6vX0OYHVyuE3n+HA+8pl/VFPLSVqkj1OYMCN/+g2gdVsbMBigZotm9j/yj0eY5d0qQMZ8+Evtudf2NChhMToXdz/mmuqqd2zm9Bs6yykJkRD3AkTKdnmfuZYrQ0kYsQoWm8p5kaQf//epd2Ai29RiCtzI+y8bS6GP9cp7UzJZMwbq21uiqHZ2UjjZiBv+KnN76IV2zPeCLsfuJLC35TJDoKi4hj60NtoI2Nc3+wD8SMmEBhnD7RUWcCw3c8BZy8hISGBsLCOL5UnJra9qtLdlA/tb40tcSD+UNcLLJXJZB1Urd9N1JIfCMp352K72hqn8uptduExNguLLtTFLUn/Z47VpSqkZYVr8jAs//zI46CvamA/RdwZG/a43Wy3+MZzlQPinKPoH/6P8vjLfqZiWAaNj1xht/OaWVhWb7XFVPlE63sbjQQ+8h7ROw8pXjaHhWC4djZEhSvfF6cMaA4r66LYiEOF6O9+Q/GZGtITqXzhb/bv6MQBWEKCULlL4V/TAI1G+God+k/WuHctW7ISedwQuG+hve7iU8FfgeUoVN/5Bulzp9VJtRp53lSYN8WNnfVQWgVLf0b6YZN7F+x3v0a+fi6cMcZWVXrRqUj/Wu7RJMPtC5TXUnUdUfe8SdAR12vfmBhL2YOLwE3we/DhIoJf+UxRJ5fXKFYYpTe/hLoG57d6xaSPVnweLBZ4cTnSKqdkRm+usLr3jrK68BIeQvGCU6xJc3ylI+fHgf5O3oC5nbif/cNrdqBz2LB9f1l153XeDjKidQyNt18PFouZ237czmaHbTXeAs4f2p8bRtlX2xcM6sd72w7S6CVRwqo8A69ussa7lTcYeXCyfeKkutHIzd9txgL8eKiIby+0B72NT47hOx8m5D7bk8/6fHvsaH6Nf7GffQ2VSsWIadbvUKNRE5sQgz49jqxRaYqU6pgtfPSMbzH8uqhwMkZavRW0QQHEp8TQb1AKyVnKH4GpycTnL/k/ts6VQwH7PTmhfUO/PkOfFFiVf6xzEVcAm+9awJQvcgiMtg4OApMTiMk+kbLdrrPGnU1zTTU/T0tsMyC3Om8/R95+jtSr7asMSWcvdBszdvCdxxn2jD1zS/8r7qXklllu+02be5ViNcjgJrmFJjiElGvutpVVFth8zXSqDu5xtTP/AJuvn8HoD+0bvWbd+TLyef4t2ZuN8Pv8YTRWuG4s11hRwuZb5/jVnw2NhsF//6+iqujLpWBpXzC4oGuoz0ym6YHLlZVGE+qKrh9IqBqakM57sM3fpKa4HN5cAdfPttUVTxjiuqJhscA362H+VGs5QE3xpKFIvzj5PbRQ39quBd2yVS5t6tKTYPxge0VVLdKdr7sdcEftOIj8yqdw07n24194CtJ/vvH6+VwNayL+qqfdJp9Q19YjuVuVi1CKf015F5w/iwX9XW+4JJ4IPlRI5S874CS7K3F9QiyhhwpcupA274UFj7R5zqUNu5A359gH8DE6zDERqNshHHW3v+o+Hs1stsY2OcU3AUivftZ28gaLBem1z5GnDLfFFTFpKHgQWBXDMhVxjhhN1vPsIQhdW1iKdP3zVAzLcPt6V1ByxwXKCnfiCsDYjPTYe8jv32NfxbtgGiz9yad4YEfac34cSXHylPMjFK5NcivdxEf3IHc43ouAF/44oBBXrXy08zBDY3Wc3N/qhhagVrHoBO+rWL8ftfezuUgZV7W1uNI2OVxvbKamyUh4oFV46kN9cycvqWugxE/B35cJCAxg/i1neW3TWGdkyWOfkLv7iE99DhydwZwbT/faprywgjfvWkJDO/aoLK4Iw1FgufEaPabokwIr963HPL5m+OJdkhfdaCsnzb2ast1/6w6zfM52JP/4iUJghaa7Fy3F637k/9m77/CoivUP4N+zJW3T26aTkNAhQWrAQrsXFBUVFQtKs1wFrr23a8Vr4dobdgERKz8EKwiK0qR3SAghpG16b9t+fyzZ3bN9k002C9/P8/jInJ2dM8mWnPfMzDuaFh1kAYY7caHDRkIi94NObX3HOuHq20XlvI8WWdXpdekcSMxmRJT99K3N4Kpd7cljqN+1EyHDhgMA/GIjDXdH3cjqVPjpYpvBVWcNW/Q55GGm0QFtsxaHX3G+Tq2n+vnnnz3STkmJF6beCQJU44eaytHhhouiAclAvxTr+ou7cYdBF9+r0TuOoAKmAAtJttccxqz6E+XmgdP0CwBbAZZUKp7aZicpRP2M8aJy4HPLHV5AKtfvgmrOhaaAJ6sDF8ef/ORWZj+dv1w8GqDXu5Qhzm3rdtnP6rdhtyjAqo8JtxlgGfvnim2HTAEWgNr4CES4G2Dtyu1Ysg9X+6jTGab2tfcz0P72Bq1XWqS6W/qL3eDKXPiBLpjuaYM+JEj8fVCgsh1ctdPpgPe+B+47vVZYENCcGofA444z8Ip09PUxk2xxl73kDM65MDDadCNFr9fhx1z7v+tP9p4wBlgAMCE51mGAVVBrurCutphCesIi0KxqMQVYof7c0qMj1M1qLHvqaxQcdePz4kRxThlWvrDKYZp4RzRaCaCHYWM5AOGBDqv7PJ8LsHStQOWhnXYfz//ybVGAFZiYZrduV/MPjYAiJQMhKX0hVZhCdUEqnvctD7Yfxpf/uBzxVxgy7AkCkHLZPOR//a6ojiImEX7xpi+6loIiNFdaz2NQ9B8mPiCVI/WyubZPfDoS05mNCOkFICxtAGrzDtntr4gayLUx0thZva++XTQVVNADe277J3Qa19KF9kSHDx/G4cP2s6P1eHdf7Vq9Hceg3GJ7xKdbBAWgNTYcNbGRQJDZH27LRdoK29/8ktoGw3qZ9rUdvROgCwu2Sp2uOneweKrW/9lJvpIinnrRHBmG5rGZtutKT1+UN7SYAqxkN7OZtardXrclWCb90HbR2oZd9i/OwipqIMpJF+84MYGRIEAXqkBDbASa48INgW+7ZHEQ3RYU5HpfT4syy7TYKRIJNFGhqI+NQFtUqHiKj2VQJZPaTo9vvs5Rr0fsmp6V8KfGMmmCXoBqzBDba/7a3+uh4tekbmAvtwIsT7w+QQHicvMZOkii8JNDEEzfgztVtWhzsOYtv7YRtS1tCDv9/RAdILdbFwCateKbMnq9zni+ZosMd61m7+8QfxfWMZ6tzNeZScSfI3mgHDe9cB2Obj2Oz//7nUvNabVaU5sS689lQp9Y3P3BrVj73nps/7HzM8MEx28Zn+dzAZa2xvH4fGtdNQQ9jNPl/GOdZMvysJCENPS5/1VEDB/tcgIHwd9+GH/i4xeNARYAJM2YbxVgpc4RJ78oWm47DXRQmnj4P2bypYiZbHvKoT2RQ89zOcBqqyjz+JS9uAsuscoimfvfe10P+sg71Frg05+gXOv57HPO6KLDUD7rQsMIiKvZ4vwcfPN/+bto/U75xWOs14ZYTA+M+XGb7bZiLDZrfNB5Zk8RuRS6oABIXJ0aU1zh1gg0AAiWdytlErdHsl0RqrI/0u1nOZUqMMB2xdPq+6Wg6ZaLnWdLNBfg5p9Dvd6t1OlWBAGq8zOBORcCUW7MlfGT2w6wIsxT3dW5lxCiG7SlWqwP7RULPHSte40MSAW+dzFw7Ozrc1qpRbb5GBdje18THyz+TJ2qcz7KXdbUagyw/GRSCBCgh+3vhdY28XtWqxcgO/113GTxfm4xe++GOPouPoupW9X4z3TTDWxFaBDi0+Mw6bpzkWC2ZqpfdjrmPHUNPvmPk4RMAPZuPCjaKysiNgy9Bibhn7PHITjCdLPj4n9NgiCVYNsa+4Mddpn9CW7t2ECYz/C5AKutzno+sCWtBpCc/kxKw6O6uEcmgx9bgtgphmlG7lx6SAT7d2haqsvRmHcCit6GkTi/+FgEKZPQpDJNe4iabBo90GmBkz+usGoHAPw8EGxKglxPxNBa4tq8X1fFZGZj0LMfiH63JUvfwckfltt9DnUTy6lIjS1AeTVQWAkcL4Tylx1dM63MCdXcqcDl57r/RAfpo5V/H4ZKrTVlILt4NGAWYOnCFIZMaO0O5NuekieXAf4euHjwk7uebKC4Axecer0hs5/ZSIo+NAiCh9eP+Fc7Stnr4jeqVArVC7e6F1i1E9zctaQTi+i10WGoeO3f4iQoLtIJgvX+KkEB4vdsWcczhnWZtATndZzxc+OSxUNJDgrLxWVXB099TWKYeLSwpNH5d0pZcxv6mJVjgv1R1mD7eWqLm616vWmumOVImdqsLLExkkLWGuuakLs7D7m789B3eG/MfNy0T11aVjISe8ehKM+9VO3VZbWoLqvFno0HcdntkzFsiml2xYVzLsDfP+12K1V7iEI8BbyyZy1B9DifC7A0jc4XVwtmf4sFv+4ZXu5/y2PG4Mq8Hy2qCqgrSqGuLoXObG1F1PgpLrdd+MmL6Pf0O8Zy73kP4cDzCwEAMcPOM67RAoCav361O2okDRL/Ma/etN7lPrSr2+f6CERLsftpPO0J7d0fg99cJU7k8cv3OLzkKY+dgzpIr4dyxpPe7oUV1SVjrIMrvd6QErq8BqiqA8yzXl3iZL8c8zZ+2WHaXyc4EPX9UhBytAAAUD7VYu+rr20votdZJI5Acxvwh+3so44I7qQwLurgesjqeiDQdLOqLSIE/p5eoO+BtMqqJ2dbB1dqLZBfApTXAtUNplgtVSlOCuGuyo4l+tAH+NkOruoagcIKoKxWHByM7meVhdOSOtzivdTDkicAsM5WuDvX/UBwv/NU4EYdfH0snbK4p6s8QzOfRVqsdWpwYf1evUVW1FA/Ocrg/hxKy8FwPRhUdcaxnXnY+dM+DL/QLCC6aQI+fNT2zXdX/N87v6B3Vi+ExxlmXUhkUmRPHY7Nq/92uY34CPECxnLHe5H7PJ8LsPxCnY9Imc8CEpq64a65IEHczIWiQxXr1uDQ4ruhabD+kpcpQnDB+ByXmy/auAp91O8YR+WiJ10FnA6wUmY9KKp7Yon9BCCa2lpRWvO9T8zp0nVLGrX7WWZsUcSlYMQHG0VDyzU7tmH/M7d4pP2e4KqrrsK117o5XcaG0tJSLFy40HnFM50gAHMsMiyt3ozY5b/aTGuu9/dDmasBFoCo7/5ApdkGpk1XXoCQRcsMhalme181t0G5x/ZnXVJtkVChoQnKt12bK99hmg5+H5ZWG/YNOq0mPgbK/J6142prciyQabZRc3sK8D/22gzeVGOGdC7AsrMHlDNlU7PFwVVDMwKfWYrQIydt1lcpZgATHAdYcstAxXLqaU9QXAHAbM+51ZsNWR+7SgdfH0sHxDsZICvVI832OKWN4r/XMUHOk0tEW2wYX9HkxpYR1KU2fbtNFGBFJnR+6HXnr/sx6UbTtgbJfe1v+m5Ldj9xOcdz+Td6JDfnRHifPMyFN4nZrJvW6o5vWiFIXPv1JI6/TJSdr2bHNux76mabwRUAhGcMdq8jej0q131rLEr8gdjsSZDI5AgdNtJ4vK2iFrUn7e+C2FYs/ksRFJvoXj+8IDAyFiOXbRe9pg1HjmDXPZ3flLcnSUpKgr+/f6f/i4w8Q2+vnubqGEdZZoZ4E9Hf90H54Vq7e0Y1J0TbPG6PrLzGsBFuu1H9AbkMzekJ4pTmv+ywv1ZJpxePVAS7n2Sh21jOk7o42zv9cKDmIos+vfilIUudvZGxXrYzRXa5KabvbOj1iL7zDbvBFQDrTbpt0WjF03RjHQdkXpFnkfUxxjdyNB/MVwJm9yUyvZc3q0sV1olHPWMVztOjR1skYOnIhsDUNarLxMNDQSGupbt3pDhPvJ9eZKJ7S3AuHCEuf92z8vB4nM+NYEnCQw1z5e1MgwtJ6SMqt5S5nqJVUy9+QwZEx6Gp3Hna67AB4ndN4crXHdcf4v7FyfEPFyHmIrM5tbMeQlB8mmi0rvSrd2w806T5+EEEZ5rSaYf2zUJDcb7bfekufiFhyF62C4LZ90JLQRG23zbJ4wvsqYeySNmlDlW4NDVNny5eUB/4w1Y7NQ3qMzqwPuSr34F7T+/rIwhQjcsCMsXfPzGWm5taKq0CMk7f6Aj0M6ynsrEZsbeFrduB2mlmUx+HpBrW/fSkfWd6i19zp9kqM7o3AZJRtFnwc6oM0gon82TiXQz+y2uBpNN1QxU2N8vuFIvvXL1c6tZErpB8FUS3HFPcu/vtTcVFQEKv04VgIMBPi5a2Myu7XZnFmrW+NjagNicASFCYEmM09MDvrc5YuHAhFArx1Ntjx47hu++6eJaBh4RYvH42Vm66LTa5czkNRpmPYOmBTfu9dJOrm/hegCUFkiZfjUIbG+kCQOoc8ZS51pOuT0GoP35QVA5OH+zSJsXSAHH2HU2tg4XkgoCkG+61/7gdTapCtBSWICDJcBERPHgI/MxGoAQ9rLILWqo+sA0xV5iyn6UvWITijR5KM+xh0oBAjFm2A0KI6S2qVlVh65wxbm806Qu+//57NDQ4WuTvGpWq4yO2PZHkVAXMb6XUJEZDearMbn0ji8xT/o72fRIEYOY/3e5b7F/7UXbnVabkAlePF188nyyDpNLJxfPxElOABUB1zQQol/7idl+6WsDJUtSap6cHoLp0LJQrf/NiryyYj1hqdA5vwujCQ4CRfe0+3qWkZmGJkylVqrGZpk2GnTlebAqwAJTddAmUr37ZkR7aZvFebokOQ6Aba70CisvFAdaFo6D/7Gf7e5/1ID/vAub2MpUnDq3AD9vd3CKhh2vV6qDR6SE7nVSiT2QIIoL8rfasajcqKQZ+MtNnrvwMmx44ZYr1Ovm0tDSfCbCGTRLPlKqv7fzNlsHniTNRl50qt1PTmkQAgs3uFTVUAFrtmb3WzucCLABIvelRFP7ypdUfUFmgAlHjLxEdO7H8FZfbrc89IConX3snCtYsdfq82sM7RYGLctLVdgOzjFn3Qqro2K+9aOnLSH/YkJZTLwBys9W2dbt3QtPm+G5y4a9fIe3uxZAHGy4+5XFRSPzHVSha97XTc8eOHI/WyrJuSYcukckxdukOSCNNd2Daqhuw5YbhNjdZPhMcP34cx497LinImSKyuByitAzTzwe2uvAePC6ejlQzsr/dwEw1eSQQEex23wStDvh9LzDpHMOBOIvpmV9vdNpGzPJfUT55uGnh6JUXQLf6L0icXbhKBKhGDUDM7hyXNpP1hNB3VqPuf/NNB66fBFVZNZQb7N+E0sRFonL+FVA+82nXZ5E8oTIFqzIJWpNj4W/nNS//93Sbx7tFVb0pLXtanCGbpK3fjZ8cmO/6NhpRS39G5TizPdQmZKHp//60vyEzAF1QAMr/MRzK1X85bd+vuBLm37512QMReNx+25YkrWpg/W7T50UmQdlNU6F8e5XT52qjw1CnDEfEQQdTKbvQO2vlmHuF6XM2/2LgB/e2k/MJv+aX4iKzkeBbh/bGC5ut92cUIOD2c8SbnK883LkNncmxfsPSEZ8Ri7/+bwfUTr7zo+IjMPH6saJjOX9bX1+cd8Vo1FXUY/+fh09ndbRv5D+zkNhXfFNh188H7NS2dtX5KtE6+i82ufxUn+Vza7AAQ6ry7Pd+E6XVlSlCkL1yrzERBAA07Nvj0hS/dvVFedA2mv7Q+fdKwrDF3yE8fTAkUpnxP8u9dKr2iieSJsyYh7jsyeLGBQGDH1uClJvvc7k/lk7+uAI6O4M3+R8vct6AXo9jj98gOtTvP28i65nPIJFbL2iVBgSi302PYMIPhRj8vy/Q60b3R946YuSSjZDHiYeiCz97GfHjpiFpyjUO/7P6vZNPk1bWGTK/teuXAtVdM6BOiAIkEtN/Fp/JGMv1HrMmo35AqviYIBjSuM+/rMP9i/jGdoZAaHSI/cv5hsqS2gZg5UZRn8o/egiqScNs1teFBUM172KovnwKeHgm6vqkdKDXHRN4vAjItxghvesqqG6cDI1FljttbARU8y9H5Xv3Alm9oZd1w3SqnAJRseaZm6CLFid70Af4QfXiv4ARXhq9AoATZslB/OVQPXqj1YirOiEaqo8eAEJcX5cnK68BVouzvNa/ugCqaba3KVCdn4nypY8C1//DpfbDLDNQXj0eqknDxZs3OxH73mpDVsd2U0ZC9cJthq0NLAkCVCMGQPXKAlR8+ADaFl7p8nk8rUAViSqzBfkjMm3uw+rz3t2ZJypPTY/Hvy0+K1KJgDcuHIY0s8yVDW1q/JTrerBN7ksZlIQJ15+Lx1bcgXnPXYd+IzMQEi6+MagIDcL0hRfhjrfmWb1Bt63dZdVm5riBuPLeqXj8y7tx1d2XoFf/JARYJC6JTYrCzc/PxCULxLM8tG1anHDjhsdd5svm9cALK8/Q/Q7M+OQIFgAEDRiACb8XQ11ZC5nUD9LwQKuNfY++eId7jer1OPHaA8h4xLRRb/ioMRg2ap2oWktBETbPHG4sNxTno+lEPoLSUg3NCMDAlz5D38o6aBrrIZHLIYuNFSXC6BC9DtWbfkHUeHEQoW3WonyP8zuQAKDa8TtS9++HYsgQ47Go8ZMxYVwB2uqageYm6LVqyGPiIDhPItQlAnunWx3rfeeTLj1X06JD6T89sN8K9Qx6PfDWKuAxsxsDE7JQNSFLXO9YIZT3m9YgSiprgcMFwIDTAYggoOm/t6CpuNKQWEIuBZJixdPKOsCvqNywjspy9GrzQZc3elWu/A2qi0ebLqZlEuCOK6G6/XJDOvnWNsDfzzDq4Yl9szoh+rmlqHjzTnE/rhqHyqvGGS6c6xqByBDXN3T2oNiNe1E2d6ppv66IYJR/+ACQU2jIjhIaBCgjvNI3cyHLfkW9+UXrORlQff44cPSUYTpgWLDhd9gBys9+guqfw0V7luGmqVDNuwgoqTK8Rgp/w3up/ffg4gCopKYe2JsHZJ0euRAE4I7pUN0x3TAl02zqdsxt/4Okqs6qDaG1DXjn/4A7zEYQ+yej/LNHDO8dVTXg5wdEKMTJYnqAp1YCr91zuiADrhmvwooNZ9Y0wZqWVvyYVyIaxbpqQBIu75eIvJoGBMikSA4JgGCxZ9ybO/PsbjBMHiYR0GtQInoNOj1ar9NDq9FBKpPYjfo3fbkVqlP2t+iQyiUYMq4/hozrL27TwTZHnzzu+vTjwAANemeYygcOAfVNXrrA7EY+N4LVerLQOIojCIBfdBgkEeLgStADx55c4DCjnj0FP36Oyo0/O6wjD7bOfrT3rmlWo0uyqFAEpCTCL14cXKm++VS0V5c78t572upYhZ31aPZsWzAFqtXi5+gFQB4WCHlcFPwSvRdcEVlS/n0YWLPNcaVQ6zv9sc8tFd8tBwypxvsmGTYCNg+ulv7a8cQp31rPdQhd9Yfrz9fpoLx1MbDLYo8fudTQ37R4w/+9HFwBgLSsGlF3vA7YSp4gl4ov3LuZ0NoG/2eXWT/QJ8nwmsdFmvqm1xtecy8IOlEMfGeR/EQuNaSMT4sXB1eNrcCvO11vXK1B7C0vAYcs7iwLguE91CsWiA7r8GsU89rX1puKA4abAv5y4396B8M7yvU7geeWW382QxWG16pXbI8LrgDgyw1KUTB6vxdnmXall7axy+mfAAAgAElEQVQcwfp88dRamURA38gQpIQGWQVX7+/Ow4+5Z1a+7aQk2wlwqqo6sFF7V5MIhkDIzmdu3x+Hse5zJ8mW7LVpi06P79/6FQVHXX/NF15aKZoe+Ngn7nXHV/lcgNVcdBz7br8Imhbbd4e1zVrsvGUyCtd/0+Fz7H18Ng4/diuaTuRD52LW0eaqMmybnommw9bzldvp24DcRffg4KsPihbua1tcT25QX5hr1ae8T15w+fmGjuhw8KU7sXvuZLQ5y2AFw4jdyfdewJH/3eOwntrJGrDuoNeceQkweiQPbArrDuX7qyF97CPDqFSDg4QVZoT6JsTO/a914GKusRV4bjmUX28EtGY/k52F3bbE/GkxFbCu0a21KYbztUD51MeGC09nP59GB2w7AjyzDOGHTjiu2wXrnmSlVVDOet4wtbHZyZrIk2XA4i/tpsfvsGbb3zXhB44j/M43AJWDDWyLKxE5/xWEb7NYy+fsZwE8luFR+cmPwAsrbQcr7XYcQ+y8/57eP8pEcPIdJ9Q3QfnwEmDxl85/pl25CHn4fVe7DUllLWJnLQK+/sMwcqux/XdY4uR9p9x+CMpZi4Adx5zf2CitAj5fj+jHP3TewS7MZKcH8JrZfcmEVGBI756XVEhvJ8Oyq7Q6PZ7edABP/XUIagej8PWtatzyww4sO5DvUrutmo79zWi1DMS7wfjx420ef/vtt7u3I2Z2rd+P/b8fQX2Va4llinPK8PrtH+Kb/621W+eXT39Hzs4TaHUlQYlOj31/HMaimW9gx697Xe02BAD3Xm0qVxQBW4+cWSO/9ghKpbLHj+tO3GSas16z+XfsevAaAEBglBLxE6fDLzwKTSUnUb75ZzRXuZBhrIsFJ6QiInMMQvufAyFQgZbifNQd2IqynZ1f1RfWeyCGf2rK3NVSWILN153TuUalUoRnDEL4kLEIjFRCCAxEU/5RNJ7KQdXBndC2unZBS9RT6aLCUJ6WAPSOM0y3K69BSG4RgnI7vzBbdXE2cKtZMoLl66D8ckPnGvWToylFifqMRMBfZri6K6lCeGkl/AvLe9Q2Ba2pcahJTwRiwoFAf6C0EkJxFaLzSwxrzLzVr6RY1KQpgdR4QyBQVo3o/XmQllV7rU9WZFI0pcajPi3OMGW1rhEoq4JyZ47HUuDr/f3QkBqHpowEIDYSKKmE36kyRJwo6TFp9nXRpz+fyTGAVgfUNSKotBqKAhUkjjKAdjMBQMkKFXB66UvBcWDUXWf2xWJYoD8GRIcgOVQBrVaH4zUNyKmsR1NXJ63xotdffx1paeINzw4cOICHH37YSz0Sk/vLkdw3AZFx4QiLDUVYVAg0bWqU5pejOK8MZSfL0eZm8qPgcAUS0pWIiItAREwoFJFBaKhsROnJcqjyylBeVAVtBzI4332FCg/OM5UnLgQOnTyzPzPtfDrAOhsNe+FLhI+9wFjOfeF+lzIdElHXUH38kGhaV8z1z/aoi0Ii8pxpY1RY8oipPOVOYG/e2XHBeLZYtWoVpBbJW26++eYzbhuUriYRgOIvVcDpnYy27wKm/efs+az43BTBs1lwQioixpiCK6iBgrXLvdchorOcamymeM3M/nwGV0RnsNVblMjPA9Bm+G/mRG/3iDwpLS3NKrjas2cPg6sOuHCkyhBltAFoBua8HObsKWcUn80ieFYRJEiecg1SFy4SJfMoX/ct0Mn51kTkPr2/H8omngPcdLHoeOCynrdJMBF5VvadZ89d+LPNuHHjRGW9Xo9XXnF9P1Uy+WG7EnHe213B6xhg9WBDnvgAkeddBEmA1Crpk04LHH2jZ8wHJjpbqBbPB2LDDSnVLT+UecUIPeKdjVCJiKjzRo4cKSpv3769Z2YPpB6PAVYPFhTXC9JA61SZOi2we95EtNU7zwBIRB4UH23YR8hScSWUDy7p/v4QEZHH5OXlQSIxrJ7R6XR44403vNwj8lU+F2Dp1B5O9+tDdFqgpSAfR5++FbV5h5w/gYi6VkMzsC8PMa9+1aUpoomIqOstXrzY212gM4RPZBGMzhpj3Nyu+ugeaJpd2wfA14UkpCEgNgEA0FpTgbr8o17uEdHZrTU5Fjo/w32pgIpaCLVnx3cRERERuc4nAiwiIiIiIiJfwDTtREREREREHsIAi4iIiIiIyEMYYBEREREREXkIAywiIiIiIiIPYYBFRERERETkIQywiIiIiIiIPIQBFhERERERkYcwwCIiIiIiIvIQBlhEREREREQewgCLiIiIiIjIQxhgEREREREReQgDLCIiIiIiIg9hgEVEREREROQhDLCIiIiIiIg8hAEWERERERGRhzDAIiIiIiIi8hAGWERERERERB7CAIuIiIiIiMhDGGARERERERF5CAMsIiIiIiIiD2GARURERERE5CEMsIiIiIiIiDyEARYREREREZGHMMAiIiIiIiLyEAZYREREREREHsIAi4iIiIiIyEMYYBEREREREXkIAywiIiIiIiIPYYBFRERERETkIQywiIiIiIiIPIQBFhERERERkYcwwCIiIiIiIvIQBlhEREREREQewgCLiIiIiIjIQxhgEREREREReQgDLCIiIiIiIg9hgEVEREREROQhDLCIiIiIiIg8hAEWERERERGRhzDAIiIiIiIi8hAGWERERERERB7CAIuIiIiIiMhDGGARERERERF5CAMsIiIiIiIiD2GARURERERE5CEMsIiIiIiIiDyEARYREREREZGHMMAiIiIiIiLyEAZYREREREREHsIAi4iIiIiIyEMYYBEREREREXkIAywiIiIiIiIPYYBFRERERETkIQywiIiIiIiIPIQBFhERERERkYcwwCIiIiIiIvIQBlhEREREREQewgCLiIiIiIjIQxhgEREREREReQgDLCIiIiIiIg9hgEVEREREROQhDLCIiIiIiIg8hAEWERERERGRhzDAIiIiIiIi8hAGWERERERERB7CAIuIiIiIiMhDZN7uAJ35svurMLS34d/bcoDdOUrvdoiIOixFWYWpw9UAgIMFwKYD/DwTERGZY4BFXSo4QINVz8P4Tlu2Gtid49UuEVEnzByvxp03nC7ogYEzW1BVH+DVPhEREfUkglKp1Hu7E2e6Sy/NwvgJfQAAlZWNWPTcj17uUfdZ9oAK/zj/dKENSLk2Gm1qqVf6knrZXCTd9Kj9Clottt4wAprG+u7rFJGPkUr1KFpZBvgbytt3AdP+w1EsIiKidhzB6gajs9MwdGiSsXy2BFgpyipTcAXgozXwWnAFAAEJqfCLCHZYRx4QxACrBwlJykDq3AchDTCNkOS8+hAay4u82Kuzm1YrYPFK4N5ZhvKoYcDAXiocOskgi4iICGCAdda7//4pGDQoDgBQXFKHRx7+zmNtf/6A2lRoA55cGuOxtunMFt4vE33vex3B/ftbPRa08i0GWF62+Gsl7p2hAk7HvV88CGTO926fiIiIegoGWGe5zKwEJCSEAQCioxUea1cZ2YCMvqby978DbRrvJq3M/fB55H/xpuhYxm1PInbqlV7qEVmKGXYe+t7zKvx7JTmvTF6j0wPLfgFumGYoxyYD6YkqHC/iKBYREREDrG5w8EAx+vWLBQDotDov96Z7PDWzUVR+7kvvTQ1sp2lrgaatRXRM39zgpd6QpfO+2AO/xDhvd4Nc9NLXCtwwzfQ5XzQLuOZ5L3aIiIioh2CA1Q1WrNiOFSu2e7sb3UYAcPkEU7m1AsgvjfZaf8g3+CfEwTLjjqayDpLgUEj8vdIlckBVHYzq0kZEnI6Jx40BZFIdNFpur0hERGc3/iUkj5t+vgqQm8ofrvNeX8g3tZZW4OADs/DH5X3RfGy/t7tDdry31qwgAHMnl3utL0RERD2FT4xgXXxxJiQSAQBw9GgZjh0rQVxcGMaP74exY9MQFxeKkycr8fffhdi06RhKSmpcbjsuLgwjR6YCAFpbNfjll4MAAEEALrpoCCZO7AtlXCj8/WQor2jAsWPl+OTjv1Bb22yzvaAgf2QNTXZwRh22bM5zqW/JyVHG7IP19S3YuPEoACA9Q4nZs0YjJSUCimB/lJXV4+CBEqxevReFhdV228vO7o2YmBDRsdBQU3Y2mVyKSy/NsvnchoZWbNhwxKV+X3eBuPz57y49zSggIgZxF1xiLKv+/AHNlSpE9B+KuAnTEZ49BbKgYNQd2YmaLT+jZNMatNXXuncSTxIEKEdOQMz4K+CfkAr/mATIFCFoKS9G09HdqNm/FdW7/nSYmME/NALxEy43lutz9qHy0E6XTp844QrIQ8MBAE2FuSjbuclh/fD0wYgcMQ5hWWOhyBgC6HRoOL4ftTs3oWzTWrcSSMj8ApB00XXGcuH6r6FpMGRhjMnMRtL1dyEgKR3y4DC01laipSAHBZ++hOpc66BJB6DtZCGOvXwnyvf85XIfvEHmF4CESdMRNnIiguJ6QR6thCCTo+VUHuqP7EDNvi2o2POX2xkpFXEpiBs/DeHZkxHYqx9aS06iavOPKNu4GvWFxyEPCkH0OabUnCWbfwL0zqcde/I1N7fidwUeusk0TfCq84D3z44kqURERHb5xD5Y63+7y/jvrVvzsWtnAeYvuMBu/Q/e34IVK7a51PaMGaPwr9vGGst33PEVWlo0eP21KxEQ6GfzOXq9Hq/8bwPWrt1n9dis2WMxe/Yoh+ecNPFVl/p2223jcfWMocbytdd8hJk3jMallw6y268XX1hnDBItffX1rYiMDHLp3JbUai0unPKGS3WLl6sgCW3vFBA3zb2F7/HjpmHAs0uM5dxF9yBmyrUIG27796rTAgfuvAIVe7e4dR4AGHTXC1BeOdtY3nJ5FporVS49V+ofiJFv/IDA/gMgCM7rq1avxMGX7rT5mH94NM79/oCxrG3U4PcLnSd6UMSlYPRXpumnmso6/HF5X5t1ZYoQDHt9LYL72n4cAAQ9kP/2szhukQzE7vljEjH6W1MgqPrmMxx9/xmM+uAPBCTF231e1R+/Ys+jN4qOyYNCoG6yDkhGv/0rFEOGGMv7F1yO8n1bXeqfp0X0H4oBT36CABfWiun1wLGnF6Jo3dcutZ161W3ofeeTdh8v+OBlBCSkInbqVcZjv/8jDdpW2zd7gK55zS2Vfms2Yt0MxM1gogsiIjq7+dwUwXPOSXIYXAHAzbeMwaOPTe1Q+4MGxuO99661G1wBgCAI6NO3+y8i5swZYze4Agz9evChf2LQoIRu7JVYYIDGFFwBqCztfJtpd79kN7gCAIkUyHrjO/SaOrPzJ3ODPCgYQQNcC64AQDntGoxdvhOy4BCrx1prKtCYd8JYlipkiB7iOFAHgLS5D4jKxd8tsVkvNnsSzvs+x+GFNgDoBaDXgscw8u1fnJ7bFklQMMZ8fchhcAUAwelDrI7ZCq56mrDB2S4FV4BhFLzff97EkCc+gLM3yaD7X3MYXAFAys33IXrMxa52tdte82Lzwa9AIDqsqUPtEBERnSl8YoqgOX9/U5fz8yuxd28x/P1kGDEiGdExpk1kJ07si99+O+LydLx2t/7rXAhmF0PNTW0oLq4DACjjQhAc7Hi1/ZHDpdi3TzzdJj09GgpF51fpX3jRAACG0aSDB0tQUFCD1NQIZGYmiuotWDgB829fbvX8Tz7eitGjU0XHxp6bZvx59Xo9Nv91wup5AFBVbf8uubnzB1aKyn8fc+lpDkkDDRkIBT3QcGA/avduRmCvDISMnABZgOEegV4AMh5ajKLfV3tto2BddTMaC3PQdOIwWk7lwl+ZiJABI6EYZAqKA1ISMfzlVdh22ySr5xd+8iL6Pf2OsZwy71FU3H2Zw3NGTzKNZgh64MTKt6zqBETFYsiLy6E3u8bX64G6XdvRdGgnJEEKBGeOgaJPH+PjIUMykTH7PuR++rJLP7uxPxdOF8USOjXQVlKEtsY6KJRJkEWEiPrh69pKytBcmIemvENQV5UhICkdYSMnwD/OlNQl5p+XID3vLhxf9orNNmKGnQfltGtEx9QNatTt+A1txScRds75CBpg+OxLIgJd6ld3vuabDgLXpJrKk4bVY+WGjo2UExERnQl8LsBq99GHW7F8uXia0HOLLkd2dqqxPH/+OLcDrPZgo7amGQsXrkRxsXg9V58+cXjyqaloamyx9XRs356H7dvF53z2ucsxZkyqzfruKi2tw79u/RwNDabzDxqciNdeu8rY9379YhAcHIiGBnFQtHbtPqtpjUuXzTXug9XSrMYTT6zuVP96WQzs5bs2284pvR7Yt2AaKvabpsPJAhUYu2I3ZFGGITO9APS//WkcePluz5zUCY26BXo90LB7J3Lefhg1R62njAJASEofjFi2yRh4KAYNQmBkLJqrykT1ijauQh/1O5Ccnm4VNnw0JDI5dBo1bIkdOV6UXa/uwD5oW6wD4axnxBfaLUWl2LVgMloqxeePP38q+j/3kbGfyTfdh/xv3jOuqXKFMbhSA4cfn4eSv34QPe4fHo1B//kQ8rBIl9vsSTR1VYAaKF/3LXLffdLqNWyXctH1yHjkf6by9ffaDbD63iOeMtxw7Bi23zoB0GqNx5ImXYm+T1oHz/Z052tu+RlP5X7iRER0lvO5KYIAsHNHoVVwBQCPPrIKtTWmC8yEhDD06+d4qpItpwqqceWVS6yCKwDIySnFzOs/wpIljhMJdAW9Xo9bb1kuCq4A4OCBIuzZXSg6lpoa1Z1dM0qyuLgqrfJMuycWPywKrgBA09yIzTcMFx2LvuQ6SGRydAdNQz02jIvH33debDe4AoD6ghyc+nCx6FiCremMej0q131rLAoC0GvaHLvtJs8STw88+eEzVnWis8aI1i9pm7XYeuMoqwttACjZ9AMK3n5WdP6Bd71k9/z26NTAX9MHWwVXgGEq5K67L8O2eefbeGbPV/jLl/htUjz2L5pvN7gCgIIfP0fT4cPGshAigyIuxapeeL9M0abKulZg+83jRMEVABSu/wZlP7i2lqu7X/Nii894one+eoiIiHoMnwywPv7Yfoax79ccEJWnTct0u/0nn1wLvb7n5f7YuvUkGhtbbT7200+HReWkpPDu6JKVZIuBiRL7SQ1dptcD+Ws+s/mYpqEejTk5xrJECkSPcLxGz6NcfJ+o1n8rKgelDbRZL+/950TlxBkLbNaTyP0QnjXMWNY2a21mD+x18+Oi8uEnZkGnbrPbz+NfvAlts+niPnRwtt269hR+uhitNRVuP89nuPiaV1gEmCHp1q950qVzRWXVD0vttn/iA9d28e3u19zyJkqCbw5OEhEReYzPTRFsbdXg8OESu49/8/VO3HDDSGM5ITHUbl1bjudWID+/Z14cbtuab/exoiJxJJNsGel0k6AAcbnZ9kxKtzTu32N1R9+c6v8+Qu/7TBefwcl9UbZ1fedP3AH+oRFQpGQgJKUvpArTe0+QSkX15MG235eN5UVoKSwxJonwS4yDIibRKo12ymXzRFPAKn5YZrO9oMQ0cVmZgtTL5tqsC4mhj9rGBkgDDdNGZXGuJXQwUgO5ny12Xu9MIQhQRCdAkdoHQUkZotFTRdoAUVW/UOvPZGCyOAFFwef2M3U2lhehrboBfhHBdusA3f+a11vc81EE2K5HRER0tvC5AKuu1vEVe11dC/R6vXE9UmysdcY2Rw4fsT/tx9tOnqy0+1hFRaOoHBjUPdPkLJVabEcVE9H5NltK8h0+3lSYKyoHpvbv/EndEJKQhj73v4qI4aNdTuAg+NtPVlC09GWkP2wKUtLmPoQDL/5bVCdpxnxROfcT29O65OHiF8A8EHWFRAr4hUWhrdb+e89cW0WZS/sy+TrlqIlIv3ux02yJ5iQB1okf/JXiBDWNqlMO21BXlzsNsLr7NY+zGCxXeXFLOiIiop7A56YI1tU5HxLRaEwXeGGh7t1OPZHXM0evAKCsrM7uYz1lSmNhubgc74EAq7WkwOHjTSXii9IAizv4XWnwY0swcuUWhI9wPbgCAIkgtfvYyR9XQGc2YBc9+WrR40Ex8fCLjzWWG/NO2JySJ/UPNO1P1AnyQIXLdVtLHAcIvk4i98PYFbsxaPHnbgVXAACp9f0saaRp0aJOC6fTD9UO1n0B3nnN4yw+48WuxWVERERnLJ8bwWqwk73PnHmw4efn3o946pSHsjJ0gZ4SRDlyyuLiSumBmYrqOscLudQN4lvm8rBoOzU9q/8tjyF2yjTRMUEPtKgqoK4ohbq6FDqzqY1R46e41rBeh+pNvyBq/GQAgMTfMGKi2v4bAKD3bHFyi6LPbKfVDowSp3TUqYHaDkydbG1wfSFdS/Fxt9v3JSPf22AVWOm0QFtJCVorSqCpqQBg+JwGpPSForfjYF+QmQXaLgz8CYLje2LeeM0tk1oUlNuuR0REdLbwuQArNNT5nVXRPlYttlNc29PaqnG7T2RywGIbrazUzrfpF+14TYh/ZKyo3FZV3PmTOiNIEDdzoehQxbo1OLT4bpsprmWKEFwwPsfquD157z1tDLAAIGXOQ8YAK2ryDONxnRoo/O1bq+cDQIPldLOGZux+pGs3Y9aobSdhORNE9B8KRZ90Y1nQAyfeeAp53y6xuUaw16Wzkf7ACw7b1NXVQXJ6mwEbA1xW5EGOpwd64zUfni4uHz7ZpacjIiLq8XwuwAoLc75hr1xuuitcU93Uld0hCwfzlYBGZXxnZXpgtp6/Mtnh40FxvUTl1lMdH0URJK7Nmk0cf1l7fgAAQM2Obdj31M1264dnDHarH/WFuVCrqiA/PQQYOjgTUv9ARA4YZtx4GQAqN66xP61Mq4WuFaa9soJd26T2TCQIArKysiCVWk/NPHz4MJqanH9PpMy8R1Q+vvhh5P/fx3brh/ZxnsG0raxItI+bPCgE6ib7e1BJI5xsMuWF13y4eZ4OPbDpgNJuXSIiorOB7wVYoQEQBMHudLnkZPF8lbIy1zfMPNtJpJ5ZkldcBCS0xzzBQICfFi1t9tccORPY23ZK83ahA0eKyo0njrjctqZePL0wIDoOTeX2s1S2CxswQlQuXPm64/pD3E93fuqL19H7zicBGC6+0678F8JGTRTVOfHBszaeadJWUYqARMMIoEQOSAMCbW5GfKZLTk7GM89Y7xMGAI8//jj27NnjtI3AXuKMf/mrP3VYP6jvUKdtNhXlIWiAKdtg3AWX4NRPK2zWlUhl8FM6n/7ana+5VKqHPMxUri8HdD1/JjMREVGX8rkkF1KZBP/4xwC7j984a5SofPKk9WbBZGK+MbOfX8eDIHM/7xKXJw7tXOKQoLRU+Ifaz5YRe+ksUbkh76DLbdcfF9cNTndtpEkaIE6eoql1sHZPEJB0w70u96ldwaoPRYNTidcsQOgw0/tbXVqJhuJ8h200W/wuBtzt/sbBZCDxM73mej0cZksMUiZBMWiQ0zbr9vwpKiffeJ/duimX3AjBhUQq3fmaj+5XBpj1ab3zOJWIiOiM53MBFgDMmZtt80IjMNAPF1yQITr2xRd/d1OvfFNxiWkERxAEnHNOSqfbfGetOI3Z/Is73ST6LLA9+hA54Bz4RZtuoWsbNajYv93ldutzxRtTJ197p0vPqz28U1RWTrraTk0gY9a9kCrcHyzWadSo3fKHsSyNDBG970+ttL9nUrtjrzwAwSxIU150FYJiXMh+J5Ui5ZIbIXMjm9yZruXkUeO/BcHw3rNn4DNLXWozf/Wn0JvtARyQkojECVdY1ZMHhSD5tqddarM7X/M7LxOX31nr8lOJiIjOWD4ZYMXFheLNt64TJbNQKPyxfPlc0fqrA/uLUVHBKYKO5OaIU349++wlGD06XfS7dVeBKhJVZvvijsgEJB1vDgAQO/Uq9L/lMdGxiP5DkfnOj6Jjpz52b8+f+qI8aBtNiU38eyVh2OLvEJ4+GBKpzPifZURftXezqJwwYx7isieLjkEQMPixJUi52f6ohDMn3rc9BVCvN4xwOdNYXgTVatOUM70AjP5mN9KvXWizviImEUOe+ADj1xch48GXED1yQsc63kHRWWOQOOEK0X/yaPGanujsKVZ1FHGdvzHgTO1BceA+5JXvEZIgXmQoCw7Buct2IHSA/VF2Eb0ORcvFgXK/p99B/1seQ0BULCBIEJ01BqO/2A15sGv517vzNR9nNju3tQLYm8f1V0RERD63Bqtd//5K/LruDlRVNkEmkyI0zN8qKFi8+Ldu7dPDD0/FueemWh0PCBRfGK1ZM9+qDgDcdtsKFBa6nh7ZE777bhfm3TTGGJgGBPph0fOXAgC0Gh10p+eoNTWqMX36uy63+9RK4LX2nAAy4JrxKqzY0LmLr4RZCxF33ULo6uog9QuCECJ+++rbgLwv33GvUb0eJ157ABmP/M94KHzUGAwbtU5UraWgCJtnDjeWG4rz0XQiH0FpqYZmBGDgS5+hb2UdNI31kMjlkMXGihJhdER17j5oq+ohjRRvmF2362/oNK5lyDz0yv2InHINZAGG+ymCAPRa8BiSb3sMmupaQN0KyP3hFxbmkT2UOmPwa985/Z3F33g7LMdjSlZ+hMNvPtJl/QKAgq+XIHnO/ZCc/h1JFTKMXLkFLYUlgE4HeXAoZBEhbu2HBgC5n74A5dW3iQKohFkLkTDLdkDkiu54zS8epRI996VVHe4uERHRGcXnRrBOFVRDe3ojYUEQEBWtQFh4gCi40uv1ePaZn1BQ0L2bBg8cpERgkJ/Vf5aBn606gUF+kMu7P95Vq3V45X8bbD4mlUkgl0shl0sRpHDvKuzLDUrA7Pr//ukd72PDPtPCDokckEWFWgVXmhYddsw+z+G6GHsKfvwclRt/dlhHHhxqdWzvXdNEGwIDhr4FpCTCL14cXKm++VQ0bcsdRd++Z3Ws4JP/uvx8nVaDbVcOQtPhw6LjEingFx0Gv/hYwzRLLwdXPZ26qR5HnrTOFBmQFI+AlERII03BlaA3vOau0Gk12DK9vyFQc0DbrEXdlqXJTvkAACAASURBVD8d1jFvs6tf84dmmBX0wLtrnGQ4JCIiOkv4XIBVVFyLf//7K7Q0t9l8vLmpDbffthIbNriWSa65+czct6e5yfX9v37++QBumrcM27adRGNjq80MjVqN9T4/jugBvLbSVE5IBYb0VrnVRrvSNZ/h5FvPWQUz7VoKS7D5in6oL8ztUPsAsPfx2Tj82K1oOpEPnYtvieaqMmybnml1EWtO3wbkLroHB199ULSPrLalweW+FVpkq9M2a1G+5y+Xnw8ArXXV2HrrBOQuusfpz6fXA4379yPnubtR9tdPDuuq25xv/O0OifvxsUu0Nvap6ojSP9Zgz+2Xoq3a/uunqazDzrn/QMnPX4iO6xrr7D+nuRGbrx8O1arPoVZVGYNxQW9IZlK+5ktsvrw/dGZBu6AHtK32swN21WsOAOnxFejTz1RevgbQaH3uzwkREVGXEJRKZY9Pqrv+t7uM/966NR+PPmKYixIVFYzx4/siLDwQpSV12Lo1D1VVjd7qJlkQAJSsUAGn90YtOA6Musv5NMH4cdMw4NklxnLuontQ8OPnAIDw9MFQTrgMWnUrGvMOoezvDT0i7XhwQioiMscgtP85EAIVaCnOR92BrSjbuanTbfe7+VEkzv63saz65jMcfPWBTrUpDQhE1KARCB2cDVlAMPTQo7ngGBryD6PqyB77e2uRUXi/TEQMGg1FvyxArUZzYR7KNv+E+gLXN5S2SxAQEp+KelWBaBPj7M+2Gqelahs1+P3CJJeb9ORrvuFFFYzLzFqBpGtiGGARERGd5rNrsACgsrIB33yzy3lF8go9gFtfB5acXhqTkg5k9VZ1aiF8zfEDqDl+wHnFbtZQnG9ImW5nD6POSJh+u6h8/NPOp93WtjSjbOcmjwSAZ6uao/tQc3Rf1zSu16O++ITV4YCEVOO/NRWlbjXpqdc8PdEsuALw8BKOXhEREZnjX0XqUqu3KJGfB6DN8N/Mic6eQeZSL5srWm/WlJuHlupyB8+gM1XKJTdC4m8q1+d4Z9Opey6H8fNcXgh8/AszBxIREZnz6REs8g3Zd/ICzF3yoBCkXjMfibPvFh3Pe+9xL/WIutLoT7cAAAqXLkbR+m+spuvFnXshMu4xjVwKeuDIqw92ax/bLXhLiQVveeXUREREPoEBFlEPMvaLPZBHxkAWILVK991WVIqyreu90zHqUoERcZBEBKLff95En8fehKasDE1FJyCVyxGYlAFZlDiLZfGqpWirrfRSb4mIiMgRBlhEPYh/TBwEP8P6NXOayjpsmTPGK32i7iWRwpBGPT7W5uP1e3fh6Otdu+cXERERdZzPrcFSt3km3TL5Dm2rZ1OB+xJdK1C7Zxc2X3dOj8iWSF2j4s810DY7/m7TtQJHHv8X/l441eVNpomIiKj7+USa9iFDkoyb9ebkqNBsZw8sOjPIg0IQ3jfTUNBpUb5vq3c71I0i+g+FLEABAGg4lYvmyo7tHUa+yS8sCpGDRyJQmQJ/ZSI0TfWoO7QDVYd2QtNY7+3uERERkQt8IsAiIiIiIiLyBT43RZCIiIiIiKinYoBFRERERETkIQywiIiIiIiIPIQBFhERERERkYcwwCIiIiIiIvIQBlhEREREREQewgCLiIiIiIjIQxhgEREREREReQgDLCIiIiIiIg9hgEVEREREROQhDLCIiIiIiIg8hAEWERERERGRhzDAIiIiIiIi8hAGWERERERERB4i83YH6MyX3V+Fob0N/96WA+zOUXq3Q0TUo4wZpEJWL8O/f90txfGSaO92iIiIqBMYYFGXCg7QYNXzML7Tlq0Gdud4tUtE1MO8NA/I6Gv498MVWvSa693+EBERdQYDrG5w6aVZGD+hDwCgsrIRi5770cs96j7v3lFpepe1AY984r0706mXzUXSTY/ar6DVYusNI6BprO++TpFjggRSP39oW5u93RPqQre8Bmx4y/Bv/2hg7mQVPv6FI91EROSbGGB1g9HZaRg6NMlYPlsCrBRlFf5xvqn80RqgTS31Wn8CElLhFxHssI48IIgBlhdFDxmFlBvuhaJPJqThEZDIDcd1WkBfW4+WonzkvvUIKg/+7d2OkkcdLlAi56gKffoZys/fCixdr4NGy2XCRETkexhgneXuv38KBg2KAwAUl9ThkYe/81jbnz+gNhXagCeXxnisbTqzZFx/FxLn3A9poO0AXCIFEBkCReQQZL37PRr378e+x29Ac6WqeztKXWbuq8Cf75wu+AOL5pbjgQ84ikVERL6HtwfPcplZCUhOiUBySgQyh8R7rF1lZINxTQUAfP870Kbx7tst98PnsXnaENF/ZT9849U+kUHspbPtBle2KIYMwagVuyDzC+jCXlF3yi1UorzQVJ51off6QkRE1BkMsLrBwQPFqKpqQlVVEyrKG7zdnW7x1MxGUfm5L703NbCdpq0FLdXlov/0zWfH6+FrtFX1qN+1E8XL3kPeyw+j5Lul0NdrRHWkgVJkLf7WSz2krvD6arOCPzDjAo5QEhGR7+EUwW6wYsV2rFix3dvd6DYCgMsnmMqtFUB+KdMuk3MNx44h56U7UH1kj9Vjh195EEOf+RSR4/5pPBY2dBjC0wej5viB7uwmdZFPf43BM7eXG75EADx+HfDlH97tExERkbs4gkUeN/18FSA3lT9c572+kG/Ife0+/H3dudh+0wU2gysAgF6HPY/PhrpWnFEwevQ/uqGH1B3aNBIcOmwqxyQBygiOMhMRkW/xiRGsiy/OhERiuKV59GgZjh0rQVxcGMaP74exY9MQFxeKkycr8fffhdi06RhKSmpcbjsuLgwjR6YCAFpbNfjll4MAAEEALrpoCCZO7AtlXCj8/WQor2jAsWPl+OTjv1BbazttdFCQP7KGJjs4ow5bNue51Lfk5Chj9sH6+hZs3HgUAJCeocTsWaORkhIBRbA/ysrqcfBACVav3ovCwmq77WVn90ZMTIjoWGioaQ2LTC7FpZdm2XxuQ0MrNmw44lK/r7tAXP78d5eeZhQQEYO4Cy4xllV//oDmShUi+g9F3ITpCM+eAllQMOqO7ETNlp9RsmkN2upr3TuJJwkClCMnIGb8FfBPSIV/TAJkihC0lBej6ehu1Ozfiupdf6KxvMhuE/6hEYifcLmxXJ+zD5WHdrp0+sQJV0AeGg4AaCrMRdnOTQ7rh6cPRuSIcQjLGgtFxhBAp0PD8f2o3bkJZZvWOuynJZlfAJIuus5YLlz/NTQNhiyMMZnZSLr+LgQkpUMeHIbW2kq0FOSg4NOXUJ27X9RO2db1rp1Qr0P1xlWIvcx0zvCh5wGfv+pynzsjdvj5CErKAAA05B1ExX7DyHTC+MuQeMWt8FcmQvDzR1NBDur2/oUTX7wJTXOjoyaNZH4BSJg0HWEjJyIorhfk0UoIMjlaTuWh/sgO1Ozbgoo9fznMchmckIrokYbhY01DHcr//g3pN9yH8POnQqduRc2mNTjx1btoralAUEw8Uq66DVHnXgy9TIa6vX8h76Pn0aQqtNu+kVSKmKwxiBw2DsGDsxGUkgFNfZ2hn7v+QOkfa1z+uS19/SfwxEBT+YpzG/HuGsfZP4mIiHoSQalU6r3dCWfW/3aX8d9bt+Zj184CzF9wgd36H7y/BStWbHOp7RkzRuFft401lu+44yu0tGjw+mtXIiDQz+Zz9Ho9XvnfBqxdu8/qsVmzx2L27FEOzzlpomsXg7fdNh5XzxhqLF97zUeYecNoXHrpILv9evGFdcYg0dJXX9+KyMggl85tSa3W4sIpb7hUt3i5CpLQ9k4BcdPcywQWP24aBjy7xFjOXXQPYqZci7Dhtn+vOi1w4M4rULF3i1vnAYBBd70A5ZWzjeUtl2e5nJlO6h+IkW/8gMD+AyAIzuurVq/EwZfutPmYf3g0zv3eNM1N26jB7xcm2axrThGXgtFfmaafairr8MflfW3WlSlCMOz1tQjua/txABD0QP7bz+L4F286PTcAKGISMfpbUyCo+uYzHH3/GYz64A8EJNlPmlL1x6/Y8+iNLp3DUvq1C9FrwWPGcsORI9h+y/gOteWu7M+2IigtFQCgbwM2TE7E2GU77P6smhYd9vxrIury7N+ciOg/FAOe/AQBiXFOz6/XA8eeXoiidV/bfDxj9n1Iufk+AIbPBeqaIYkIFNXRVTdj840jMPabg5D4W7TfBmy79hw0lZfY7UNY74HIfOtnyIPlduvo24D993TsM5kaV4Gt72uN5b37gCmPMpsgERH5Dp+bInjOOUkOgysAuPmWMXj0sakdan/QwHi89961doMrABAEAX36dv8f/DlzxtgNrgBDvx586J8YNCihG3slFhigMQVXACpLO99m2t0v2Q2uAEMK76w3vkOvqTM7fzI3yIOCETTAteAKAJTTrsHY5TshCw6xeqy1pgKNeSeMZalChughjgN1AEib+4CoXPzdEpv1YrMn4bzvcxwGVwCgF4BeCx7DyLd/cXpuWyRBwRjz9SGHwRUABKcP6VD7ABAyZLSoXL93c4fb6qwR76xz+LPKAiQY9tFGSOT2v0/CBme7FFwBhpH1fv95E0Oe+ADO3ngSKayCK8Bw7Lw11sEVAAh+wICH37F+4LS+8x7FiE9+cxhctbeT+eZ36DvPwcbeduSXRgNm+UyyMtxugoiIyKt8YoqgOX9/U5fz8yuxd28x/P1kGDEiGdExpmkkEyf2xW+/HXF5Ol67W/91LgSzC5fmpjYUF9cBAJRxIQgOtnFVYubI4VLs2yeeYpWeHg2FwvHzXHHhRQMAGEaTDh4sQUFBDVJTI5CZmSiqt2DhBMy/fbnV8z/5eCtGj04VHRt7bprx59Xr9dj81wmr5wFAVbXtKZGWzh9YKSr/fcylpznUnr5b0AMNB/ajdu9mBPbKQMjICZAFGO4R6AUg46HFKPp9tdc2CtZVN6OxMAdNJw6j5VQu/JWJCBkwEopBpqA4ICURw19ehW23TbJ6fuEnL6Lf06aL25R5j6Li7sscnjN60lXGfwt64MTKt6zqBETFYsiLy6E3ux7X64G6XdvRdGgnJEEKBGeOgaJPH+PjIUMykTH7PuR++rJLP7uxPxdOF13369RAW0kR2hrroFAmQRYRIupHRwQPFAeeFX+stlOzawl+QOiA05/J2mY07NsMTW0lQoeMhX8v0+ijRAqk33A3cj5+waV220rK0FyYh6a8Q1BXlSEgKR1hIyfAP86UKCbmn5cgPe8uHF/2isO2dFqgZMW78IuKRcxF060er9z4M1ryjyJ+5h3GTZ1DMrNttpU0eQaS5v4b5lMeNC061P/9G+qP7kVQcjpCh0+AX3SY6Tlz/w3Vxu9Qm3fIpZ/d2K9yIKo9bg0C/ORar25STkRE5A6fC7DaffThVixfvlV07LlFlyM7O9VYnj9/nNsBVnuwUVvTjIULV6K4WLyeq0+fODz51FQ0NbbYfP727XnYvl18zmefuxxjxqTarO+u0tI6/OvWz9HQYDr/oMGJeO21q4x979cvBsHBgWhoEAdFa9fus5rWuHTZXCQkGC6IWprVeOKJzl2s9rIY2Mv3UJZlvR7Yt2Cacc0LAMgCFRi7YjdkUYYhM70A9L/9aRx4+W7PnNQJjboFej3QsHsnct5+GDVHraeMAkBISh+MWLbJGHgoBg1CYGQsmqvKRPWKNq5CH/U7xgvdsOGjIZHJodOoYUvsyPGiUYi6A/ugbbEOhLOeEQdXLUWl2LVgMloqxeePP38q+j/3kbGfyTfdh/xv3jOuqXKFMbhSA4cfn4eSv34QPe4fHo1B//kQ8rBIl9s0F5OZLbqAF/RA+X7vZuis3Pgz9j4xx/AmPa3vvEeRNPffxnLcjIV2AyxNXRWgBsrXfYvcd5+0el+0S7noemQ88j9T+fp7nQZYJ19/Aie+NYxqjlT2Qsiw4cbHavfswt7HDdNjm1WnkPHgSwAAiT8QGKUUT5WVSpHxwOtWP/f+J2+CTitOnz/g9qcRf/2txvKQ/36BP2dkOuynpbIaswALQEJUNTOREhGRz/C5KYIAsHNHoVVwBQCPPrIKtTWmC8yEhDD06+f+5rmnCqpx5ZVLrIIrAMjJKcXM6z/CkiWOEwl0Bb1ej1tvWS4KrgDg4IEi7NktXpiemhrVnV0zSooRl0urPNPuicUPi4IrANA0N2LzDcNFx6IvuQ4SmePpS56iaajHhnHx+PvOi+0GVwBQX5CDUx8uFh1LsDWdUa9H5TrTvk6CAPSaNsduu8mzxNMDT374jFWd6KwxUAwxTcfTNmux9cZRVsEVAJRs+gEFbz8rOv/Au16ye357dGrgr+mDrYIrwDAVctfdl2HbvPPdbhdSKfovWiE6VPr9SkCvc78tD2mrqDUEKXrxUtZjHz0HbbNpHZGfwv57svCXL/HbpHjsXzTfbnAFAAU/fo6mw6YUe0KIDIq4FIf9U2363vjv6m2/ih6r/v/27jw8quruA/j3zpaZLJN9IRuBIAYIoJRVfRX3t61i64Y+WhCrFrfivlDw1Yq2b1vqUn2o1Pe1IgpYUauI4KvCUyoERWSToITsO1nIMkkms71/DJmZM3PvLMkkmWm/n+fJ8+Tce+6Zk+Rmnvndc87v/PMj1/fNe7YL5wxjxHYn3/OMEMx3HXQGZ97BFQCUrnkCXYfd/w+6MRnImnuZ3356O+n11puXZpOvSEREFIGiMsB67bUvFM99uEXcD2fBgtCenALAk09+BIcj8nJ/lJRUwWQyy57btq1UKOfmJo1El3zkeQ1MNCgnNQyawwFUblkne87a3QXT8eOuskoNpM30v0YvrIK8T5o+EzfEjR03WbZe+V+eEco5198tW0+l1SFp+gxX2dZrk80eOPa2lUK59IlFsFv6Fft5YuNLQmBgLJafLuZP7eurYT7VEvJ1gcx49i1oE91rimy9NpQ+91DYXycUVa88qXiuc99O1/cOyTniqijI+6jFK2hNKJS/jwZ4Jqsw1YjzdU0ee4d5B9wxieKTkrQrFrm+lxzA/oeu8fu6R1bcLF5/3g/91vfW7BVgeT+4ISIiimRRN0XQbLaitFQ5w9Xmd77GzTfPcpWzc4yKdeWcKGtBZWX4PxyGw96SSsVzdXViJJPnHemMkFi9WO6Vn0kZEtPhA4BN+Ql209//F+Mf+o2rHJ83Mfi032EWY0xGXP4EJORPhDrOfe9JanH9iDZe/r40naxDX22DK3GCLicLcek5PqnT86+6VZj217J1vWx7sTnjxHJmPgquWiLfeZWzjzZTN9QG5zQ8TVZwyRdcLEDZutWB64Vo/HV3IumcC1xlyQEcWHqp4vTJkdLwzy2K58yN1UI5PntccBsiSxLi0rIRV3AGYnMnCCOyceMmCVV1RuX/c++Yze6VNt1i6hRf1gHXPaVLTPY4oXKtdQQAmx3IvfR6SCqZ53Mq933ucLinjMZPmeNb148er2cA8Xr5ekRERJEo6gKszg7/n9g7O/vgcDhc65EyMnwztvlTekx5is5oq6pqVTzX0iJ+eDLEjsw0OW+NXttRpSfL1wtFX0Ol3/M9tWVC2VBQNPQXDUFC9jic8fDzSP7BnKATOEgxvtndBtS98QcUPu4OUsYteQxHfnevUCf3+ruEctlf5afyaZPEP4BnIBoMlRrQJaaiv0P53vPU39Ic9il7WedfgYJf/pdwrOy3D4acOCHcJAf8rk8zN9cLZbnskZ4yZ1+EwvtXB8zA6EmlV952wfvP4B1QWUziBr52AAO3r8YjcEvMF9P4qdRA4SPBJewYoMstCKl+eqJYrg/u9iMiIooIUTdFsLMz8JCI1er+ZJFoDO3RZ0V5ZI5eAUBzc6fiuUiZ0lh7UiyPCUOAZW6o9nu+p6FGKOu9Rm2GU/GKtZi1aQ+SZgYfXAGASlLOiFb18QbnHkanpV12nXA+Nn0MdGMyXGVTeYXslDx1jAEIQ5yt9Te1zYvZ628xVOnT5mLKqleFYw1vrEHVVt8smSNNZvmRl+D+J1VaHc7Z8A2mrH4rpOAKAKD284zMK8CymcXpxfZ+sSwEZBp3u8ZJ4jrHwVDLjXb5ke41wFsbuW/LREREPqJuBKtbIXufJ89gQ6cL7UesqQlTVoZhEClBlD81Xk+aM8MwU9HS6X8hl6VbHDbTJo5MtrGi21cg4/IFwjHJAfQ1tcDS0ghLeyPsHlMbU+dfHlzDDjvad32C1PnOxACqGOfoRtOXnwMAxi8Wk1vUrZNPpW5IFVM62i1AxyCmTpq7g19I11d/IuT2lRjHF6H4pfeFwPXkJx+idO1TYXuNoZDC9O8465UdPoGV3Qb0NzTA3NIA66kWDARr+vyJiBsfngcIDq8hLpUdgEzcr8sQ99Wztnai6+hXIb1Wf5Cbdw9I81pCWtca2kwEIiKi0RR1AZbRGPhpurCPVV9oazTM5oCPpcmPI17baE0vGHqbujT/64BiUjKEcn9bvULNMJJUyLrpHuFQy6dbcHT1/bLTxjRxCTh//nGf40rKX/m1K8ACgPxbHnMFWKmXXe86brcAtZ+/63M9AHQ3eY0mdffim+XDuxmz1SKfhCVUcVn5mPnqTvecNQCn9u3F4advD0v7kSK56CzEnVHoKksOoOJPT6H83bWy6w7HXrk45Ol5Q9VTISbQ6Tr61bDfRwWeSS0cQGuH8lRIIiKiSBN1AVZiYuANe7Va92PYU+09w9kd8vJtZSZgbXLdWdPC8LA9JjPP7/nYrLFC2Vwz+FEU2YX7MnLmX+W5nh+n9u3FoaduU6yfNKE4pH501ZbB0tQG7ekhQGPxNKhjDEiZNMO18TIAtO7copyBzmaD3Qx3eu145XVfkcSQkoFZ678Upjd2HzuG/Q/8ZNBtSpKE6dOnQ632HaIpLS1FT8/ovE/k3/SAUD6x+nFU/v01xfrGM0LPijpUp45+LZTVadkKNcNDp7UBHgNWHc3BTrYkIiKKDNEXYBn1kCRJcbpcXp64/1Nzc/CbpP67U6nDsySvvg7IHoh54gG9zoa+fuU1R4EYxvtPRW2cPEsomyqOBd22tUucXqhPyxJSWytJnDRTKNduelGh5un6U0NPd16z8UWMX/YkAGd2t3HX/AKJsy8S6lS8ukrmSrf+lkboc5wjgCotoNYbZDcjjhS6hETMXb8fksdzlL7qOny59OKgU5nLycvLw9NP++4TBgArV67EgQMHBt32UBjGThTKlR+87rd+7MSzhrM7snpbm4QMg3GZucP6evOniguuPj84rC9HREQUdlGX5EKtUeGSSyYpnv/ZotlCuarKd7NgcvPcmFmnG3wQ5Gn7frF80VlDW6EeO64AMUblbBkZVy4Syt3l3wbddtcJsW58YXAjTWq9mDzF2uFn7Z4kIffmB4Pu04Dq9/9HiClyFt4N4wz3/W1pbEV3faXfNnq9fheT7g994+CRotYbMG/9PkgJ7uc+lqY2lNwyz2+a/mim0rnvI4cDfjMwxmbmIm7KlBHolS+bx/uEOiUBGXMvHrbX+rH4Fo7NytseEhERRaSoC7AA4JYlcyHJZGwzGHQ4/3wxpfDGjaEtxv53U9/gHsGRJAlnn50/5DbXfCSmrrvrx0NuEmfcLT/6kDLpbOjS3DmdbSYrWg5/GXS7XWXivkR5NywL6rqOUnHaVObF1ynUBCYsehDquNAHi+1WCzr2/MNVVqckCPd9zaY/BWzj++ceEZIxZP7wWsSmB5GpTq1G/hU/8785bhipNFqc88Y+qFPcc8P627ux++Yf+N0YOdr1VX3n+l6SnPezkslPvzESXZJV8ecVQrnosTVQ+ctgeJomPgH5VywKWM/TNed5FKzAjoMZinWJiIgiUVQGWFlZRrz08o1CMou4uBi8+eYSYf3VkcP1aGnhFEF/yo6LedVXrboCc+YUCr/bUFU3paDNY1/cmdMA1eCbAwBk/OhaFN0ufshLLjoL09Z8LByreS20fZ666sphM7kTm8SMzcWM1e8hqbAYKrXG9eUd0bcd3C2Us6+/FVlzLxOOQZJQvGIt8m97KKQ+ear4i/wUQIfDOcIViOlkHZo+2OC+TgLmbP4GhTfcI1s/Lj0HU594FfM/q8OER3+PtFkXDq7jIZq1die0WeL03tp1f8CYCxYg9/KFfr98fu9RpONb8WHA1Oc+REK2uHBRE5+Ac9fvg3GS8sj9cKva+ib66xrdfUo14j8+rkL6jPNk66cUz8Lsl7fhgq3HMeHR3wX9OhPzmqDx2APrky8Am22Ibx5EREQjLOrWYA0oKsrE/336S7S19kCjUcOYGOMTFKxe/fmI9unxx3+Ec88t8DmuN4gjOlu23OVTBwCWLt2A2trgU2KHw3vv7cetP5/nCkz1Bh2e/c2VAACb1Q776TlqPSYLrr76z0G3+9Qm4IWB9fsaYOH8JmzYken3mkCyF92DrBvvgb2zE2pdrDCVDAAc/UD522tCa9ThQMULj2DC8j+6DiXNnocZsz8VqvVV12H3Te79gLrrK9FTUYnYcQXOZiRg8u/XYWJrJ6ymLqi0WmgyMoREGIPRXnYItrYuYWQHADr3fwW7NbgMmUefexgply+ERu98niJJwNi7VyBv6QpY2zsAixnQxkCXmBiWfbMGwzC+0OfYwPqzQKx9djReOryJF4ZL9TtrkXfLw1Cd/r2r4zSYtWkP+mobALsd2ngjNMkJIe2xNlwOLb8BM1/f6SqrDWpMfeEd2C2AtbkRkloLdUwspCSD63lEqKvmli8UyyveGKUbkoiIaAiibgSrprodttMbCUuShNS0OCQm6YXgyuFwYNXT21BdPbK7U06ekglDrM7nyzvwk6tjiNVBqx35eNdiseO5P+6QPafWqKDVqqHVqhEbF9oHnbd3ZAIen/8fvnrwfew+5E5AoNI6n557B1fWPjv2LT7P7xoWJdUfv4XWndv91tHGG32OHbxvgbAhMODsmz4/B7oxYnDVtPn1Qe+bVPfuKz7Hqv/626Cvt9us2HvNFPSUnwmfnwAABMxJREFUium2VWpAl5YI3ZgM5zRLfpYdcZaeLhx70jf7pD53DPT5OVCnuIMryeG8j0ZLZ/kxfLPkMlg6xCQpKi2gy8mCNisVqmSD7PTtYEgA/tMjF8zJWudoOBERUbSJugCrrr4D9977N/T1yq/L6O3px51LN2HHjuAyyfX2hmffnkjT2xP8/l/btx/Bz29dj717q2AymWUzNNqsoSUZcAB4YZO7nF0ATB0f2majAxq3rEPVy8/4BDMD+mobsPunZ6KrtmxQ7QPAwZWLUbriDvRUVMIe5C3R29aMvVdP8wlcPDn6gbJnH8C3zz8Kz9DP1tcddN9qvTLL2XptOHkgtJX/5s52lNxxIcqefSDgz+dwAKbDh3H8mfvR/MU2v3Ut/YE3/h5ujiDuTVsEJMmwmeT/5o3/2IIDd16J/nble8La2omvl1yChu0bheN2U6fiNXZb6A8bXNf2yPelvewQdl1ZiOYP/xYwqaPdDLTv+hSHl10b1Gsu+0kT4JE98heBlxgSERFFJCkzMzPitxj57PP7XN+XlFTiV8vfBwCkpsZj/vyJSEwyoLGhEyUl5WhrM41WN8mLBKBhQxMQ7yxXnwBm3xd4muCYCxZg0qq1rnLZsw+g+uO3AABJhcXIvPAq2CxmmMqPovmrHRGRdjw+uwDJ0+bBWHQ2JEMc+uor0XmkBM1f7xpy22fe9ivkLL7XVW7avA7fPv/IkNpU6w1InTITxuK50Ojj4YADvdXfo7uyFG3HDgwpJToNXtKZ05A8ZQ7izpwOWCzorS1H8+5t6KoOfpPqkaRPTkdy8SwkFc8FbDZYzCb0VB1HV9kRdNUGvx+dSgLq324CTidVLPseOO/BoU0pJiIiGi1RuwYLAFpbu7F58/7AFWlUOADc8SKwdrmznF8ITB/fhIPlg//gdOrEEZw6cSRwxRHWXV/pTJm+bUPAuqHKvvpOoXzi9aGnWrf19aL5611hCQApfE59dwinvjs02t0IWl/7STTs2oqGXVuH1M6yn7qDKziAG/+b81WJiCh6Rd0UQYouH+zJRGU5gH7n100XBbqCPBVctURYb9ZTVo6+9pN+riCKPrdeCtd7xLufADXNXHtFRETRK6pHsCg6zF3GqT6h0sYmoGDhXchZfL9wvPyVlaPUI6LhM/VOvkcQEdG/DgZYRBHknI0HoE1Jh0av9knN3V/XiOaSz0anY0REREQUFAZYRBEkJj0Lks53/yBrayf23DJvVPpERERERMGLujVYlv7RT7dMI8tmHv1U4KPFbgY6DuzH7hvPjohsiURERETkX1SkaZ86Nde1We/x403oVdgDi/41aGMTkDRxmrNgt+HkoZLR7dAISi46Cxp9HACgu6YMva2D2zuMiIiIiEZHVARYRERERERE0SDqpggSERERERFFKgZYREREREREYcIAi4iIiIiIKEwYYBEREREREYUJAywiIiIiIqIwYYBFREREREQUJprR7oCSmJiY0e4CERERERFRSDiCRUREREREFCYMsIiIiIiIiMKEARYREREREVGYMMAiIiIiIiIKk4hNciHHbDaPdheIiIiIiIgUcQSLiIiIiIgoTBhgERERERERhQkDLCIiIiIiojBhgEVERERERBQmDLCIiIiIiIjC5P8BF12dWUVHezQAAAAASUVORK5CYII=;" vertex="1" parent="1">
          <mxGeometry x="-300" y="970" width="285.33" height="90" as="geometry" />
        </mxCell>
        <mxCell id="SPbcS3pj2Kl96PpT9U_s-23" value="class part 2" style="text;strokeColor=none;fillColor=none;html=1;fontSize=24;fontStyle=1;verticalAlign=middle;align=center;fontColor=#330066;" vertex="1" parent="1">
          <mxGeometry x="-220" y="1070" width="100" height="40" as="geometry" />
        </mxCell>
      </root>
    </mxGraphModel>
  </diagram>
</mxfile>
